M48
; DRILL file {KiCad (5.1.10)-1} date 05/27/21 13:20:18
; FORMAT={-:-/ absolute / metric / decimal}
; #@! TF.CreationDate,2021-05-27T13:20:18+02:00
; #@! TF.GenerationSoftware,Kicad,Pcbnew,(5.1.10)-1
; #@! TF.FileFunction,NonPlated,1,2,NPTH
FMAT,2
METRIC
T1C1.800
T2C3.000
T3C3.200
T4C4.600
%
G90
G05
T1
X53.81Y-134.62
X80.81Y-134.62
X153.81Y-134.62
X180.81Y-134.62
X253.81Y-134.62
X280.81Y-134.62
X353.81Y-134.62
X380.81Y-134.62
T2
X58.82Y-126.13
X67.31Y-145.37
X75.8Y-126.13
X158.82Y-126.13
X167.31Y-145.37
X175.8Y-126.13
X258.82Y-126.13
X267.31Y-145.37
X275.8Y-126.13
X358.82Y-126.13
X367.31Y-145.37
X375.8Y-126.13
T3
X53.62Y-110.961
X53.62Y-148.471
X92.31Y-110.961
X92.31Y-148.471
X142.31Y-124.0
X142.31Y-148.471
X192.81Y-148.651
X242.81Y-148.651
X292.31Y-124.0
X292.81Y-148.651
X342.81Y-110.961
X342.81Y-148.651
X381.0Y-110.961
X381.0Y-148.471
T4
X67.31Y-128.62
X167.31Y-128.62
X267.31Y-128.62
X367.31Y-128.62
T0
M30
