M48
; DRILL file {KiCad (5.1.10)-1} date 05/27/21 13:20:18
; FORMAT={-:-/ absolute / metric / decimal}
; #@! TF.CreationDate,2021-05-27T13:20:18+02:00
; #@! TF.GenerationSoftware,Kicad,Pcbnew,(5.1.10)-1
; #@! TF.FileFunction,Plated,1,2,PTH
FMAT,2
METRIC
T1C0.400
T2C0.600
T3C0.762
T4C0.800
T5C1.000
%
G90
G05
T1
X51.31Y-144.151
X52.31Y-123.651
X60.81Y-135.151
X64.31Y-140.151
X67.31Y-108.651
X72.31Y-128.651
X75.81Y-140.151
X77.31Y-118.651
X77.31Y-133.651
X77.31Y-148.651
X86.36Y-135.636
X88.81Y-130.651
X88.9Y-136.906
X91.81Y-125.151
X94.81Y-119.651
X98.91Y-113.451
X100.31Y-123.701
X101.71Y-143.851
X101.91Y-125.651
X102.31Y-121.651
X109.81Y-126.651
X110.31Y-119.651
X118.71Y-119.851
X120.81Y-117.651
X121.81Y-116.651
X123.71Y-149.651
X126.11Y-122.651
X127.31Y-108.651
X130.31Y-120.651
X130.81Y-117.651
X131.81Y-116.651
X133.31Y-110.651
X136.31Y-128.451
X140.97Y-139.446
X142.51Y-142.651
X149.86Y-131.953
X154.31Y-110.651
X154.31Y-120.651
X162.11Y-149.051
X162.31Y-128.651
X165.31Y-139.151
X172.31Y-128.651
X178.31Y-110.651
X179.31Y-119.151
X179.31Y-122.151
X187.31Y-148.651
X188.81Y-125.151
X188.81Y-131.151
X188.81Y-139.651
X193.81Y-123.151
X193.81Y-127.651
X193.81Y-130.151
X196.31Y-119.151
X197.31Y-110.651
X200.31Y-136.651
X207.31Y-148.651
X208.31Y-132.151
X217.31Y-128.651
X217.31Y-140.651
X224.81Y-143.651
X225.31Y-118.151
X227.31Y-148.651
X229.71Y-134.851
X234.31Y-119.651
X244.81Y-129.151
X247.31Y-148.651
X247.71Y-138.251
X249.81Y-120.651
X252.31Y-121.651
X254.31Y-110.651
X255.31Y-126.151
X258.31Y-137.151
X258.81Y-145.151
X262.31Y-130.151
X266.81Y-139.151
X269.31Y-117.651
X271.31Y-145.151
X271.51Y-150.851
X271.91Y-128.051
X274.81Y-119.651
X278.31Y-135.151
X282.56Y-130.901
X283.31Y-126.151
X285.81Y-135.651
X286.81Y-122.151
X287.31Y-118.151
X288.31Y-136.651
X292.31Y-129.651
X292.81Y-118.651
X295.31Y-121.151
X302.81Y-125.151
X306.31Y-143.651
X308.31Y-117.651
X309.81Y-113.651
X310.81Y-114.651
X311.91Y-151.251
X318.81Y-113.151
X319.81Y-114.651
X322.31Y-108.651
X322.81Y-124.151
X325.31Y-119.151
X330.31Y-130.151
X331.31Y-121.651
X332.31Y-125.651
X334.31Y-124.651
X334.91Y-144.851
X342.31Y-118.651
X342.81Y-132.151
X345.31Y-125.651
X345.31Y-130.651
X348.41Y-138.051
X352.31Y-108.651
X362.31Y-118.651
X362.31Y-127.651
X362.31Y-148.651
X371.31Y-133.651
X372.31Y-108.651
X372.31Y-128.651
X377.31Y-143.651
X382.31Y-118.651
X383.31Y-134.151
T2
X66.04Y-123.62
X66.04Y-133.62
X67.31Y-123.62
X67.31Y-133.62
X68.58Y-123.62
X68.58Y-133.62
X166.04Y-123.62
X166.04Y-133.62
X167.31Y-123.62
X167.31Y-133.62
X168.58Y-123.62
X168.58Y-133.62
X266.04Y-123.62
X266.04Y-133.62
X267.31Y-123.62
X267.31Y-133.62
X268.58Y-123.62
X268.58Y-133.62
X366.04Y-123.62
X366.04Y-133.62
X367.31Y-123.62
X367.31Y-133.62
X368.58Y-123.62
X368.58Y-133.62
T3
X199.31Y-110.411
X199.31Y-125.651
X201.85Y-110.411
X201.85Y-125.651
X204.39Y-110.411
X204.39Y-125.651
X206.93Y-110.411
X206.93Y-125.651
X209.47Y-110.411
X209.47Y-125.651
X212.01Y-110.411
X212.01Y-125.651
X214.55Y-110.411
X214.55Y-125.651
X217.09Y-110.411
X217.09Y-125.651
X219.63Y-110.411
X219.63Y-125.651
X222.17Y-110.411
X222.17Y-125.651
X224.71Y-110.411
X224.71Y-125.651
X227.25Y-110.411
X227.25Y-125.651
X229.79Y-110.411
X229.79Y-125.651
X232.33Y-110.411
X232.33Y-125.651
X234.87Y-110.411
X234.87Y-125.651
X237.41Y-110.411
X237.41Y-125.651
X239.95Y-110.411
X239.95Y-125.651
X242.49Y-110.411
X242.49Y-125.651
X245.03Y-110.411
X245.03Y-125.651
X247.57Y-110.411
X247.57Y-125.651
T4
X53.34Y-128.26
X53.34Y-140.98
X55.88Y-130.81
X55.88Y-138.43
X78.74Y-130.81
X78.74Y-138.43
X81.28Y-128.26
X81.28Y-140.98
X153.34Y-128.26
X153.34Y-140.98
X155.88Y-130.81
X155.88Y-138.43
X178.74Y-130.81
X178.74Y-138.43
X181.28Y-128.26
X181.28Y-140.98
X210.838Y-132.221
X210.838Y-137.301
X220.998Y-132.221
X220.998Y-137.301
X253.34Y-128.26
X253.34Y-140.98
X255.88Y-130.81
X255.88Y-138.43
X278.74Y-130.81
X278.74Y-138.43
X281.28Y-128.26
X281.28Y-140.98
X353.34Y-128.26
X353.34Y-140.98
X355.88Y-130.81
X355.88Y-138.43
X378.74Y-130.81
X378.74Y-138.43
X381.28Y-128.26
X381.28Y-140.98
T5
X213.5Y-146.5
X216.04Y-146.5
X218.58Y-146.5
X221.12Y-146.5
T0
M30
