G04 #@! TF.GenerationSoftware,KiCad,Pcbnew,(5.1.10)-1*
G04 #@! TF.CreationDate,2021-05-27T13:20:15+02:00*
G04 #@! TF.ProjectId,pcb rev1,70636220-7265-4763-912e-6b696361645f,rev?*
G04 #@! TF.SameCoordinates,Original*
G04 #@! TF.FileFunction,Soldermask,Bot*
G04 #@! TF.FilePolarity,Negative*
%FSLAX46Y46*%
G04 Gerber Fmt 4.6, Leading zero omitted, Abs format (unit mm)*
G04 Created by KiCad (PCBNEW (5.1.10)-1) date 2021-05-27 13:20:15*
%MOMM*%
%LPD*%
G01*
G04 APERTURE LIST*
%ADD10C,2.000000*%
%ADD11C,4.600000*%
%ADD12C,3.000000*%
%ADD13C,1.800000*%
%ADD14C,3.200000*%
%ADD15C,1.524000*%
%ADD16R,1.524000X1.524000*%
%ADD17O,0.899160X1.501140*%
%ADD18O,1.700000X1.700000*%
%ADD19R,1.700000X1.700000*%
%ADD20C,1.600000*%
%ADD21O,1.600000X1.600000*%
G04 APERTURE END LIST*
D10*
X255880000Y-130810000D03*
X255880000Y-138430000D03*
X278740000Y-130810000D03*
X278740000Y-138430000D03*
X253340000Y-128260000D03*
X253340000Y-140980000D03*
X281280000Y-140980000D03*
X281280000Y-128260000D03*
D11*
X267310000Y-128620000D03*
D12*
X258820000Y-126130000D03*
X275800000Y-126130000D03*
X267310000Y-145370000D03*
D13*
X280810000Y-134620000D03*
X253810000Y-134620000D03*
D14*
X292310000Y-124000000D03*
X342810000Y-110961000D03*
X192810000Y-148651000D03*
X342810000Y-148651000D03*
X292810000Y-148651000D03*
X242810000Y-148651000D03*
X381000000Y-110961000D03*
X381000000Y-148471000D03*
D10*
X55880000Y-130810000D03*
X55880000Y-138430000D03*
X78740000Y-130810000D03*
X78740000Y-138430000D03*
X53340000Y-128260000D03*
X53340000Y-140980000D03*
X81280000Y-140980000D03*
X81280000Y-128260000D03*
D11*
X67310000Y-128620000D03*
D12*
X58820000Y-126130000D03*
X75800000Y-126130000D03*
X67310000Y-145370000D03*
D13*
X80810000Y-134620000D03*
X53810000Y-134620000D03*
D10*
X155880000Y-130810000D03*
X155880000Y-138430000D03*
X178740000Y-130810000D03*
X178740000Y-138430000D03*
X153340000Y-128260000D03*
X153340000Y-140980000D03*
X181280000Y-140980000D03*
X181280000Y-128260000D03*
D11*
X167310000Y-128620000D03*
D12*
X158820000Y-126130000D03*
X175800000Y-126130000D03*
X167310000Y-145370000D03*
D13*
X180810000Y-134620000D03*
X153810000Y-134620000D03*
D10*
X355880000Y-130810000D03*
X355880000Y-138430000D03*
X378740000Y-130810000D03*
X378740000Y-138430000D03*
X353340000Y-128260000D03*
X353340000Y-140980000D03*
X381280000Y-140980000D03*
X381280000Y-128260000D03*
D11*
X367310000Y-128620000D03*
D12*
X358820000Y-126130000D03*
X375800000Y-126130000D03*
X367310000Y-145370000D03*
D13*
X380810000Y-134620000D03*
X353810000Y-134620000D03*
D15*
X199310000Y-110411000D03*
X201850000Y-110411000D03*
X204390000Y-110411000D03*
X206930000Y-110411000D03*
X209470000Y-110411000D03*
X212010000Y-110411000D03*
X214550000Y-110411000D03*
X217090000Y-110411000D03*
X219630000Y-110411000D03*
X222170000Y-110411000D03*
X224710000Y-110411000D03*
X227250000Y-110411000D03*
X229790000Y-110411000D03*
X232330000Y-110411000D03*
X234870000Y-110411000D03*
X237410000Y-110411000D03*
X239950000Y-110411000D03*
X242490000Y-110411000D03*
X245030000Y-110411000D03*
X247570000Y-110411000D03*
X247570000Y-125651000D03*
X245030000Y-125651000D03*
X242490000Y-125651000D03*
X239950000Y-125651000D03*
X237410000Y-125651000D03*
X234870000Y-125651000D03*
X232330000Y-125651000D03*
X229790000Y-125651000D03*
X227250000Y-125651000D03*
X224710000Y-125651000D03*
X222170000Y-125651000D03*
X219630000Y-125651000D03*
X217090000Y-125651000D03*
X214550000Y-125651000D03*
X212010000Y-125651000D03*
X209470000Y-125651000D03*
X206930000Y-125651000D03*
X204390000Y-125651000D03*
X201850000Y-125651000D03*
D16*
X199310000Y-125651000D03*
D14*
X92310000Y-110961000D03*
X53620000Y-110961000D03*
X142310000Y-124000000D03*
X142310000Y-148471000D03*
X92310000Y-148471000D03*
X53620000Y-148471000D03*
D17*
X366040000Y-123620000D03*
X368580000Y-123620000D03*
X367310000Y-123620000D03*
X66040000Y-123620000D03*
X68580000Y-123620000D03*
X67310000Y-123620000D03*
X68580000Y-133620000D03*
X66040000Y-133620000D03*
X67310000Y-133620000D03*
X166040000Y-123620000D03*
X168580000Y-123620000D03*
X167310000Y-123620000D03*
X168580000Y-133620000D03*
X166040000Y-133620000D03*
X167310000Y-133620000D03*
X266040000Y-123620000D03*
X268580000Y-123620000D03*
X267310000Y-123620000D03*
X268580000Y-133620000D03*
X266040000Y-133620000D03*
X267310000Y-133620000D03*
X368580000Y-133620000D03*
X366040000Y-133620000D03*
X367310000Y-133620000D03*
D18*
X221120000Y-146500000D03*
X218580000Y-146500000D03*
X216040000Y-146500000D03*
D19*
X213500000Y-146500000D03*
D20*
X210838000Y-137301000D03*
D21*
X220998000Y-137301000D03*
X220998000Y-132221000D03*
D20*
X210838000Y-132221000D03*
M02*
