G04 #@! TF.GenerationSoftware,KiCad,Pcbnew,(5.1.10)-1*
G04 #@! TF.CreationDate,2021-05-27T13:20:15+02:00*
G04 #@! TF.ProjectId,pcb rev1,70636220-7265-4763-912e-6b696361645f,rev?*
G04 #@! TF.SameCoordinates,Original*
G04 #@! TF.FileFunction,Legend,Top*
G04 #@! TF.FilePolarity,Positive*
%FSLAX46Y46*%
G04 Gerber Fmt 4.6, Leading zero omitted, Abs format (unit mm)*
G04 Created by KiCad (PCBNEW (5.1.10)-1) date 2021-05-27 13:20:15*
%MOMM*%
%LPD*%
G01*
G04 APERTURE LIST*
%ADD10C,0.150000*%
%ADD11C,0.120000*%
%ADD12C,2.000000*%
%ADD13C,4.600000*%
%ADD14C,3.000000*%
%ADD15C,1.800000*%
%ADD16C,3.200000*%
%ADD17C,1.524000*%
%ADD18R,1.524000X1.524000*%
%ADD19O,0.899160X1.501140*%
%ADD20R,3.000000X0.700000*%
%ADD21O,1.700000X1.700000*%
%ADD22R,1.700000X1.700000*%
%ADD23C,1.600000*%
%ADD24O,1.600000X1.600000*%
G04 APERTURE END LIST*
D10*
X223095714Y-151655761D02*
X223238571Y-151703380D01*
X223476666Y-151703380D01*
X223571904Y-151655761D01*
X223619523Y-151608142D01*
X223667142Y-151512904D01*
X223667142Y-151417666D01*
X223619523Y-151322428D01*
X223571904Y-151274809D01*
X223476666Y-151227190D01*
X223286190Y-151179571D01*
X223190952Y-151131952D01*
X223143333Y-151084333D01*
X223095714Y-150989095D01*
X223095714Y-150893857D01*
X223143333Y-150798619D01*
X223190952Y-150751000D01*
X223286190Y-150703380D01*
X223524285Y-150703380D01*
X223667142Y-150751000D01*
X224095714Y-151703380D02*
X224095714Y-150703380D01*
X224333809Y-150703380D01*
X224476666Y-150751000D01*
X224571904Y-150846238D01*
X224619523Y-150941476D01*
X224667142Y-151131952D01*
X224667142Y-151274809D01*
X224619523Y-151465285D01*
X224571904Y-151560523D01*
X224476666Y-151655761D01*
X224333809Y-151703380D01*
X224095714Y-151703380D01*
X225048095Y-151417666D02*
X225524285Y-151417666D01*
X224952857Y-151703380D02*
X225286190Y-150703380D01*
X225619523Y-151703380D01*
X218519523Y-151655761D02*
X218662380Y-151703380D01*
X218900476Y-151703380D01*
X218995714Y-151655761D01*
X219043333Y-151608142D01*
X219090952Y-151512904D01*
X219090952Y-151417666D01*
X219043333Y-151322428D01*
X218995714Y-151274809D01*
X218900476Y-151227190D01*
X218710000Y-151179571D01*
X218614761Y-151131952D01*
X218567142Y-151084333D01*
X218519523Y-150989095D01*
X218519523Y-150893857D01*
X218567142Y-150798619D01*
X218614761Y-150751000D01*
X218710000Y-150703380D01*
X218948095Y-150703380D01*
X219090952Y-150751000D01*
X220090952Y-151608142D02*
X220043333Y-151655761D01*
X219900476Y-151703380D01*
X219805238Y-151703380D01*
X219662380Y-151655761D01*
X219567142Y-151560523D01*
X219519523Y-151465285D01*
X219471904Y-151274809D01*
X219471904Y-151131952D01*
X219519523Y-150941476D01*
X219567142Y-150846238D01*
X219662380Y-150751000D01*
X219805238Y-150703380D01*
X219900476Y-150703380D01*
X220043333Y-150751000D01*
X220090952Y-150798619D01*
X220995714Y-151703380D02*
X220519523Y-151703380D01*
X220519523Y-150703380D01*
X215519523Y-150703380D02*
X215043333Y-150703380D01*
X214995714Y-151179571D01*
X215043333Y-151131952D01*
X215138571Y-151084333D01*
X215376666Y-151084333D01*
X215471904Y-151131952D01*
X215519523Y-151179571D01*
X215567142Y-151274809D01*
X215567142Y-151512904D01*
X215519523Y-151608142D01*
X215471904Y-151655761D01*
X215376666Y-151703380D01*
X215138571Y-151703380D01*
X215043333Y-151655761D01*
X214995714Y-151608142D01*
X215852857Y-150703380D02*
X216186190Y-151703380D01*
X216519523Y-150703380D01*
X210548095Y-150751000D02*
X210452857Y-150703380D01*
X210310000Y-150703380D01*
X210167142Y-150751000D01*
X210071904Y-150846238D01*
X210024285Y-150941476D01*
X209976666Y-151131952D01*
X209976666Y-151274809D01*
X210024285Y-151465285D01*
X210071904Y-151560523D01*
X210167142Y-151655761D01*
X210310000Y-151703380D01*
X210405238Y-151703380D01*
X210548095Y-151655761D01*
X210595714Y-151608142D01*
X210595714Y-151274809D01*
X210405238Y-151274809D01*
X211024285Y-151703380D02*
X211024285Y-150703380D01*
X211595714Y-151703380D01*
X211595714Y-150703380D01*
X212071904Y-151703380D02*
X212071904Y-150703380D01*
X212310000Y-150703380D01*
X212452857Y-150751000D01*
X212548095Y-150846238D01*
X212595714Y-150941476D01*
X212643333Y-151131952D01*
X212643333Y-151274809D01*
X212595714Y-151465285D01*
X212548095Y-151560523D01*
X212452857Y-151655761D01*
X212310000Y-151703380D01*
X212071904Y-151703380D01*
D11*
X284201000Y-138430000D02*
X282042000Y-138430000D01*
X284210000Y-130809999D02*
X282042000Y-130810000D01*
X284210000Y-130809999D02*
X284210000Y-138429999D01*
X250419000Y-138430000D02*
X252578000Y-138430000D01*
X250419000Y-130810000D02*
X252578000Y-130810000D01*
X250410000Y-130810000D02*
X250410000Y-138430000D01*
X267310000Y-119420003D02*
G75*
G02*
X280507294Y-127078691I0J-15199997D01*
G01*
X282509995Y-134619999D02*
G75*
G02*
X281729982Y-139426660I-15199995J-1D01*
G01*
X267310000Y-149819997D02*
G75*
G02*
X254276110Y-142440333I0J15199997D01*
G01*
X252110001Y-134620001D02*
G75*
G02*
X252890015Y-129813339I15199999J1D01*
G01*
X280343892Y-142440335D02*
G75*
G02*
X267310000Y-149820000I-13033892J7820335D01*
G01*
X281732915Y-129822135D02*
G75*
G02*
X282510000Y-134620000I-14422915J-4797865D01*
G01*
X254276108Y-126799665D02*
G75*
G02*
X267310000Y-119420000I13033892J-7820335D01*
G01*
X252890014Y-139426662D02*
G75*
G02*
X252110000Y-134620000I14419986J4806662D01*
G01*
X84201000Y-138430000D02*
X82042000Y-138430000D01*
X84210000Y-130809999D02*
X82042000Y-130810000D01*
X84210000Y-130809999D02*
X84210000Y-138429999D01*
X50419000Y-138430000D02*
X52578000Y-138430000D01*
X50419000Y-130810000D02*
X52578000Y-130810000D01*
X50410000Y-130810000D02*
X50410000Y-138430000D01*
X67310000Y-119420003D02*
G75*
G02*
X80507294Y-127078691I0J-15199997D01*
G01*
X82509995Y-134619999D02*
G75*
G02*
X81729982Y-139426660I-15199995J-1D01*
G01*
X67310000Y-149819997D02*
G75*
G02*
X54276110Y-142440333I0J15199997D01*
G01*
X52110001Y-134620001D02*
G75*
G02*
X52890015Y-129813339I15199999J1D01*
G01*
X80343892Y-142440335D02*
G75*
G02*
X67310000Y-149820000I-13033892J7820335D01*
G01*
X81732915Y-129822135D02*
G75*
G02*
X82510000Y-134620000I-14422915J-4797865D01*
G01*
X54276108Y-126799665D02*
G75*
G02*
X67310000Y-119420000I13033892J-7820335D01*
G01*
X52890014Y-139426662D02*
G75*
G02*
X52110000Y-134620000I14419986J4806662D01*
G01*
X184201000Y-138430000D02*
X182042000Y-138430000D01*
X184210000Y-130809999D02*
X182042000Y-130810000D01*
X184210000Y-130809999D02*
X184210000Y-138429999D01*
X150419000Y-138430000D02*
X152578000Y-138430000D01*
X150419000Y-130810000D02*
X152578000Y-130810000D01*
X150410000Y-130810000D02*
X150410000Y-138430000D01*
X167310000Y-119420003D02*
G75*
G02*
X180507294Y-127078691I0J-15199997D01*
G01*
X182509995Y-134619999D02*
G75*
G02*
X181729982Y-139426660I-15199995J-1D01*
G01*
X167310000Y-149819997D02*
G75*
G02*
X154276110Y-142440333I0J15199997D01*
G01*
X152110001Y-134620001D02*
G75*
G02*
X152890015Y-129813339I15199999J1D01*
G01*
X180343892Y-142440335D02*
G75*
G02*
X167310000Y-149820000I-13033892J7820335D01*
G01*
X181732915Y-129822135D02*
G75*
G02*
X182510000Y-134620000I-14422915J-4797865D01*
G01*
X154276108Y-126799665D02*
G75*
G02*
X167310000Y-119420000I13033892J-7820335D01*
G01*
X152890014Y-139426662D02*
G75*
G02*
X152110000Y-134620000I14419986J4806662D01*
G01*
X384201000Y-138430000D02*
X382042000Y-138430000D01*
X384210000Y-130809999D02*
X382042000Y-130810000D01*
X384210000Y-130809999D02*
X384210000Y-138429999D01*
X350419000Y-138430000D02*
X352578000Y-138430000D01*
X350419000Y-130810000D02*
X352578000Y-130810000D01*
X350410000Y-130810000D02*
X350410000Y-138430000D01*
X367310000Y-119420003D02*
G75*
G02*
X380507294Y-127078691I0J-15199997D01*
G01*
X382509995Y-134619999D02*
G75*
G02*
X381729982Y-139426660I-15199995J-1D01*
G01*
X367310000Y-149819997D02*
G75*
G02*
X354276110Y-142440333I0J15199997D01*
G01*
X352110001Y-134620001D02*
G75*
G02*
X352890015Y-129813339I15199999J1D01*
G01*
X380343892Y-142440335D02*
G75*
G02*
X367310000Y-149820000I-13033892J7820335D01*
G01*
X381732915Y-129822135D02*
G75*
G02*
X382510000Y-134620000I-14422915J-4797865D01*
G01*
X354276108Y-126799665D02*
G75*
G02*
X367310000Y-119420000I13033892J-7820335D01*
G01*
X352890014Y-139426662D02*
G75*
G02*
X352110000Y-134620000I14419986J4806662D01*
G01*
X197980000Y-126981000D02*
X199310000Y-126981000D01*
X197980000Y-125651000D02*
X197980000Y-126981000D01*
X200580000Y-126981000D02*
X200580000Y-124321000D01*
X248900000Y-111741000D02*
X197980000Y-111741000D01*
X197980000Y-124321000D02*
X248900000Y-124321000D01*
X248900000Y-126981000D02*
X200580000Y-126981000D01*
X197980000Y-109081000D02*
X248900000Y-109081000D01*
X248900000Y-109081000D02*
X248900000Y-126981000D01*
X197980000Y-124321000D02*
X197980000Y-109081000D01*
X111310000Y-145376000D02*
X111310000Y-127966000D01*
X123310000Y-145376000D02*
X111310000Y-145376000D01*
X123310000Y-127166000D02*
X123310000Y-145376000D01*
X112110000Y-127166000D02*
X123310000Y-127166000D01*
X111310000Y-127966000D02*
X112110000Y-127166000D01*
X212170000Y-147830000D02*
X212170000Y-146500000D01*
X213500000Y-147830000D02*
X212170000Y-147830000D01*
X214770000Y-147830000D02*
X214770000Y-145170000D01*
X214770000Y-145170000D02*
X222450000Y-145170000D01*
X214770000Y-147830000D02*
X222450000Y-147830000D01*
X222450000Y-147830000D02*
X222450000Y-145170000D01*
X212648000Y-135931000D02*
X212648000Y-138671000D01*
X212648000Y-138671000D02*
X219188000Y-138671000D01*
X219188000Y-138671000D02*
X219188000Y-135931000D01*
X219188000Y-135931000D02*
X212648000Y-135931000D01*
X211878000Y-137301000D02*
X212648000Y-137301000D01*
X219958000Y-137301000D02*
X219188000Y-137301000D01*
X219958000Y-132221000D02*
X219188000Y-132221000D01*
X211878000Y-132221000D02*
X212648000Y-132221000D01*
X219188000Y-130851000D02*
X212648000Y-130851000D01*
X219188000Y-133591000D02*
X219188000Y-130851000D01*
X212648000Y-133591000D02*
X219188000Y-133591000D01*
X212648000Y-130851000D02*
X212648000Y-133591000D01*
X311310000Y-145376000D02*
X311310000Y-127966000D01*
X323310000Y-145376000D02*
X311310000Y-145376000D01*
X323310000Y-127166000D02*
X323310000Y-145376000D01*
X312110000Y-127166000D02*
X323310000Y-127166000D01*
X311310000Y-127966000D02*
X312110000Y-127166000D01*
X207570000Y-139740000D02*
X206370000Y-139740000D01*
X203050000Y-139740000D02*
X204250000Y-139740000D01*
X203050000Y-143195563D02*
X203050000Y-139740000D01*
X207570000Y-143195563D02*
X207570000Y-139740000D01*
X206505563Y-144260000D02*
X206370000Y-144260000D01*
X204114437Y-144260000D02*
X204250000Y-144260000D01*
X204114437Y-144260000D02*
X203050000Y-143195563D01*
X206505563Y-144260000D02*
X207570000Y-143195563D01*
X203750000Y-145000000D02*
X203750000Y-144500000D01*
X203500000Y-144750000D02*
X204000000Y-144750000D01*
X114425580Y-125361000D02*
X114144420Y-125361000D01*
X114425580Y-124341000D02*
X114144420Y-124341000D01*
X81800000Y-123510420D02*
X81800000Y-123791580D01*
X82820000Y-123510420D02*
X82820000Y-123791580D01*
X126300000Y-145010420D02*
X126300000Y-145291580D01*
X127320000Y-145010420D02*
X127320000Y-145291580D01*
X86820000Y-126285420D02*
X86820000Y-126566580D01*
X85800000Y-126285420D02*
X85800000Y-126566580D01*
X85800000Y-129510420D02*
X85800000Y-129791580D01*
X86820000Y-129510420D02*
X86820000Y-129791580D01*
X182320000Y-119510420D02*
X182320000Y-119791580D01*
X181300000Y-119510420D02*
X181300000Y-119791580D01*
X182320000Y-123291580D02*
X182320000Y-123010420D01*
X181300000Y-123291580D02*
X181300000Y-123010420D01*
X185300000Y-129566580D02*
X185300000Y-129285420D01*
X186320000Y-129566580D02*
X186320000Y-129285420D01*
X186320000Y-126291580D02*
X186320000Y-126010420D01*
X185300000Y-126291580D02*
X185300000Y-126010420D01*
X82820000Y-120285420D02*
X82820000Y-120566580D01*
X81800000Y-120285420D02*
X81800000Y-120566580D01*
X352820000Y-120235420D02*
X352820000Y-120516580D01*
X351800000Y-120235420D02*
X351800000Y-120516580D01*
X227500000Y-144750000D02*
X228000000Y-144750000D01*
X227750000Y-145000000D02*
X227750000Y-144500000D01*
X230505563Y-144260000D02*
X231570000Y-143195563D01*
X228114437Y-144260000D02*
X227050000Y-143195563D01*
X228114437Y-144260000D02*
X228250000Y-144260000D01*
X230505563Y-144260000D02*
X230370000Y-144260000D01*
X231570000Y-143195563D02*
X231570000Y-139740000D01*
X227050000Y-143195563D02*
X227050000Y-139740000D01*
X227050000Y-139740000D02*
X228250000Y-139740000D01*
X231570000Y-139740000D02*
X230370000Y-139740000D01*
X348820000Y-126285420D02*
X348820000Y-126566580D01*
X347800000Y-126285420D02*
X347800000Y-126566580D01*
X280320000Y-118016580D02*
X280320000Y-117735420D01*
X279300000Y-118016580D02*
X279300000Y-117735420D01*
X279300000Y-121191580D02*
X279300000Y-120910420D01*
X280320000Y-121191580D02*
X280320000Y-120910420D01*
X347800000Y-129510420D02*
X347800000Y-129791580D01*
X348820000Y-129510420D02*
X348820000Y-129791580D01*
X316450580Y-147961000D02*
X316169420Y-147961000D01*
X316450580Y-146941000D02*
X316169420Y-146941000D01*
X309675580Y-123641000D02*
X309394420Y-123641000D01*
X309675580Y-124661000D02*
X309394420Y-124661000D01*
X285820000Y-124785420D02*
X285820000Y-125066580D01*
X284800000Y-124785420D02*
X284800000Y-125066580D01*
X351800000Y-123510420D02*
X351800000Y-123791580D01*
X352820000Y-123510420D02*
X352820000Y-123791580D01*
X284800000Y-128235420D02*
X284800000Y-128516580D01*
X285820000Y-128235420D02*
X285820000Y-128516580D01*
X88787500Y-127778742D02*
X88787500Y-128253258D01*
X89832500Y-127778742D02*
X89832500Y-128253258D01*
X127032500Y-127288258D02*
X127032500Y-126813742D01*
X125987500Y-127288258D02*
X125987500Y-126813742D01*
X85832500Y-121738742D02*
X85832500Y-122213258D01*
X84787500Y-121738742D02*
X84787500Y-122213258D01*
X189332500Y-128213258D02*
X189332500Y-127738742D01*
X188287500Y-128213258D02*
X188287500Y-127738742D01*
X185332500Y-121088742D02*
X185332500Y-121563258D01*
X184287500Y-121088742D02*
X184287500Y-121563258D01*
X327287500Y-127888258D02*
X327287500Y-127413742D01*
X328332500Y-127888258D02*
X328332500Y-127413742D01*
X348787500Y-121913742D02*
X348787500Y-122388258D01*
X349832500Y-121913742D02*
X349832500Y-122388258D01*
X287787500Y-127063258D02*
X287787500Y-126588742D01*
X288832500Y-127063258D02*
X288832500Y-126588742D01*
X344787500Y-127778742D02*
X344787500Y-128253258D01*
X345832500Y-127778742D02*
X345832500Y-128253258D01*
X283332500Y-119163742D02*
X283332500Y-119638258D01*
X282287500Y-119163742D02*
X282287500Y-119638258D01*
D10*
X265786190Y-150328380D02*
X266452857Y-151328380D01*
X266452857Y-150328380D02*
X265786190Y-151328380D01*
X266786190Y-150423619D02*
X266833809Y-150376000D01*
X266929047Y-150328380D01*
X267167142Y-150328380D01*
X267262380Y-150376000D01*
X267310000Y-150423619D01*
X267357619Y-150518857D01*
X267357619Y-150614095D01*
X267310000Y-150756952D01*
X266738571Y-151328380D01*
X267357619Y-151328380D01*
X267786190Y-151233142D02*
X267833809Y-151280761D01*
X267786190Y-151328380D01*
X267738571Y-151280761D01*
X267786190Y-151233142D01*
X267786190Y-151328380D01*
X268786190Y-151328380D02*
X268214761Y-151328380D01*
X268500476Y-151328380D02*
X268500476Y-150328380D01*
X268405238Y-150471238D01*
X268310000Y-150566476D01*
X268214761Y-150614095D01*
X291500476Y-121452380D02*
X291500476Y-120452380D01*
X291833809Y-121166666D01*
X292167142Y-120452380D01*
X292167142Y-121452380D01*
X292548095Y-120452380D02*
X293167142Y-120452380D01*
X292833809Y-120833333D01*
X292976666Y-120833333D01*
X293071904Y-120880952D01*
X293119523Y-120928571D01*
X293167142Y-121023809D01*
X293167142Y-121261904D01*
X293119523Y-121357142D01*
X293071904Y-121404761D01*
X292976666Y-121452380D01*
X292690952Y-121452380D01*
X292595714Y-121404761D01*
X292548095Y-121357142D01*
X342000476Y-108413380D02*
X342000476Y-107413380D01*
X342333809Y-108127666D01*
X342667142Y-107413380D01*
X342667142Y-108413380D01*
X343048095Y-107413380D02*
X343667142Y-107413380D01*
X343333809Y-107794333D01*
X343476666Y-107794333D01*
X343571904Y-107841952D01*
X343619523Y-107889571D01*
X343667142Y-107984809D01*
X343667142Y-108222904D01*
X343619523Y-108318142D01*
X343571904Y-108365761D01*
X343476666Y-108413380D01*
X343190952Y-108413380D01*
X343095714Y-108365761D01*
X343048095Y-108318142D01*
X192000476Y-146103380D02*
X192000476Y-145103380D01*
X192333809Y-145817666D01*
X192667142Y-145103380D01*
X192667142Y-146103380D01*
X193048095Y-145103380D02*
X193667142Y-145103380D01*
X193333809Y-145484333D01*
X193476666Y-145484333D01*
X193571904Y-145531952D01*
X193619523Y-145579571D01*
X193667142Y-145674809D01*
X193667142Y-145912904D01*
X193619523Y-146008142D01*
X193571904Y-146055761D01*
X193476666Y-146103380D01*
X193190952Y-146103380D01*
X193095714Y-146055761D01*
X193048095Y-146008142D01*
X342000476Y-146103380D02*
X342000476Y-145103380D01*
X342333809Y-145817666D01*
X342667142Y-145103380D01*
X342667142Y-146103380D01*
X343048095Y-145103380D02*
X343667142Y-145103380D01*
X343333809Y-145484333D01*
X343476666Y-145484333D01*
X343571904Y-145531952D01*
X343619523Y-145579571D01*
X343667142Y-145674809D01*
X343667142Y-145912904D01*
X343619523Y-146008142D01*
X343571904Y-146055761D01*
X343476666Y-146103380D01*
X343190952Y-146103380D01*
X343095714Y-146055761D01*
X343048095Y-146008142D01*
X292000476Y-146103380D02*
X292000476Y-145103380D01*
X292333809Y-145817666D01*
X292667142Y-145103380D01*
X292667142Y-146103380D01*
X293048095Y-145103380D02*
X293667142Y-145103380D01*
X293333809Y-145484333D01*
X293476666Y-145484333D01*
X293571904Y-145531952D01*
X293619523Y-145579571D01*
X293667142Y-145674809D01*
X293667142Y-145912904D01*
X293619523Y-146008142D01*
X293571904Y-146055761D01*
X293476666Y-146103380D01*
X293190952Y-146103380D01*
X293095714Y-146055761D01*
X293048095Y-146008142D01*
X242000476Y-146103380D02*
X242000476Y-145103380D01*
X242333809Y-145817666D01*
X242667142Y-145103380D01*
X242667142Y-146103380D01*
X243048095Y-145103380D02*
X243667142Y-145103380D01*
X243333809Y-145484333D01*
X243476666Y-145484333D01*
X243571904Y-145531952D01*
X243619523Y-145579571D01*
X243667142Y-145674809D01*
X243667142Y-145912904D01*
X243619523Y-146008142D01*
X243571904Y-146055761D01*
X243476666Y-146103380D01*
X243190952Y-146103380D01*
X243095714Y-146055761D01*
X243048095Y-146008142D01*
X380190476Y-108413380D02*
X380190476Y-107413380D01*
X380523809Y-108127666D01*
X380857142Y-107413380D01*
X380857142Y-108413380D01*
X381238095Y-107413380D02*
X381857142Y-107413380D01*
X381523809Y-107794333D01*
X381666666Y-107794333D01*
X381761904Y-107841952D01*
X381809523Y-107889571D01*
X381857142Y-107984809D01*
X381857142Y-108222904D01*
X381809523Y-108318142D01*
X381761904Y-108365761D01*
X381666666Y-108413380D01*
X381380952Y-108413380D01*
X381285714Y-108365761D01*
X381238095Y-108318142D01*
X380190476Y-145923380D02*
X380190476Y-144923380D01*
X380523809Y-145637666D01*
X380857142Y-144923380D01*
X380857142Y-145923380D01*
X381238095Y-144923380D02*
X381857142Y-144923380D01*
X381523809Y-145304333D01*
X381666666Y-145304333D01*
X381761904Y-145351952D01*
X381809523Y-145399571D01*
X381857142Y-145494809D01*
X381857142Y-145732904D01*
X381809523Y-145828142D01*
X381761904Y-145875761D01*
X381666666Y-145923380D01*
X381380952Y-145923380D01*
X381285714Y-145875761D01*
X381238095Y-145828142D01*
X65786190Y-150328380D02*
X66452857Y-151328380D01*
X66452857Y-150328380D02*
X65786190Y-151328380D01*
X67357619Y-151328380D02*
X66786190Y-151328380D01*
X67071904Y-151328380D02*
X67071904Y-150328380D01*
X66976666Y-150471238D01*
X66881428Y-150566476D01*
X66786190Y-150614095D01*
X67786190Y-151233142D02*
X67833809Y-151280761D01*
X67786190Y-151328380D01*
X67738571Y-151280761D01*
X67786190Y-151233142D01*
X67786190Y-151328380D01*
X68786190Y-151328380D02*
X68214761Y-151328380D01*
X68500476Y-151328380D02*
X68500476Y-150328380D01*
X68405238Y-150471238D01*
X68310000Y-150566476D01*
X68214761Y-150614095D01*
X165786190Y-150328380D02*
X166452857Y-151328380D01*
X166452857Y-150328380D02*
X165786190Y-151328380D01*
X167357619Y-151328380D02*
X166786190Y-151328380D01*
X167071904Y-151328380D02*
X167071904Y-150328380D01*
X166976666Y-150471238D01*
X166881428Y-150566476D01*
X166786190Y-150614095D01*
X167786190Y-151233142D02*
X167833809Y-151280761D01*
X167786190Y-151328380D01*
X167738571Y-151280761D01*
X167786190Y-151233142D01*
X167786190Y-151328380D01*
X168214761Y-150423619D02*
X168262380Y-150376000D01*
X168357619Y-150328380D01*
X168595714Y-150328380D01*
X168690952Y-150376000D01*
X168738571Y-150423619D01*
X168786190Y-150518857D01*
X168786190Y-150614095D01*
X168738571Y-150756952D01*
X168167142Y-151328380D01*
X168786190Y-151328380D01*
X365786190Y-150328380D02*
X366452857Y-151328380D01*
X366452857Y-150328380D02*
X365786190Y-151328380D01*
X366786190Y-150423619D02*
X366833809Y-150376000D01*
X366929047Y-150328380D01*
X367167142Y-150328380D01*
X367262380Y-150376000D01*
X367310000Y-150423619D01*
X367357619Y-150518857D01*
X367357619Y-150614095D01*
X367310000Y-150756952D01*
X366738571Y-151328380D01*
X367357619Y-151328380D01*
X367786190Y-151233142D02*
X367833809Y-151280761D01*
X367786190Y-151328380D01*
X367738571Y-151280761D01*
X367786190Y-151233142D01*
X367786190Y-151328380D01*
X368214761Y-150423619D02*
X368262380Y-150376000D01*
X368357619Y-150328380D01*
X368595714Y-150328380D01*
X368690952Y-150376000D01*
X368738571Y-150423619D01*
X368786190Y-150518857D01*
X368786190Y-150614095D01*
X368738571Y-150756952D01*
X368167142Y-151328380D01*
X368786190Y-151328380D01*
X195666666Y-118745285D02*
X195666666Y-118269095D01*
X195952380Y-118840523D02*
X194952380Y-118507190D01*
X195952380Y-118173857D01*
X195952380Y-117316714D02*
X195952380Y-117888142D01*
X195952380Y-117602428D02*
X194952380Y-117602428D01*
X195095238Y-117697666D01*
X195190476Y-117792904D01*
X195238095Y-117888142D01*
X91500476Y-108413380D02*
X91500476Y-107413380D01*
X91833809Y-108127666D01*
X92167142Y-107413380D01*
X92167142Y-108413380D01*
X92548095Y-107413380D02*
X93167142Y-107413380D01*
X92833809Y-107794333D01*
X92976666Y-107794333D01*
X93071904Y-107841952D01*
X93119523Y-107889571D01*
X93167142Y-107984809D01*
X93167142Y-108222904D01*
X93119523Y-108318142D01*
X93071904Y-108365761D01*
X92976666Y-108413380D01*
X92690952Y-108413380D01*
X92595714Y-108365761D01*
X92548095Y-108318142D01*
X52810476Y-108413380D02*
X52810476Y-107413380D01*
X53143809Y-108127666D01*
X53477142Y-107413380D01*
X53477142Y-108413380D01*
X53858095Y-107413380D02*
X54477142Y-107413380D01*
X54143809Y-107794333D01*
X54286666Y-107794333D01*
X54381904Y-107841952D01*
X54429523Y-107889571D01*
X54477142Y-107984809D01*
X54477142Y-108222904D01*
X54429523Y-108318142D01*
X54381904Y-108365761D01*
X54286666Y-108413380D01*
X54000952Y-108413380D01*
X53905714Y-108365761D01*
X53858095Y-108318142D01*
X141500476Y-121452380D02*
X141500476Y-120452380D01*
X141833809Y-121166666D01*
X142167142Y-120452380D01*
X142167142Y-121452380D01*
X142548095Y-120452380D02*
X143167142Y-120452380D01*
X142833809Y-120833333D01*
X142976666Y-120833333D01*
X143071904Y-120880952D01*
X143119523Y-120928571D01*
X143167142Y-121023809D01*
X143167142Y-121261904D01*
X143119523Y-121357142D01*
X143071904Y-121404761D01*
X142976666Y-121452380D01*
X142690952Y-121452380D01*
X142595714Y-121404761D01*
X142548095Y-121357142D01*
X141500476Y-145923380D02*
X141500476Y-144923380D01*
X141833809Y-145637666D01*
X142167142Y-144923380D01*
X142167142Y-145923380D01*
X142548095Y-144923380D02*
X143167142Y-144923380D01*
X142833809Y-145304333D01*
X142976666Y-145304333D01*
X143071904Y-145351952D01*
X143119523Y-145399571D01*
X143167142Y-145494809D01*
X143167142Y-145732904D01*
X143119523Y-145828142D01*
X143071904Y-145875761D01*
X142976666Y-145923380D01*
X142690952Y-145923380D01*
X142595714Y-145875761D01*
X142548095Y-145828142D01*
X91500476Y-145923380D02*
X91500476Y-144923380D01*
X91833809Y-145637666D01*
X92167142Y-144923380D01*
X92167142Y-145923380D01*
X92548095Y-144923380D02*
X93167142Y-144923380D01*
X92833809Y-145304333D01*
X92976666Y-145304333D01*
X93071904Y-145351952D01*
X93119523Y-145399571D01*
X93167142Y-145494809D01*
X93167142Y-145732904D01*
X93119523Y-145828142D01*
X93071904Y-145875761D01*
X92976666Y-145923380D01*
X92690952Y-145923380D01*
X92595714Y-145875761D01*
X92548095Y-145828142D01*
X52810476Y-145923380D02*
X52810476Y-144923380D01*
X53143809Y-145637666D01*
X53477142Y-144923380D01*
X53477142Y-145923380D01*
X53858095Y-144923380D02*
X54477142Y-144923380D01*
X54143809Y-145304333D01*
X54286666Y-145304333D01*
X54381904Y-145351952D01*
X54429523Y-145399571D01*
X54477142Y-145494809D01*
X54477142Y-145732904D01*
X54429523Y-145828142D01*
X54381904Y-145875761D01*
X54286666Y-145923380D01*
X54000952Y-145923380D01*
X53905714Y-145875761D01*
X53858095Y-145828142D01*
X116548095Y-125618380D02*
X116548095Y-126427904D01*
X116595714Y-126523142D01*
X116643333Y-126570761D01*
X116738571Y-126618380D01*
X116929047Y-126618380D01*
X117024285Y-126570761D01*
X117071904Y-126523142D01*
X117119523Y-126427904D01*
X117119523Y-125618380D01*
X118119523Y-126618380D02*
X117548095Y-126618380D01*
X117833809Y-126618380D02*
X117833809Y-125618380D01*
X117738571Y-125761238D01*
X117643333Y-125856476D01*
X117548095Y-125904095D01*
X210622380Y-146833333D02*
X211336666Y-146833333D01*
X211479523Y-146880952D01*
X211574761Y-146976190D01*
X211622380Y-147119047D01*
X211622380Y-147214285D01*
X211622380Y-145833333D02*
X211622380Y-146404761D01*
X211622380Y-146119047D02*
X210622380Y-146119047D01*
X210765238Y-146214285D01*
X210860476Y-146309523D01*
X210908095Y-146404761D01*
X215751333Y-135383380D02*
X215418000Y-134907190D01*
X215179904Y-135383380D02*
X215179904Y-134383380D01*
X215560857Y-134383380D01*
X215656095Y-134431000D01*
X215703714Y-134478619D01*
X215751333Y-134573857D01*
X215751333Y-134716714D01*
X215703714Y-134811952D01*
X215656095Y-134859571D01*
X215560857Y-134907190D01*
X215179904Y-134907190D01*
X216703714Y-135383380D02*
X216132285Y-135383380D01*
X216418000Y-135383380D02*
X216418000Y-134383380D01*
X216322761Y-134526238D01*
X216227523Y-134621476D01*
X216132285Y-134669095D01*
X215751333Y-130303380D02*
X215418000Y-129827190D01*
X215179904Y-130303380D02*
X215179904Y-129303380D01*
X215560857Y-129303380D01*
X215656095Y-129351000D01*
X215703714Y-129398619D01*
X215751333Y-129493857D01*
X215751333Y-129636714D01*
X215703714Y-129731952D01*
X215656095Y-129779571D01*
X215560857Y-129827190D01*
X215179904Y-129827190D01*
X216132285Y-129398619D02*
X216179904Y-129351000D01*
X216275142Y-129303380D01*
X216513238Y-129303380D01*
X216608476Y-129351000D01*
X216656095Y-129398619D01*
X216703714Y-129493857D01*
X216703714Y-129589095D01*
X216656095Y-129731952D01*
X216084666Y-130303380D01*
X216703714Y-130303380D01*
X316548095Y-125618380D02*
X316548095Y-126427904D01*
X316595714Y-126523142D01*
X316643333Y-126570761D01*
X316738571Y-126618380D01*
X316929047Y-126618380D01*
X317024285Y-126570761D01*
X317071904Y-126523142D01*
X317119523Y-126427904D01*
X317119523Y-125618380D01*
X317548095Y-125713619D02*
X317595714Y-125666000D01*
X317690952Y-125618380D01*
X317929047Y-125618380D01*
X318024285Y-125666000D01*
X318071904Y-125713619D01*
X318119523Y-125808857D01*
X318119523Y-125904095D01*
X318071904Y-126046952D01*
X317500476Y-126618380D01*
X318119523Y-126618380D01*
X202467142Y-142880952D02*
X202514761Y-142928571D01*
X202562380Y-143071428D01*
X202562380Y-143166666D01*
X202514761Y-143309523D01*
X202419523Y-143404761D01*
X202324285Y-143452380D01*
X202133809Y-143500000D01*
X201990952Y-143500000D01*
X201800476Y-143452380D01*
X201705238Y-143404761D01*
X201610000Y-143309523D01*
X201562380Y-143166666D01*
X201562380Y-143071428D01*
X201610000Y-142928571D01*
X201657619Y-142880952D01*
X202562380Y-141928571D02*
X202562380Y-142500000D01*
X202562380Y-142214285D02*
X201562380Y-142214285D01*
X201705238Y-142309523D01*
X201800476Y-142404761D01*
X201848095Y-142500000D01*
X202467142Y-141500000D02*
X202514761Y-141452380D01*
X202562380Y-141500000D01*
X202514761Y-141547619D01*
X202467142Y-141500000D01*
X202562380Y-141500000D01*
X202562380Y-140500000D02*
X202562380Y-141071428D01*
X202562380Y-140785714D02*
X201562380Y-140785714D01*
X201705238Y-140880952D01*
X201800476Y-140976190D01*
X201848095Y-141071428D01*
X113404047Y-123303142D02*
X113356428Y-123350761D01*
X113213571Y-123398380D01*
X113118333Y-123398380D01*
X112975476Y-123350761D01*
X112880238Y-123255523D01*
X112832619Y-123160285D01*
X112785000Y-122969809D01*
X112785000Y-122826952D01*
X112832619Y-122636476D01*
X112880238Y-122541238D01*
X112975476Y-122446000D01*
X113118333Y-122398380D01*
X113213571Y-122398380D01*
X113356428Y-122446000D01*
X113404047Y-122493619D01*
X114356428Y-123398380D02*
X113785000Y-123398380D01*
X114070714Y-123398380D02*
X114070714Y-122398380D01*
X113975476Y-122541238D01*
X113880238Y-122636476D01*
X113785000Y-122684095D01*
X114785000Y-123303142D02*
X114832619Y-123350761D01*
X114785000Y-123398380D01*
X114737380Y-123350761D01*
X114785000Y-123303142D01*
X114785000Y-123398380D01*
X115165952Y-122398380D02*
X115785000Y-122398380D01*
X115451666Y-122779333D01*
X115594523Y-122779333D01*
X115689761Y-122826952D01*
X115737380Y-122874571D01*
X115785000Y-122969809D01*
X115785000Y-123207904D01*
X115737380Y-123303142D01*
X115689761Y-123350761D01*
X115594523Y-123398380D01*
X115308809Y-123398380D01*
X115213571Y-123350761D01*
X115165952Y-123303142D01*
X84097142Y-124531952D02*
X84144761Y-124579571D01*
X84192380Y-124722428D01*
X84192380Y-124817666D01*
X84144761Y-124960523D01*
X84049523Y-125055761D01*
X83954285Y-125103380D01*
X83763809Y-125151000D01*
X83620952Y-125151000D01*
X83430476Y-125103380D01*
X83335238Y-125055761D01*
X83240000Y-124960523D01*
X83192380Y-124817666D01*
X83192380Y-124722428D01*
X83240000Y-124579571D01*
X83287619Y-124531952D01*
X84192380Y-123579571D02*
X84192380Y-124151000D01*
X84192380Y-123865285D02*
X83192380Y-123865285D01*
X83335238Y-123960523D01*
X83430476Y-124055761D01*
X83478095Y-124151000D01*
X84097142Y-123151000D02*
X84144761Y-123103380D01*
X84192380Y-123151000D01*
X84144761Y-123198619D01*
X84097142Y-123151000D01*
X84192380Y-123151000D01*
X83192380Y-122246238D02*
X83192380Y-122436714D01*
X83240000Y-122531952D01*
X83287619Y-122579571D01*
X83430476Y-122674809D01*
X83620952Y-122722428D01*
X84001904Y-122722428D01*
X84097142Y-122674809D01*
X84144761Y-122627190D01*
X84192380Y-122531952D01*
X84192380Y-122341476D01*
X84144761Y-122246238D01*
X84097142Y-122198619D01*
X84001904Y-122151000D01*
X83763809Y-122151000D01*
X83668571Y-122198619D01*
X83620952Y-122246238D01*
X83573333Y-122341476D01*
X83573333Y-122531952D01*
X83620952Y-122627190D01*
X83668571Y-122674809D01*
X83763809Y-122722428D01*
X128597142Y-146031952D02*
X128644761Y-146079571D01*
X128692380Y-146222428D01*
X128692380Y-146317666D01*
X128644761Y-146460523D01*
X128549523Y-146555761D01*
X128454285Y-146603380D01*
X128263809Y-146651000D01*
X128120952Y-146651000D01*
X127930476Y-146603380D01*
X127835238Y-146555761D01*
X127740000Y-146460523D01*
X127692380Y-146317666D01*
X127692380Y-146222428D01*
X127740000Y-146079571D01*
X127787619Y-146031952D01*
X128692380Y-145079571D02*
X128692380Y-145651000D01*
X128692380Y-145365285D02*
X127692380Y-145365285D01*
X127835238Y-145460523D01*
X127930476Y-145555761D01*
X127978095Y-145651000D01*
X128597142Y-144651000D02*
X128644761Y-144603380D01*
X128692380Y-144651000D01*
X128644761Y-144698619D01*
X128597142Y-144651000D01*
X128692380Y-144651000D01*
X127787619Y-144222428D02*
X127740000Y-144174809D01*
X127692380Y-144079571D01*
X127692380Y-143841476D01*
X127740000Y-143746238D01*
X127787619Y-143698619D01*
X127882857Y-143651000D01*
X127978095Y-143651000D01*
X128120952Y-143698619D01*
X128692380Y-144270047D01*
X128692380Y-143651000D01*
X88097142Y-127306952D02*
X88144761Y-127354571D01*
X88192380Y-127497428D01*
X88192380Y-127592666D01*
X88144761Y-127735523D01*
X88049523Y-127830761D01*
X87954285Y-127878380D01*
X87763809Y-127926000D01*
X87620952Y-127926000D01*
X87430476Y-127878380D01*
X87335238Y-127830761D01*
X87240000Y-127735523D01*
X87192380Y-127592666D01*
X87192380Y-127497428D01*
X87240000Y-127354571D01*
X87287619Y-127306952D01*
X88192380Y-126354571D02*
X88192380Y-126926000D01*
X88192380Y-126640285D02*
X87192380Y-126640285D01*
X87335238Y-126735523D01*
X87430476Y-126830761D01*
X87478095Y-126926000D01*
X88097142Y-125926000D02*
X88144761Y-125878380D01*
X88192380Y-125926000D01*
X88144761Y-125973619D01*
X88097142Y-125926000D01*
X88192380Y-125926000D01*
X87192380Y-124973619D02*
X87192380Y-125449809D01*
X87668571Y-125497428D01*
X87620952Y-125449809D01*
X87573333Y-125354571D01*
X87573333Y-125116476D01*
X87620952Y-125021238D01*
X87668571Y-124973619D01*
X87763809Y-124926000D01*
X88001904Y-124926000D01*
X88097142Y-124973619D01*
X88144761Y-125021238D01*
X88192380Y-125116476D01*
X88192380Y-125354571D01*
X88144761Y-125449809D01*
X88097142Y-125497428D01*
X88097142Y-130531952D02*
X88144761Y-130579571D01*
X88192380Y-130722428D01*
X88192380Y-130817666D01*
X88144761Y-130960523D01*
X88049523Y-131055761D01*
X87954285Y-131103380D01*
X87763809Y-131151000D01*
X87620952Y-131151000D01*
X87430476Y-131103380D01*
X87335238Y-131055761D01*
X87240000Y-130960523D01*
X87192380Y-130817666D01*
X87192380Y-130722428D01*
X87240000Y-130579571D01*
X87287619Y-130531952D01*
X88192380Y-129579571D02*
X88192380Y-130151000D01*
X88192380Y-129865285D02*
X87192380Y-129865285D01*
X87335238Y-129960523D01*
X87430476Y-130055761D01*
X87478095Y-130151000D01*
X88097142Y-129151000D02*
X88144761Y-129103380D01*
X88192380Y-129151000D01*
X88144761Y-129198619D01*
X88097142Y-129151000D01*
X88192380Y-129151000D01*
X87525714Y-128246238D02*
X88192380Y-128246238D01*
X87144761Y-128484333D02*
X87859047Y-128722428D01*
X87859047Y-128103380D01*
X183667142Y-120508142D02*
X183714761Y-120555761D01*
X183762380Y-120698619D01*
X183762380Y-120793857D01*
X183714761Y-120936714D01*
X183619523Y-121031952D01*
X183524285Y-121079571D01*
X183333809Y-121127190D01*
X183190952Y-121127190D01*
X183000476Y-121079571D01*
X182905238Y-121031952D01*
X182810000Y-120936714D01*
X182762380Y-120793857D01*
X182762380Y-120698619D01*
X182810000Y-120555761D01*
X182857619Y-120508142D01*
X183762380Y-119555761D02*
X183762380Y-120127190D01*
X183762380Y-119841476D02*
X182762380Y-119841476D01*
X182905238Y-119936714D01*
X183000476Y-120031952D01*
X183048095Y-120127190D01*
X183667142Y-119127190D02*
X183714761Y-119079571D01*
X183762380Y-119127190D01*
X183714761Y-119174809D01*
X183667142Y-119127190D01*
X183762380Y-119127190D01*
X183762380Y-118127190D02*
X183762380Y-118698619D01*
X183762380Y-118412904D02*
X182762380Y-118412904D01*
X182905238Y-118508142D01*
X183000476Y-118603380D01*
X183048095Y-118698619D01*
X183762380Y-117174809D02*
X183762380Y-117746238D01*
X183762380Y-117460523D02*
X182762380Y-117460523D01*
X182905238Y-117555761D01*
X183000476Y-117651000D01*
X183048095Y-117746238D01*
X183667142Y-125008142D02*
X183714761Y-125055761D01*
X183762380Y-125198619D01*
X183762380Y-125293857D01*
X183714761Y-125436714D01*
X183619523Y-125531952D01*
X183524285Y-125579571D01*
X183333809Y-125627190D01*
X183190952Y-125627190D01*
X183000476Y-125579571D01*
X182905238Y-125531952D01*
X182810000Y-125436714D01*
X182762380Y-125293857D01*
X182762380Y-125198619D01*
X182810000Y-125055761D01*
X182857619Y-125008142D01*
X183762380Y-124055761D02*
X183762380Y-124627190D01*
X183762380Y-124341476D02*
X182762380Y-124341476D01*
X182905238Y-124436714D01*
X183000476Y-124531952D01*
X183048095Y-124627190D01*
X183667142Y-123627190D02*
X183714761Y-123579571D01*
X183762380Y-123627190D01*
X183714761Y-123674809D01*
X183667142Y-123627190D01*
X183762380Y-123627190D01*
X183762380Y-122627190D02*
X183762380Y-123198619D01*
X183762380Y-122912904D02*
X182762380Y-122912904D01*
X182905238Y-123008142D01*
X183000476Y-123103380D01*
X183048095Y-123198619D01*
X182762380Y-122008142D02*
X182762380Y-121912904D01*
X182810000Y-121817666D01*
X182857619Y-121770047D01*
X182952857Y-121722428D01*
X183143333Y-121674809D01*
X183381428Y-121674809D01*
X183571904Y-121722428D01*
X183667142Y-121770047D01*
X183714761Y-121817666D01*
X183762380Y-121912904D01*
X183762380Y-122008142D01*
X183714761Y-122103380D01*
X183667142Y-122151000D01*
X183571904Y-122198619D01*
X183381428Y-122246238D01*
X183143333Y-122246238D01*
X182952857Y-122198619D01*
X182857619Y-122151000D01*
X182810000Y-122103380D01*
X182762380Y-122008142D01*
X187667142Y-130581952D02*
X187714761Y-130629571D01*
X187762380Y-130772428D01*
X187762380Y-130867666D01*
X187714761Y-131010523D01*
X187619523Y-131105761D01*
X187524285Y-131153380D01*
X187333809Y-131201000D01*
X187190952Y-131201000D01*
X187000476Y-131153380D01*
X186905238Y-131105761D01*
X186810000Y-131010523D01*
X186762380Y-130867666D01*
X186762380Y-130772428D01*
X186810000Y-130629571D01*
X186857619Y-130581952D01*
X187762380Y-129629571D02*
X187762380Y-130201000D01*
X187762380Y-129915285D02*
X186762380Y-129915285D01*
X186905238Y-130010523D01*
X187000476Y-130105761D01*
X187048095Y-130201000D01*
X187667142Y-129201000D02*
X187714761Y-129153380D01*
X187762380Y-129201000D01*
X187714761Y-129248619D01*
X187667142Y-129201000D01*
X187762380Y-129201000D01*
X187762380Y-128677190D02*
X187762380Y-128486714D01*
X187714761Y-128391476D01*
X187667142Y-128343857D01*
X187524285Y-128248619D01*
X187333809Y-128201000D01*
X186952857Y-128201000D01*
X186857619Y-128248619D01*
X186810000Y-128296238D01*
X186762380Y-128391476D01*
X186762380Y-128581952D01*
X186810000Y-128677190D01*
X186857619Y-128724809D01*
X186952857Y-128772428D01*
X187190952Y-128772428D01*
X187286190Y-128724809D01*
X187333809Y-128677190D01*
X187381428Y-128581952D01*
X187381428Y-128391476D01*
X187333809Y-128296238D01*
X187286190Y-128248619D01*
X187190952Y-128201000D01*
X187667142Y-127031952D02*
X187714761Y-127079571D01*
X187762380Y-127222428D01*
X187762380Y-127317666D01*
X187714761Y-127460523D01*
X187619523Y-127555761D01*
X187524285Y-127603380D01*
X187333809Y-127651000D01*
X187190952Y-127651000D01*
X187000476Y-127603380D01*
X186905238Y-127555761D01*
X186810000Y-127460523D01*
X186762380Y-127317666D01*
X186762380Y-127222428D01*
X186810000Y-127079571D01*
X186857619Y-127031952D01*
X187762380Y-126079571D02*
X187762380Y-126651000D01*
X187762380Y-126365285D02*
X186762380Y-126365285D01*
X186905238Y-126460523D01*
X187000476Y-126555761D01*
X187048095Y-126651000D01*
X187667142Y-125651000D02*
X187714761Y-125603380D01*
X187762380Y-125651000D01*
X187714761Y-125698619D01*
X187667142Y-125651000D01*
X187762380Y-125651000D01*
X187190952Y-125031952D02*
X187143333Y-125127190D01*
X187095714Y-125174809D01*
X187000476Y-125222428D01*
X186952857Y-125222428D01*
X186857619Y-125174809D01*
X186810000Y-125127190D01*
X186762380Y-125031952D01*
X186762380Y-124841476D01*
X186810000Y-124746238D01*
X186857619Y-124698619D01*
X186952857Y-124651000D01*
X187000476Y-124651000D01*
X187095714Y-124698619D01*
X187143333Y-124746238D01*
X187190952Y-124841476D01*
X187190952Y-125031952D01*
X187238571Y-125127190D01*
X187286190Y-125174809D01*
X187381428Y-125222428D01*
X187571904Y-125222428D01*
X187667142Y-125174809D01*
X187714761Y-125127190D01*
X187762380Y-125031952D01*
X187762380Y-124841476D01*
X187714761Y-124746238D01*
X187667142Y-124698619D01*
X187571904Y-124651000D01*
X187381428Y-124651000D01*
X187286190Y-124698619D01*
X187238571Y-124746238D01*
X187190952Y-124841476D01*
X84097142Y-121306952D02*
X84144761Y-121354571D01*
X84192380Y-121497428D01*
X84192380Y-121592666D01*
X84144761Y-121735523D01*
X84049523Y-121830761D01*
X83954285Y-121878380D01*
X83763809Y-121926000D01*
X83620952Y-121926000D01*
X83430476Y-121878380D01*
X83335238Y-121830761D01*
X83240000Y-121735523D01*
X83192380Y-121592666D01*
X83192380Y-121497428D01*
X83240000Y-121354571D01*
X83287619Y-121306952D01*
X84192380Y-120354571D02*
X84192380Y-120926000D01*
X84192380Y-120640285D02*
X83192380Y-120640285D01*
X83335238Y-120735523D01*
X83430476Y-120830761D01*
X83478095Y-120926000D01*
X84097142Y-119926000D02*
X84144761Y-119878380D01*
X84192380Y-119926000D01*
X84144761Y-119973619D01*
X84097142Y-119926000D01*
X84192380Y-119926000D01*
X83192380Y-119545047D02*
X83192380Y-118878380D01*
X84192380Y-119306952D01*
X354167142Y-120508142D02*
X354214761Y-120555761D01*
X354262380Y-120698619D01*
X354262380Y-120793857D01*
X354214761Y-120936714D01*
X354119523Y-121031952D01*
X354024285Y-121079571D01*
X353833809Y-121127190D01*
X353690952Y-121127190D01*
X353500476Y-121079571D01*
X353405238Y-121031952D01*
X353310000Y-120936714D01*
X353262380Y-120793857D01*
X353262380Y-120698619D01*
X353310000Y-120555761D01*
X353357619Y-120508142D01*
X353357619Y-120127190D02*
X353310000Y-120079571D01*
X353262380Y-119984333D01*
X353262380Y-119746238D01*
X353310000Y-119651000D01*
X353357619Y-119603380D01*
X353452857Y-119555761D01*
X353548095Y-119555761D01*
X353690952Y-119603380D01*
X354262380Y-120174809D01*
X354262380Y-119555761D01*
X354167142Y-119127190D02*
X354214761Y-119079571D01*
X354262380Y-119127190D01*
X354214761Y-119174809D01*
X354167142Y-119127190D01*
X354262380Y-119127190D01*
X354262380Y-118127190D02*
X354262380Y-118698619D01*
X354262380Y-118412904D02*
X353262380Y-118412904D01*
X353405238Y-118508142D01*
X353500476Y-118603380D01*
X353548095Y-118698619D01*
X354262380Y-117174809D02*
X354262380Y-117746238D01*
X354262380Y-117460523D02*
X353262380Y-117460523D01*
X353405238Y-117555761D01*
X353500476Y-117651000D01*
X353548095Y-117746238D01*
X226467142Y-142880952D02*
X226514761Y-142928571D01*
X226562380Y-143071428D01*
X226562380Y-143166666D01*
X226514761Y-143309523D01*
X226419523Y-143404761D01*
X226324285Y-143452380D01*
X226133809Y-143500000D01*
X225990952Y-143500000D01*
X225800476Y-143452380D01*
X225705238Y-143404761D01*
X225610000Y-143309523D01*
X225562380Y-143166666D01*
X225562380Y-143071428D01*
X225610000Y-142928571D01*
X225657619Y-142880952D01*
X225657619Y-142500000D02*
X225610000Y-142452380D01*
X225562380Y-142357142D01*
X225562380Y-142119047D01*
X225610000Y-142023809D01*
X225657619Y-141976190D01*
X225752857Y-141928571D01*
X225848095Y-141928571D01*
X225990952Y-141976190D01*
X226562380Y-142547619D01*
X226562380Y-141928571D01*
X226467142Y-141500000D02*
X226514761Y-141452380D01*
X226562380Y-141500000D01*
X226514761Y-141547619D01*
X226467142Y-141500000D01*
X226562380Y-141500000D01*
X226562380Y-140500000D02*
X226562380Y-141071428D01*
X226562380Y-140785714D02*
X225562380Y-140785714D01*
X225705238Y-140880952D01*
X225800476Y-140976190D01*
X225848095Y-141071428D01*
X350167142Y-127306952D02*
X350214761Y-127354571D01*
X350262380Y-127497428D01*
X350262380Y-127592666D01*
X350214761Y-127735523D01*
X350119523Y-127830761D01*
X350024285Y-127878380D01*
X349833809Y-127926000D01*
X349690952Y-127926000D01*
X349500476Y-127878380D01*
X349405238Y-127830761D01*
X349310000Y-127735523D01*
X349262380Y-127592666D01*
X349262380Y-127497428D01*
X349310000Y-127354571D01*
X349357619Y-127306952D01*
X349357619Y-126926000D02*
X349310000Y-126878380D01*
X349262380Y-126783142D01*
X349262380Y-126545047D01*
X349310000Y-126449809D01*
X349357619Y-126402190D01*
X349452857Y-126354571D01*
X349548095Y-126354571D01*
X349690952Y-126402190D01*
X350262380Y-126973619D01*
X350262380Y-126354571D01*
X350167142Y-125926000D02*
X350214761Y-125878380D01*
X350262380Y-125926000D01*
X350214761Y-125973619D01*
X350167142Y-125926000D01*
X350262380Y-125926000D01*
X350262380Y-125402190D02*
X350262380Y-125211714D01*
X350214761Y-125116476D01*
X350167142Y-125068857D01*
X350024285Y-124973619D01*
X349833809Y-124926000D01*
X349452857Y-124926000D01*
X349357619Y-124973619D01*
X349310000Y-125021238D01*
X349262380Y-125116476D01*
X349262380Y-125306952D01*
X349310000Y-125402190D01*
X349357619Y-125449809D01*
X349452857Y-125497428D01*
X349690952Y-125497428D01*
X349786190Y-125449809D01*
X349833809Y-125402190D01*
X349881428Y-125306952D01*
X349881428Y-125116476D01*
X349833809Y-125021238D01*
X349786190Y-124973619D01*
X349690952Y-124926000D01*
X281667142Y-118531952D02*
X281714761Y-118579571D01*
X281762380Y-118722428D01*
X281762380Y-118817666D01*
X281714761Y-118960523D01*
X281619523Y-119055761D01*
X281524285Y-119103380D01*
X281333809Y-119151000D01*
X281190952Y-119151000D01*
X281000476Y-119103380D01*
X280905238Y-119055761D01*
X280810000Y-118960523D01*
X280762380Y-118817666D01*
X280762380Y-118722428D01*
X280810000Y-118579571D01*
X280857619Y-118531952D01*
X280857619Y-118151000D02*
X280810000Y-118103380D01*
X280762380Y-118008142D01*
X280762380Y-117770047D01*
X280810000Y-117674809D01*
X280857619Y-117627190D01*
X280952857Y-117579571D01*
X281048095Y-117579571D01*
X281190952Y-117627190D01*
X281762380Y-118198619D01*
X281762380Y-117579571D01*
X281667142Y-117151000D02*
X281714761Y-117103380D01*
X281762380Y-117151000D01*
X281714761Y-117198619D01*
X281667142Y-117151000D01*
X281762380Y-117151000D01*
X280762380Y-116770047D02*
X280762380Y-116103380D01*
X281762380Y-116531952D01*
X281767142Y-122031952D02*
X281814761Y-122079571D01*
X281862380Y-122222428D01*
X281862380Y-122317666D01*
X281814761Y-122460523D01*
X281719523Y-122555761D01*
X281624285Y-122603380D01*
X281433809Y-122651000D01*
X281290952Y-122651000D01*
X281100476Y-122603380D01*
X281005238Y-122555761D01*
X280910000Y-122460523D01*
X280862380Y-122317666D01*
X280862380Y-122222428D01*
X280910000Y-122079571D01*
X280957619Y-122031952D01*
X280957619Y-121651000D02*
X280910000Y-121603380D01*
X280862380Y-121508142D01*
X280862380Y-121270047D01*
X280910000Y-121174809D01*
X280957619Y-121127190D01*
X281052857Y-121079571D01*
X281148095Y-121079571D01*
X281290952Y-121127190D01*
X281862380Y-121698619D01*
X281862380Y-121079571D01*
X281767142Y-120651000D02*
X281814761Y-120603380D01*
X281862380Y-120651000D01*
X281814761Y-120698619D01*
X281767142Y-120651000D01*
X281862380Y-120651000D01*
X280862380Y-119746238D02*
X280862380Y-119936714D01*
X280910000Y-120031952D01*
X280957619Y-120079571D01*
X281100476Y-120174809D01*
X281290952Y-120222428D01*
X281671904Y-120222428D01*
X281767142Y-120174809D01*
X281814761Y-120127190D01*
X281862380Y-120031952D01*
X281862380Y-119841476D01*
X281814761Y-119746238D01*
X281767142Y-119698619D01*
X281671904Y-119651000D01*
X281433809Y-119651000D01*
X281338571Y-119698619D01*
X281290952Y-119746238D01*
X281243333Y-119841476D01*
X281243333Y-120031952D01*
X281290952Y-120127190D01*
X281338571Y-120174809D01*
X281433809Y-120222428D01*
X350167142Y-130781952D02*
X350214761Y-130829571D01*
X350262380Y-130972428D01*
X350262380Y-131067666D01*
X350214761Y-131210523D01*
X350119523Y-131305761D01*
X350024285Y-131353380D01*
X349833809Y-131401000D01*
X349690952Y-131401000D01*
X349500476Y-131353380D01*
X349405238Y-131305761D01*
X349310000Y-131210523D01*
X349262380Y-131067666D01*
X349262380Y-130972428D01*
X349310000Y-130829571D01*
X349357619Y-130781952D01*
X349357619Y-130401000D02*
X349310000Y-130353380D01*
X349262380Y-130258142D01*
X349262380Y-130020047D01*
X349310000Y-129924809D01*
X349357619Y-129877190D01*
X349452857Y-129829571D01*
X349548095Y-129829571D01*
X349690952Y-129877190D01*
X350262380Y-130448619D01*
X350262380Y-129829571D01*
X350167142Y-129401000D02*
X350214761Y-129353380D01*
X350262380Y-129401000D01*
X350214761Y-129448619D01*
X350167142Y-129401000D01*
X350262380Y-129401000D01*
X349690952Y-128781952D02*
X349643333Y-128877190D01*
X349595714Y-128924809D01*
X349500476Y-128972428D01*
X349452857Y-128972428D01*
X349357619Y-128924809D01*
X349310000Y-128877190D01*
X349262380Y-128781952D01*
X349262380Y-128591476D01*
X349310000Y-128496238D01*
X349357619Y-128448619D01*
X349452857Y-128401000D01*
X349500476Y-128401000D01*
X349595714Y-128448619D01*
X349643333Y-128496238D01*
X349690952Y-128591476D01*
X349690952Y-128781952D01*
X349738571Y-128877190D01*
X349786190Y-128924809D01*
X349881428Y-128972428D01*
X350071904Y-128972428D01*
X350167142Y-128924809D01*
X350214761Y-128877190D01*
X350262380Y-128781952D01*
X350262380Y-128591476D01*
X350214761Y-128496238D01*
X350167142Y-128448619D01*
X350071904Y-128401000D01*
X349881428Y-128401000D01*
X349786190Y-128448619D01*
X349738571Y-128496238D01*
X349690952Y-128591476D01*
X315429047Y-149408142D02*
X315381428Y-149455761D01*
X315238571Y-149503380D01*
X315143333Y-149503380D01*
X315000476Y-149455761D01*
X314905238Y-149360523D01*
X314857619Y-149265285D01*
X314810000Y-149074809D01*
X314810000Y-148931952D01*
X314857619Y-148741476D01*
X314905238Y-148646238D01*
X315000476Y-148551000D01*
X315143333Y-148503380D01*
X315238571Y-148503380D01*
X315381428Y-148551000D01*
X315429047Y-148598619D01*
X315810000Y-148598619D02*
X315857619Y-148551000D01*
X315952857Y-148503380D01*
X316190952Y-148503380D01*
X316286190Y-148551000D01*
X316333809Y-148598619D01*
X316381428Y-148693857D01*
X316381428Y-148789095D01*
X316333809Y-148931952D01*
X315762380Y-149503380D01*
X316381428Y-149503380D01*
X316810000Y-149408142D02*
X316857619Y-149455761D01*
X316810000Y-149503380D01*
X316762380Y-149455761D01*
X316810000Y-149408142D01*
X316810000Y-149503380D01*
X317238571Y-148598619D02*
X317286190Y-148551000D01*
X317381428Y-148503380D01*
X317619523Y-148503380D01*
X317714761Y-148551000D01*
X317762380Y-148598619D01*
X317810000Y-148693857D01*
X317810000Y-148789095D01*
X317762380Y-148931952D01*
X317190952Y-149503380D01*
X317810000Y-149503380D01*
X308654047Y-125938142D02*
X308606428Y-125985761D01*
X308463571Y-126033380D01*
X308368333Y-126033380D01*
X308225476Y-125985761D01*
X308130238Y-125890523D01*
X308082619Y-125795285D01*
X308035000Y-125604809D01*
X308035000Y-125461952D01*
X308082619Y-125271476D01*
X308130238Y-125176238D01*
X308225476Y-125081000D01*
X308368333Y-125033380D01*
X308463571Y-125033380D01*
X308606428Y-125081000D01*
X308654047Y-125128619D01*
X309035000Y-125128619D02*
X309082619Y-125081000D01*
X309177857Y-125033380D01*
X309415952Y-125033380D01*
X309511190Y-125081000D01*
X309558809Y-125128619D01*
X309606428Y-125223857D01*
X309606428Y-125319095D01*
X309558809Y-125461952D01*
X308987380Y-126033380D01*
X309606428Y-126033380D01*
X310035000Y-125938142D02*
X310082619Y-125985761D01*
X310035000Y-126033380D01*
X309987380Y-125985761D01*
X310035000Y-125938142D01*
X310035000Y-126033380D01*
X310415952Y-125033380D02*
X311035000Y-125033380D01*
X310701666Y-125414333D01*
X310844523Y-125414333D01*
X310939761Y-125461952D01*
X310987380Y-125509571D01*
X311035000Y-125604809D01*
X311035000Y-125842904D01*
X310987380Y-125938142D01*
X310939761Y-125985761D01*
X310844523Y-126033380D01*
X310558809Y-126033380D01*
X310463571Y-125985761D01*
X310415952Y-125938142D01*
X287167142Y-125531952D02*
X287214761Y-125579571D01*
X287262380Y-125722428D01*
X287262380Y-125817666D01*
X287214761Y-125960523D01*
X287119523Y-126055761D01*
X287024285Y-126103380D01*
X286833809Y-126151000D01*
X286690952Y-126151000D01*
X286500476Y-126103380D01*
X286405238Y-126055761D01*
X286310000Y-125960523D01*
X286262380Y-125817666D01*
X286262380Y-125722428D01*
X286310000Y-125579571D01*
X286357619Y-125531952D01*
X286357619Y-125151000D02*
X286310000Y-125103380D01*
X286262380Y-125008142D01*
X286262380Y-124770047D01*
X286310000Y-124674809D01*
X286357619Y-124627190D01*
X286452857Y-124579571D01*
X286548095Y-124579571D01*
X286690952Y-124627190D01*
X287262380Y-125198619D01*
X287262380Y-124579571D01*
X287167142Y-124151000D02*
X287214761Y-124103380D01*
X287262380Y-124151000D01*
X287214761Y-124198619D01*
X287167142Y-124151000D01*
X287262380Y-124151000D01*
X286595714Y-123246238D02*
X287262380Y-123246238D01*
X286214761Y-123484333D02*
X286929047Y-123722428D01*
X286929047Y-123103380D01*
X354167142Y-126008142D02*
X354214761Y-126055761D01*
X354262380Y-126198619D01*
X354262380Y-126293857D01*
X354214761Y-126436714D01*
X354119523Y-126531952D01*
X354024285Y-126579571D01*
X353833809Y-126627190D01*
X353690952Y-126627190D01*
X353500476Y-126579571D01*
X353405238Y-126531952D01*
X353310000Y-126436714D01*
X353262380Y-126293857D01*
X353262380Y-126198619D01*
X353310000Y-126055761D01*
X353357619Y-126008142D01*
X353357619Y-125627190D02*
X353310000Y-125579571D01*
X353262380Y-125484333D01*
X353262380Y-125246238D01*
X353310000Y-125151000D01*
X353357619Y-125103380D01*
X353452857Y-125055761D01*
X353548095Y-125055761D01*
X353690952Y-125103380D01*
X354262380Y-125674809D01*
X354262380Y-125055761D01*
X354167142Y-124627190D02*
X354214761Y-124579571D01*
X354262380Y-124627190D01*
X354214761Y-124674809D01*
X354167142Y-124627190D01*
X354262380Y-124627190D01*
X354262380Y-123627190D02*
X354262380Y-124198619D01*
X354262380Y-123912904D02*
X353262380Y-123912904D01*
X353405238Y-124008142D01*
X353500476Y-124103380D01*
X353548095Y-124198619D01*
X353262380Y-123008142D02*
X353262380Y-122912904D01*
X353310000Y-122817666D01*
X353357619Y-122770047D01*
X353452857Y-122722428D01*
X353643333Y-122674809D01*
X353881428Y-122674809D01*
X354071904Y-122722428D01*
X354167142Y-122770047D01*
X354214761Y-122817666D01*
X354262380Y-122912904D01*
X354262380Y-123008142D01*
X354214761Y-123103380D01*
X354167142Y-123151000D01*
X354071904Y-123198619D01*
X353881428Y-123246238D01*
X353643333Y-123246238D01*
X353452857Y-123198619D01*
X353357619Y-123151000D01*
X353310000Y-123103380D01*
X353262380Y-123008142D01*
X287167142Y-129256952D02*
X287214761Y-129304571D01*
X287262380Y-129447428D01*
X287262380Y-129542666D01*
X287214761Y-129685523D01*
X287119523Y-129780761D01*
X287024285Y-129828380D01*
X286833809Y-129876000D01*
X286690952Y-129876000D01*
X286500476Y-129828380D01*
X286405238Y-129780761D01*
X286310000Y-129685523D01*
X286262380Y-129542666D01*
X286262380Y-129447428D01*
X286310000Y-129304571D01*
X286357619Y-129256952D01*
X286357619Y-128876000D02*
X286310000Y-128828380D01*
X286262380Y-128733142D01*
X286262380Y-128495047D01*
X286310000Y-128399809D01*
X286357619Y-128352190D01*
X286452857Y-128304571D01*
X286548095Y-128304571D01*
X286690952Y-128352190D01*
X287262380Y-128923619D01*
X287262380Y-128304571D01*
X287167142Y-127876000D02*
X287214761Y-127828380D01*
X287262380Y-127876000D01*
X287214761Y-127923619D01*
X287167142Y-127876000D01*
X287262380Y-127876000D01*
X286262380Y-126923619D02*
X286262380Y-127399809D01*
X286738571Y-127447428D01*
X286690952Y-127399809D01*
X286643333Y-127304571D01*
X286643333Y-127066476D01*
X286690952Y-126971238D01*
X286738571Y-126923619D01*
X286833809Y-126876000D01*
X287071904Y-126876000D01*
X287167142Y-126923619D01*
X287214761Y-126971238D01*
X287262380Y-127066476D01*
X287262380Y-127304571D01*
X287214761Y-127399809D01*
X287167142Y-127447428D01*
X91192380Y-128896952D02*
X90716190Y-129230285D01*
X91192380Y-129468380D02*
X90192380Y-129468380D01*
X90192380Y-129087428D01*
X90240000Y-128992190D01*
X90287619Y-128944571D01*
X90382857Y-128896952D01*
X90525714Y-128896952D01*
X90620952Y-128944571D01*
X90668571Y-128992190D01*
X90716190Y-129087428D01*
X90716190Y-129468380D01*
X91192380Y-127944571D02*
X91192380Y-128516000D01*
X91192380Y-128230285D02*
X90192380Y-128230285D01*
X90335238Y-128325523D01*
X90430476Y-128420761D01*
X90478095Y-128516000D01*
X91097142Y-127516000D02*
X91144761Y-127468380D01*
X91192380Y-127516000D01*
X91144761Y-127563619D01*
X91097142Y-127516000D01*
X91192380Y-127516000D01*
X90287619Y-127087428D02*
X90240000Y-127039809D01*
X90192380Y-126944571D01*
X90192380Y-126706476D01*
X90240000Y-126611238D01*
X90287619Y-126563619D01*
X90382857Y-126516000D01*
X90478095Y-126516000D01*
X90620952Y-126563619D01*
X91192380Y-127135047D01*
X91192380Y-126516000D01*
X128762380Y-127931952D02*
X128286190Y-128265285D01*
X128762380Y-128503380D02*
X127762380Y-128503380D01*
X127762380Y-128122428D01*
X127810000Y-128027190D01*
X127857619Y-127979571D01*
X127952857Y-127931952D01*
X128095714Y-127931952D01*
X128190952Y-127979571D01*
X128238571Y-128027190D01*
X128286190Y-128122428D01*
X128286190Y-128503380D01*
X128762380Y-126979571D02*
X128762380Y-127551000D01*
X128762380Y-127265285D02*
X127762380Y-127265285D01*
X127905238Y-127360523D01*
X128000476Y-127455761D01*
X128048095Y-127551000D01*
X128667142Y-126551000D02*
X128714761Y-126503380D01*
X128762380Y-126551000D01*
X128714761Y-126598619D01*
X128667142Y-126551000D01*
X128762380Y-126551000D01*
X128762380Y-125551000D02*
X128762380Y-126122428D01*
X128762380Y-125836714D02*
X127762380Y-125836714D01*
X127905238Y-125931952D01*
X128000476Y-126027190D01*
X128048095Y-126122428D01*
X87192380Y-122856952D02*
X86716190Y-123190285D01*
X87192380Y-123428380D02*
X86192380Y-123428380D01*
X86192380Y-123047428D01*
X86240000Y-122952190D01*
X86287619Y-122904571D01*
X86382857Y-122856952D01*
X86525714Y-122856952D01*
X86620952Y-122904571D01*
X86668571Y-122952190D01*
X86716190Y-123047428D01*
X86716190Y-123428380D01*
X87192380Y-121904571D02*
X87192380Y-122476000D01*
X87192380Y-122190285D02*
X86192380Y-122190285D01*
X86335238Y-122285523D01*
X86430476Y-122380761D01*
X86478095Y-122476000D01*
X87097142Y-121476000D02*
X87144761Y-121428380D01*
X87192380Y-121476000D01*
X87144761Y-121523619D01*
X87097142Y-121476000D01*
X87192380Y-121476000D01*
X86192380Y-121095047D02*
X86192380Y-120476000D01*
X86573333Y-120809333D01*
X86573333Y-120666476D01*
X86620952Y-120571238D01*
X86668571Y-120523619D01*
X86763809Y-120476000D01*
X87001904Y-120476000D01*
X87097142Y-120523619D01*
X87144761Y-120571238D01*
X87192380Y-120666476D01*
X87192380Y-120952190D01*
X87144761Y-121047428D01*
X87097142Y-121095047D01*
X190762380Y-128856952D02*
X190286190Y-129190285D01*
X190762380Y-129428380D02*
X189762380Y-129428380D01*
X189762380Y-129047428D01*
X189810000Y-128952190D01*
X189857619Y-128904571D01*
X189952857Y-128856952D01*
X190095714Y-128856952D01*
X190190952Y-128904571D01*
X190238571Y-128952190D01*
X190286190Y-129047428D01*
X190286190Y-129428380D01*
X190762380Y-127904571D02*
X190762380Y-128476000D01*
X190762380Y-128190285D02*
X189762380Y-128190285D01*
X189905238Y-128285523D01*
X190000476Y-128380761D01*
X190048095Y-128476000D01*
X190667142Y-127476000D02*
X190714761Y-127428380D01*
X190762380Y-127476000D01*
X190714761Y-127523619D01*
X190667142Y-127476000D01*
X190762380Y-127476000D01*
X190095714Y-126571238D02*
X190762380Y-126571238D01*
X189714761Y-126809333D02*
X190429047Y-127047428D01*
X190429047Y-126428380D01*
X186692380Y-122206952D02*
X186216190Y-122540285D01*
X186692380Y-122778380D02*
X185692380Y-122778380D01*
X185692380Y-122397428D01*
X185740000Y-122302190D01*
X185787619Y-122254571D01*
X185882857Y-122206952D01*
X186025714Y-122206952D01*
X186120952Y-122254571D01*
X186168571Y-122302190D01*
X186216190Y-122397428D01*
X186216190Y-122778380D01*
X186692380Y-121254571D02*
X186692380Y-121826000D01*
X186692380Y-121540285D02*
X185692380Y-121540285D01*
X185835238Y-121635523D01*
X185930476Y-121730761D01*
X185978095Y-121826000D01*
X186597142Y-120826000D02*
X186644761Y-120778380D01*
X186692380Y-120826000D01*
X186644761Y-120873619D01*
X186597142Y-120826000D01*
X186692380Y-120826000D01*
X185692380Y-119873619D02*
X185692380Y-120349809D01*
X186168571Y-120397428D01*
X186120952Y-120349809D01*
X186073333Y-120254571D01*
X186073333Y-120016476D01*
X186120952Y-119921238D01*
X186168571Y-119873619D01*
X186263809Y-119826000D01*
X186501904Y-119826000D01*
X186597142Y-119873619D01*
X186644761Y-119921238D01*
X186692380Y-120016476D01*
X186692380Y-120254571D01*
X186644761Y-120349809D01*
X186597142Y-120397428D01*
X326832380Y-128531952D02*
X326356190Y-128865285D01*
X326832380Y-129103380D02*
X325832380Y-129103380D01*
X325832380Y-128722428D01*
X325880000Y-128627190D01*
X325927619Y-128579571D01*
X326022857Y-128531952D01*
X326165714Y-128531952D01*
X326260952Y-128579571D01*
X326308571Y-128627190D01*
X326356190Y-128722428D01*
X326356190Y-129103380D01*
X325927619Y-128151000D02*
X325880000Y-128103380D01*
X325832380Y-128008142D01*
X325832380Y-127770047D01*
X325880000Y-127674809D01*
X325927619Y-127627190D01*
X326022857Y-127579571D01*
X326118095Y-127579571D01*
X326260952Y-127627190D01*
X326832380Y-128198619D01*
X326832380Y-127579571D01*
X326737142Y-127151000D02*
X326784761Y-127103380D01*
X326832380Y-127151000D01*
X326784761Y-127198619D01*
X326737142Y-127151000D01*
X326832380Y-127151000D01*
X326832380Y-126151000D02*
X326832380Y-126722428D01*
X326832380Y-126436714D02*
X325832380Y-126436714D01*
X325975238Y-126531952D01*
X326070476Y-126627190D01*
X326118095Y-126722428D01*
X351192380Y-123031952D02*
X350716190Y-123365285D01*
X351192380Y-123603380D02*
X350192380Y-123603380D01*
X350192380Y-123222428D01*
X350240000Y-123127190D01*
X350287619Y-123079571D01*
X350382857Y-123031952D01*
X350525714Y-123031952D01*
X350620952Y-123079571D01*
X350668571Y-123127190D01*
X350716190Y-123222428D01*
X350716190Y-123603380D01*
X350287619Y-122651000D02*
X350240000Y-122603380D01*
X350192380Y-122508142D01*
X350192380Y-122270047D01*
X350240000Y-122174809D01*
X350287619Y-122127190D01*
X350382857Y-122079571D01*
X350478095Y-122079571D01*
X350620952Y-122127190D01*
X351192380Y-122698619D01*
X351192380Y-122079571D01*
X351097142Y-121651000D02*
X351144761Y-121603380D01*
X351192380Y-121651000D01*
X351144761Y-121698619D01*
X351097142Y-121651000D01*
X351192380Y-121651000D01*
X350192380Y-120698619D02*
X350192380Y-121174809D01*
X350668571Y-121222428D01*
X350620952Y-121174809D01*
X350573333Y-121079571D01*
X350573333Y-120841476D01*
X350620952Y-120746238D01*
X350668571Y-120698619D01*
X350763809Y-120651000D01*
X351001904Y-120651000D01*
X351097142Y-120698619D01*
X351144761Y-120746238D01*
X351192380Y-120841476D01*
X351192380Y-121079571D01*
X351144761Y-121174809D01*
X351097142Y-121222428D01*
X290262380Y-129531952D02*
X289786190Y-129865285D01*
X290262380Y-130103380D02*
X289262380Y-130103380D01*
X289262380Y-129722428D01*
X289310000Y-129627190D01*
X289357619Y-129579571D01*
X289452857Y-129531952D01*
X289595714Y-129531952D01*
X289690952Y-129579571D01*
X289738571Y-129627190D01*
X289786190Y-129722428D01*
X289786190Y-130103380D01*
X289357619Y-129151000D02*
X289310000Y-129103380D01*
X289262380Y-129008142D01*
X289262380Y-128770047D01*
X289310000Y-128674809D01*
X289357619Y-128627190D01*
X289452857Y-128579571D01*
X289548095Y-128579571D01*
X289690952Y-128627190D01*
X290262380Y-129198619D01*
X290262380Y-128579571D01*
X290167142Y-128151000D02*
X290214761Y-128103380D01*
X290262380Y-128151000D01*
X290214761Y-128198619D01*
X290167142Y-128151000D01*
X290262380Y-128151000D01*
X289357619Y-127722428D02*
X289310000Y-127674809D01*
X289262380Y-127579571D01*
X289262380Y-127341476D01*
X289310000Y-127246238D01*
X289357619Y-127198619D01*
X289452857Y-127151000D01*
X289548095Y-127151000D01*
X289690952Y-127198619D01*
X290262380Y-127770047D01*
X290262380Y-127151000D01*
X347192380Y-128896952D02*
X346716190Y-129230285D01*
X347192380Y-129468380D02*
X346192380Y-129468380D01*
X346192380Y-129087428D01*
X346240000Y-128992190D01*
X346287619Y-128944571D01*
X346382857Y-128896952D01*
X346525714Y-128896952D01*
X346620952Y-128944571D01*
X346668571Y-128992190D01*
X346716190Y-129087428D01*
X346716190Y-129468380D01*
X346287619Y-128516000D02*
X346240000Y-128468380D01*
X346192380Y-128373142D01*
X346192380Y-128135047D01*
X346240000Y-128039809D01*
X346287619Y-127992190D01*
X346382857Y-127944571D01*
X346478095Y-127944571D01*
X346620952Y-127992190D01*
X347192380Y-128563619D01*
X347192380Y-127944571D01*
X347097142Y-127516000D02*
X347144761Y-127468380D01*
X347192380Y-127516000D01*
X347144761Y-127563619D01*
X347097142Y-127516000D01*
X347192380Y-127516000D01*
X346525714Y-126611238D02*
X347192380Y-126611238D01*
X346144761Y-126849333D02*
X346859047Y-127087428D01*
X346859047Y-126468380D01*
X284692380Y-120281952D02*
X284216190Y-120615285D01*
X284692380Y-120853380D02*
X283692380Y-120853380D01*
X283692380Y-120472428D01*
X283740000Y-120377190D01*
X283787619Y-120329571D01*
X283882857Y-120281952D01*
X284025714Y-120281952D01*
X284120952Y-120329571D01*
X284168571Y-120377190D01*
X284216190Y-120472428D01*
X284216190Y-120853380D01*
X283787619Y-119901000D02*
X283740000Y-119853380D01*
X283692380Y-119758142D01*
X283692380Y-119520047D01*
X283740000Y-119424809D01*
X283787619Y-119377190D01*
X283882857Y-119329571D01*
X283978095Y-119329571D01*
X284120952Y-119377190D01*
X284692380Y-119948619D01*
X284692380Y-119329571D01*
X284597142Y-118901000D02*
X284644761Y-118853380D01*
X284692380Y-118901000D01*
X284644761Y-118948619D01*
X284597142Y-118901000D01*
X284692380Y-118901000D01*
X283692380Y-118520047D02*
X283692380Y-117901000D01*
X284073333Y-118234333D01*
X284073333Y-118091476D01*
X284120952Y-117996238D01*
X284168571Y-117948619D01*
X284263809Y-117901000D01*
X284501904Y-117901000D01*
X284597142Y-117948619D01*
X284644761Y-117996238D01*
X284692380Y-118091476D01*
X284692380Y-118377190D01*
X284644761Y-118472428D01*
X284597142Y-118520047D01*
%LPC*%
D12*
X255880000Y-130810000D03*
X255880000Y-138430000D03*
X278740000Y-130810000D03*
X278740000Y-138430000D03*
X253340000Y-128260000D03*
X253340000Y-140980000D03*
X281280000Y-140980000D03*
X281280000Y-128260000D03*
D13*
X267310000Y-128620000D03*
D14*
X258820000Y-126130000D03*
X275800000Y-126130000D03*
X267310000Y-145370000D03*
D15*
X280810000Y-134620000D03*
X253810000Y-134620000D03*
D16*
X292310000Y-124000000D03*
X342810000Y-110961000D03*
X192810000Y-148651000D03*
X342810000Y-148651000D03*
X292810000Y-148651000D03*
X242810000Y-148651000D03*
X381000000Y-110961000D03*
X381000000Y-148471000D03*
D12*
X55880000Y-130810000D03*
X55880000Y-138430000D03*
X78740000Y-130810000D03*
X78740000Y-138430000D03*
X53340000Y-128260000D03*
X53340000Y-140980000D03*
X81280000Y-140980000D03*
X81280000Y-128260000D03*
D13*
X67310000Y-128620000D03*
D14*
X58820000Y-126130000D03*
X75800000Y-126130000D03*
X67310000Y-145370000D03*
D15*
X80810000Y-134620000D03*
X53810000Y-134620000D03*
D12*
X155880000Y-130810000D03*
X155880000Y-138430000D03*
X178740000Y-130810000D03*
X178740000Y-138430000D03*
X153340000Y-128260000D03*
X153340000Y-140980000D03*
X181280000Y-140980000D03*
X181280000Y-128260000D03*
D13*
X167310000Y-128620000D03*
D14*
X158820000Y-126130000D03*
X175800000Y-126130000D03*
X167310000Y-145370000D03*
D15*
X180810000Y-134620000D03*
X153810000Y-134620000D03*
D12*
X355880000Y-130810000D03*
X355880000Y-138430000D03*
X378740000Y-130810000D03*
X378740000Y-138430000D03*
X353340000Y-128260000D03*
X353340000Y-140980000D03*
X381280000Y-140980000D03*
X381280000Y-128260000D03*
D13*
X367310000Y-128620000D03*
D14*
X358820000Y-126130000D03*
X375800000Y-126130000D03*
X367310000Y-145370000D03*
D15*
X380810000Y-134620000D03*
X353810000Y-134620000D03*
D17*
X199310000Y-110411000D03*
X201850000Y-110411000D03*
X204390000Y-110411000D03*
X206930000Y-110411000D03*
X209470000Y-110411000D03*
X212010000Y-110411000D03*
X214550000Y-110411000D03*
X217090000Y-110411000D03*
X219630000Y-110411000D03*
X222170000Y-110411000D03*
X224710000Y-110411000D03*
X227250000Y-110411000D03*
X229790000Y-110411000D03*
X232330000Y-110411000D03*
X234870000Y-110411000D03*
X237410000Y-110411000D03*
X239950000Y-110411000D03*
X242490000Y-110411000D03*
X245030000Y-110411000D03*
X247570000Y-110411000D03*
X247570000Y-125651000D03*
X245030000Y-125651000D03*
X242490000Y-125651000D03*
X239950000Y-125651000D03*
X237410000Y-125651000D03*
X234870000Y-125651000D03*
X232330000Y-125651000D03*
X229790000Y-125651000D03*
X227250000Y-125651000D03*
X224710000Y-125651000D03*
X222170000Y-125651000D03*
X219630000Y-125651000D03*
X217090000Y-125651000D03*
X214550000Y-125651000D03*
X212010000Y-125651000D03*
X209470000Y-125651000D03*
X206930000Y-125651000D03*
X204390000Y-125651000D03*
X201850000Y-125651000D03*
D18*
X199310000Y-125651000D03*
D16*
X92310000Y-110961000D03*
X53620000Y-110961000D03*
X142310000Y-124000000D03*
X142310000Y-148471000D03*
X92310000Y-148471000D03*
X53620000Y-148471000D03*
D19*
X366040000Y-123620000D03*
X368580000Y-123620000D03*
X367310000Y-123620000D03*
X66040000Y-123620000D03*
X68580000Y-123620000D03*
X67310000Y-123620000D03*
X68580000Y-133620000D03*
X66040000Y-133620000D03*
X67310000Y-133620000D03*
X166040000Y-123620000D03*
X168580000Y-123620000D03*
X167310000Y-123620000D03*
X168580000Y-133620000D03*
X166040000Y-133620000D03*
X167310000Y-133620000D03*
X266040000Y-123620000D03*
X268580000Y-123620000D03*
X267310000Y-123620000D03*
X268580000Y-133620000D03*
X266040000Y-133620000D03*
X267310000Y-133620000D03*
X368580000Y-133620000D03*
X366040000Y-133620000D03*
X367310000Y-133620000D03*
D20*
X113310000Y-144526000D03*
X121310000Y-144526000D03*
X113310000Y-143256000D03*
X121310000Y-143256000D03*
X113310000Y-141986000D03*
X121310000Y-141986000D03*
X113310000Y-140716000D03*
X121310000Y-140716000D03*
X113310000Y-139446000D03*
X121310000Y-139446000D03*
X113310000Y-138176000D03*
X121310000Y-138176000D03*
X113310000Y-136906000D03*
X121310000Y-136906000D03*
X113310000Y-135636000D03*
X121310000Y-135636000D03*
X113310000Y-134366000D03*
X121310000Y-134366000D03*
X113310000Y-133096000D03*
X121310000Y-133096000D03*
X113310000Y-131826000D03*
X121310000Y-131826000D03*
X113310000Y-130556000D03*
X121310000Y-130556000D03*
X113310000Y-129286000D03*
X121310000Y-129286000D03*
X113310000Y-128016000D03*
X121310000Y-128016000D03*
D21*
X221120000Y-146500000D03*
X218580000Y-146500000D03*
X216040000Y-146500000D03*
D22*
X213500000Y-146500000D03*
D23*
X210838000Y-137301000D03*
D24*
X220998000Y-137301000D03*
X220998000Y-132221000D03*
D23*
X210838000Y-132221000D03*
D20*
X313310000Y-144526000D03*
X321310000Y-144526000D03*
X313310000Y-143256000D03*
X321310000Y-143256000D03*
X313310000Y-141986000D03*
X321310000Y-141986000D03*
X313310000Y-140716000D03*
X321310000Y-140716000D03*
X313310000Y-139446000D03*
X321310000Y-139446000D03*
X313310000Y-138176000D03*
X321310000Y-138176000D03*
X313310000Y-136906000D03*
X321310000Y-136906000D03*
X313310000Y-135636000D03*
X321310000Y-135636000D03*
X313310000Y-134366000D03*
X321310000Y-134366000D03*
X313310000Y-133096000D03*
X321310000Y-133096000D03*
X313310000Y-131826000D03*
X321310000Y-131826000D03*
X313310000Y-130556000D03*
X321310000Y-130556000D03*
X313310000Y-129286000D03*
X321310000Y-129286000D03*
X313310000Y-128016000D03*
X321310000Y-128016000D03*
G36*
G01*
X205860000Y-141500000D02*
X204760000Y-141500000D01*
G75*
G02*
X204510000Y-141250000I0J250000D01*
G01*
X204510000Y-139150000D01*
G75*
G02*
X204760000Y-138900000I250000J0D01*
G01*
X205860000Y-138900000D01*
G75*
G02*
X206110000Y-139150000I0J-250000D01*
G01*
X206110000Y-141250000D01*
G75*
G02*
X205860000Y-141500000I-250000J0D01*
G01*
G37*
G36*
G01*
X205860000Y-145100000D02*
X204760000Y-145100000D01*
G75*
G02*
X204510000Y-144850000I0J250000D01*
G01*
X204510000Y-142750000D01*
G75*
G02*
X204760000Y-142500000I250000J0D01*
G01*
X205860000Y-142500000D01*
G75*
G02*
X206110000Y-142750000I0J-250000D01*
G01*
X206110000Y-144850000D01*
G75*
G02*
X205860000Y-145100000I-250000J0D01*
G01*
G37*
G36*
G01*
X113960000Y-124601000D02*
X113960000Y-125101000D01*
G75*
G02*
X113735000Y-125326000I-225000J0D01*
G01*
X113285000Y-125326000D01*
G75*
G02*
X113060000Y-125101000I0J225000D01*
G01*
X113060000Y-124601000D01*
G75*
G02*
X113285000Y-124376000I225000J0D01*
G01*
X113735000Y-124376000D01*
G75*
G02*
X113960000Y-124601000I0J-225000D01*
G01*
G37*
G36*
G01*
X115510000Y-124601000D02*
X115510000Y-125101000D01*
G75*
G02*
X115285000Y-125326000I-225000J0D01*
G01*
X114835000Y-125326000D01*
G75*
G02*
X114610000Y-125101000I0J225000D01*
G01*
X114610000Y-124601000D01*
G75*
G02*
X114835000Y-124376000I225000J0D01*
G01*
X115285000Y-124376000D01*
G75*
G02*
X115510000Y-124601000I0J-225000D01*
G01*
G37*
G36*
G01*
X82060000Y-122426000D02*
X82560000Y-122426000D01*
G75*
G02*
X82785000Y-122651000I0J-225000D01*
G01*
X82785000Y-123101000D01*
G75*
G02*
X82560000Y-123326000I-225000J0D01*
G01*
X82060000Y-123326000D01*
G75*
G02*
X81835000Y-123101000I0J225000D01*
G01*
X81835000Y-122651000D01*
G75*
G02*
X82060000Y-122426000I225000J0D01*
G01*
G37*
G36*
G01*
X82060000Y-123976000D02*
X82560000Y-123976000D01*
G75*
G02*
X82785000Y-124201000I0J-225000D01*
G01*
X82785000Y-124651000D01*
G75*
G02*
X82560000Y-124876000I-225000J0D01*
G01*
X82060000Y-124876000D01*
G75*
G02*
X81835000Y-124651000I0J225000D01*
G01*
X81835000Y-124201000D01*
G75*
G02*
X82060000Y-123976000I225000J0D01*
G01*
G37*
G36*
G01*
X126560000Y-143926000D02*
X127060000Y-143926000D01*
G75*
G02*
X127285000Y-144151000I0J-225000D01*
G01*
X127285000Y-144601000D01*
G75*
G02*
X127060000Y-144826000I-225000J0D01*
G01*
X126560000Y-144826000D01*
G75*
G02*
X126335000Y-144601000I0J225000D01*
G01*
X126335000Y-144151000D01*
G75*
G02*
X126560000Y-143926000I225000J0D01*
G01*
G37*
G36*
G01*
X126560000Y-145476000D02*
X127060000Y-145476000D01*
G75*
G02*
X127285000Y-145701000I0J-225000D01*
G01*
X127285000Y-146151000D01*
G75*
G02*
X127060000Y-146376000I-225000J0D01*
G01*
X126560000Y-146376000D01*
G75*
G02*
X126335000Y-146151000I0J225000D01*
G01*
X126335000Y-145701000D01*
G75*
G02*
X126560000Y-145476000I225000J0D01*
G01*
G37*
G36*
G01*
X86060000Y-126751000D02*
X86560000Y-126751000D01*
G75*
G02*
X86785000Y-126976000I0J-225000D01*
G01*
X86785000Y-127426000D01*
G75*
G02*
X86560000Y-127651000I-225000J0D01*
G01*
X86060000Y-127651000D01*
G75*
G02*
X85835000Y-127426000I0J225000D01*
G01*
X85835000Y-126976000D01*
G75*
G02*
X86060000Y-126751000I225000J0D01*
G01*
G37*
G36*
G01*
X86060000Y-125201000D02*
X86560000Y-125201000D01*
G75*
G02*
X86785000Y-125426000I0J-225000D01*
G01*
X86785000Y-125876000D01*
G75*
G02*
X86560000Y-126101000I-225000J0D01*
G01*
X86060000Y-126101000D01*
G75*
G02*
X85835000Y-125876000I0J225000D01*
G01*
X85835000Y-125426000D01*
G75*
G02*
X86060000Y-125201000I225000J0D01*
G01*
G37*
G36*
G01*
X86060000Y-128426000D02*
X86560000Y-128426000D01*
G75*
G02*
X86785000Y-128651000I0J-225000D01*
G01*
X86785000Y-129101000D01*
G75*
G02*
X86560000Y-129326000I-225000J0D01*
G01*
X86060000Y-129326000D01*
G75*
G02*
X85835000Y-129101000I0J225000D01*
G01*
X85835000Y-128651000D01*
G75*
G02*
X86060000Y-128426000I225000J0D01*
G01*
G37*
G36*
G01*
X86060000Y-129976000D02*
X86560000Y-129976000D01*
G75*
G02*
X86785000Y-130201000I0J-225000D01*
G01*
X86785000Y-130651000D01*
G75*
G02*
X86560000Y-130876000I-225000J0D01*
G01*
X86060000Y-130876000D01*
G75*
G02*
X85835000Y-130651000I0J225000D01*
G01*
X85835000Y-130201000D01*
G75*
G02*
X86060000Y-129976000I225000J0D01*
G01*
G37*
G36*
G01*
X181560000Y-119976000D02*
X182060000Y-119976000D01*
G75*
G02*
X182285000Y-120201000I0J-225000D01*
G01*
X182285000Y-120651000D01*
G75*
G02*
X182060000Y-120876000I-225000J0D01*
G01*
X181560000Y-120876000D01*
G75*
G02*
X181335000Y-120651000I0J225000D01*
G01*
X181335000Y-120201000D01*
G75*
G02*
X181560000Y-119976000I225000J0D01*
G01*
G37*
G36*
G01*
X181560000Y-118426000D02*
X182060000Y-118426000D01*
G75*
G02*
X182285000Y-118651000I0J-225000D01*
G01*
X182285000Y-119101000D01*
G75*
G02*
X182060000Y-119326000I-225000J0D01*
G01*
X181560000Y-119326000D01*
G75*
G02*
X181335000Y-119101000I0J225000D01*
G01*
X181335000Y-118651000D01*
G75*
G02*
X181560000Y-118426000I225000J0D01*
G01*
G37*
G36*
G01*
X182060000Y-124376000D02*
X181560000Y-124376000D01*
G75*
G02*
X181335000Y-124151000I0J225000D01*
G01*
X181335000Y-123701000D01*
G75*
G02*
X181560000Y-123476000I225000J0D01*
G01*
X182060000Y-123476000D01*
G75*
G02*
X182285000Y-123701000I0J-225000D01*
G01*
X182285000Y-124151000D01*
G75*
G02*
X182060000Y-124376000I-225000J0D01*
G01*
G37*
G36*
G01*
X182060000Y-122826000D02*
X181560000Y-122826000D01*
G75*
G02*
X181335000Y-122601000I0J225000D01*
G01*
X181335000Y-122151000D01*
G75*
G02*
X181560000Y-121926000I225000J0D01*
G01*
X182060000Y-121926000D01*
G75*
G02*
X182285000Y-122151000I0J-225000D01*
G01*
X182285000Y-122601000D01*
G75*
G02*
X182060000Y-122826000I-225000J0D01*
G01*
G37*
G36*
G01*
X186060000Y-129101000D02*
X185560000Y-129101000D01*
G75*
G02*
X185335000Y-128876000I0J225000D01*
G01*
X185335000Y-128426000D01*
G75*
G02*
X185560000Y-128201000I225000J0D01*
G01*
X186060000Y-128201000D01*
G75*
G02*
X186285000Y-128426000I0J-225000D01*
G01*
X186285000Y-128876000D01*
G75*
G02*
X186060000Y-129101000I-225000J0D01*
G01*
G37*
G36*
G01*
X186060000Y-130651000D02*
X185560000Y-130651000D01*
G75*
G02*
X185335000Y-130426000I0J225000D01*
G01*
X185335000Y-129976000D01*
G75*
G02*
X185560000Y-129751000I225000J0D01*
G01*
X186060000Y-129751000D01*
G75*
G02*
X186285000Y-129976000I0J-225000D01*
G01*
X186285000Y-130426000D01*
G75*
G02*
X186060000Y-130651000I-225000J0D01*
G01*
G37*
G36*
G01*
X186060000Y-127376000D02*
X185560000Y-127376000D01*
G75*
G02*
X185335000Y-127151000I0J225000D01*
G01*
X185335000Y-126701000D01*
G75*
G02*
X185560000Y-126476000I225000J0D01*
G01*
X186060000Y-126476000D01*
G75*
G02*
X186285000Y-126701000I0J-225000D01*
G01*
X186285000Y-127151000D01*
G75*
G02*
X186060000Y-127376000I-225000J0D01*
G01*
G37*
G36*
G01*
X186060000Y-125826000D02*
X185560000Y-125826000D01*
G75*
G02*
X185335000Y-125601000I0J225000D01*
G01*
X185335000Y-125151000D01*
G75*
G02*
X185560000Y-124926000I225000J0D01*
G01*
X186060000Y-124926000D01*
G75*
G02*
X186285000Y-125151000I0J-225000D01*
G01*
X186285000Y-125601000D01*
G75*
G02*
X186060000Y-125826000I-225000J0D01*
G01*
G37*
G36*
G01*
X82060000Y-120751000D02*
X82560000Y-120751000D01*
G75*
G02*
X82785000Y-120976000I0J-225000D01*
G01*
X82785000Y-121426000D01*
G75*
G02*
X82560000Y-121651000I-225000J0D01*
G01*
X82060000Y-121651000D01*
G75*
G02*
X81835000Y-121426000I0J225000D01*
G01*
X81835000Y-120976000D01*
G75*
G02*
X82060000Y-120751000I225000J0D01*
G01*
G37*
G36*
G01*
X82060000Y-119201000D02*
X82560000Y-119201000D01*
G75*
G02*
X82785000Y-119426000I0J-225000D01*
G01*
X82785000Y-119876000D01*
G75*
G02*
X82560000Y-120101000I-225000J0D01*
G01*
X82060000Y-120101000D01*
G75*
G02*
X81835000Y-119876000I0J225000D01*
G01*
X81835000Y-119426000D01*
G75*
G02*
X82060000Y-119201000I225000J0D01*
G01*
G37*
G36*
G01*
X352060000Y-120701000D02*
X352560000Y-120701000D01*
G75*
G02*
X352785000Y-120926000I0J-225000D01*
G01*
X352785000Y-121376000D01*
G75*
G02*
X352560000Y-121601000I-225000J0D01*
G01*
X352060000Y-121601000D01*
G75*
G02*
X351835000Y-121376000I0J225000D01*
G01*
X351835000Y-120926000D01*
G75*
G02*
X352060000Y-120701000I225000J0D01*
G01*
G37*
G36*
G01*
X352060000Y-119151000D02*
X352560000Y-119151000D01*
G75*
G02*
X352785000Y-119376000I0J-225000D01*
G01*
X352785000Y-119826000D01*
G75*
G02*
X352560000Y-120051000I-225000J0D01*
G01*
X352060000Y-120051000D01*
G75*
G02*
X351835000Y-119826000I0J225000D01*
G01*
X351835000Y-119376000D01*
G75*
G02*
X352060000Y-119151000I225000J0D01*
G01*
G37*
G36*
G01*
X229860000Y-145100000D02*
X228760000Y-145100000D01*
G75*
G02*
X228510000Y-144850000I0J250000D01*
G01*
X228510000Y-142750000D01*
G75*
G02*
X228760000Y-142500000I250000J0D01*
G01*
X229860000Y-142500000D01*
G75*
G02*
X230110000Y-142750000I0J-250000D01*
G01*
X230110000Y-144850000D01*
G75*
G02*
X229860000Y-145100000I-250000J0D01*
G01*
G37*
G36*
G01*
X229860000Y-141500000D02*
X228760000Y-141500000D01*
G75*
G02*
X228510000Y-141250000I0J250000D01*
G01*
X228510000Y-139150000D01*
G75*
G02*
X228760000Y-138900000I250000J0D01*
G01*
X229860000Y-138900000D01*
G75*
G02*
X230110000Y-139150000I0J-250000D01*
G01*
X230110000Y-141250000D01*
G75*
G02*
X229860000Y-141500000I-250000J0D01*
G01*
G37*
G36*
G01*
X348060000Y-126751000D02*
X348560000Y-126751000D01*
G75*
G02*
X348785000Y-126976000I0J-225000D01*
G01*
X348785000Y-127426000D01*
G75*
G02*
X348560000Y-127651000I-225000J0D01*
G01*
X348060000Y-127651000D01*
G75*
G02*
X347835000Y-127426000I0J225000D01*
G01*
X347835000Y-126976000D01*
G75*
G02*
X348060000Y-126751000I225000J0D01*
G01*
G37*
G36*
G01*
X348060000Y-125201000D02*
X348560000Y-125201000D01*
G75*
G02*
X348785000Y-125426000I0J-225000D01*
G01*
X348785000Y-125876000D01*
G75*
G02*
X348560000Y-126101000I-225000J0D01*
G01*
X348060000Y-126101000D01*
G75*
G02*
X347835000Y-125876000I0J225000D01*
G01*
X347835000Y-125426000D01*
G75*
G02*
X348060000Y-125201000I225000J0D01*
G01*
G37*
G36*
G01*
X280060000Y-119101000D02*
X279560000Y-119101000D01*
G75*
G02*
X279335000Y-118876000I0J225000D01*
G01*
X279335000Y-118426000D01*
G75*
G02*
X279560000Y-118201000I225000J0D01*
G01*
X280060000Y-118201000D01*
G75*
G02*
X280285000Y-118426000I0J-225000D01*
G01*
X280285000Y-118876000D01*
G75*
G02*
X280060000Y-119101000I-225000J0D01*
G01*
G37*
G36*
G01*
X280060000Y-117551000D02*
X279560000Y-117551000D01*
G75*
G02*
X279335000Y-117326000I0J225000D01*
G01*
X279335000Y-116876000D01*
G75*
G02*
X279560000Y-116651000I225000J0D01*
G01*
X280060000Y-116651000D01*
G75*
G02*
X280285000Y-116876000I0J-225000D01*
G01*
X280285000Y-117326000D01*
G75*
G02*
X280060000Y-117551000I-225000J0D01*
G01*
G37*
G36*
G01*
X280060000Y-120726000D02*
X279560000Y-120726000D01*
G75*
G02*
X279335000Y-120501000I0J225000D01*
G01*
X279335000Y-120051000D01*
G75*
G02*
X279560000Y-119826000I225000J0D01*
G01*
X280060000Y-119826000D01*
G75*
G02*
X280285000Y-120051000I0J-225000D01*
G01*
X280285000Y-120501000D01*
G75*
G02*
X280060000Y-120726000I-225000J0D01*
G01*
G37*
G36*
G01*
X280060000Y-122276000D02*
X279560000Y-122276000D01*
G75*
G02*
X279335000Y-122051000I0J225000D01*
G01*
X279335000Y-121601000D01*
G75*
G02*
X279560000Y-121376000I225000J0D01*
G01*
X280060000Y-121376000D01*
G75*
G02*
X280285000Y-121601000I0J-225000D01*
G01*
X280285000Y-122051000D01*
G75*
G02*
X280060000Y-122276000I-225000J0D01*
G01*
G37*
G36*
G01*
X348060000Y-128426000D02*
X348560000Y-128426000D01*
G75*
G02*
X348785000Y-128651000I0J-225000D01*
G01*
X348785000Y-129101000D01*
G75*
G02*
X348560000Y-129326000I-225000J0D01*
G01*
X348060000Y-129326000D01*
G75*
G02*
X347835000Y-129101000I0J225000D01*
G01*
X347835000Y-128651000D01*
G75*
G02*
X348060000Y-128426000I225000J0D01*
G01*
G37*
G36*
G01*
X348060000Y-129976000D02*
X348560000Y-129976000D01*
G75*
G02*
X348785000Y-130201000I0J-225000D01*
G01*
X348785000Y-130651000D01*
G75*
G02*
X348560000Y-130876000I-225000J0D01*
G01*
X348060000Y-130876000D01*
G75*
G02*
X347835000Y-130651000I0J225000D01*
G01*
X347835000Y-130201000D01*
G75*
G02*
X348060000Y-129976000I225000J0D01*
G01*
G37*
G36*
G01*
X315985000Y-147201000D02*
X315985000Y-147701000D01*
G75*
G02*
X315760000Y-147926000I-225000J0D01*
G01*
X315310000Y-147926000D01*
G75*
G02*
X315085000Y-147701000I0J225000D01*
G01*
X315085000Y-147201000D01*
G75*
G02*
X315310000Y-146976000I225000J0D01*
G01*
X315760000Y-146976000D01*
G75*
G02*
X315985000Y-147201000I0J-225000D01*
G01*
G37*
G36*
G01*
X317535000Y-147201000D02*
X317535000Y-147701000D01*
G75*
G02*
X317310000Y-147926000I-225000J0D01*
G01*
X316860000Y-147926000D01*
G75*
G02*
X316635000Y-147701000I0J225000D01*
G01*
X316635000Y-147201000D01*
G75*
G02*
X316860000Y-146976000I225000J0D01*
G01*
X317310000Y-146976000D01*
G75*
G02*
X317535000Y-147201000I0J-225000D01*
G01*
G37*
G36*
G01*
X310760000Y-123901000D02*
X310760000Y-124401000D01*
G75*
G02*
X310535000Y-124626000I-225000J0D01*
G01*
X310085000Y-124626000D01*
G75*
G02*
X309860000Y-124401000I0J225000D01*
G01*
X309860000Y-123901000D01*
G75*
G02*
X310085000Y-123676000I225000J0D01*
G01*
X310535000Y-123676000D01*
G75*
G02*
X310760000Y-123901000I0J-225000D01*
G01*
G37*
G36*
G01*
X309210000Y-123901000D02*
X309210000Y-124401000D01*
G75*
G02*
X308985000Y-124626000I-225000J0D01*
G01*
X308535000Y-124626000D01*
G75*
G02*
X308310000Y-124401000I0J225000D01*
G01*
X308310000Y-123901000D01*
G75*
G02*
X308535000Y-123676000I225000J0D01*
G01*
X308985000Y-123676000D01*
G75*
G02*
X309210000Y-123901000I0J-225000D01*
G01*
G37*
G36*
G01*
X285060000Y-125251000D02*
X285560000Y-125251000D01*
G75*
G02*
X285785000Y-125476000I0J-225000D01*
G01*
X285785000Y-125926000D01*
G75*
G02*
X285560000Y-126151000I-225000J0D01*
G01*
X285060000Y-126151000D01*
G75*
G02*
X284835000Y-125926000I0J225000D01*
G01*
X284835000Y-125476000D01*
G75*
G02*
X285060000Y-125251000I225000J0D01*
G01*
G37*
G36*
G01*
X285060000Y-123701000D02*
X285560000Y-123701000D01*
G75*
G02*
X285785000Y-123926000I0J-225000D01*
G01*
X285785000Y-124376000D01*
G75*
G02*
X285560000Y-124601000I-225000J0D01*
G01*
X285060000Y-124601000D01*
G75*
G02*
X284835000Y-124376000I0J225000D01*
G01*
X284835000Y-123926000D01*
G75*
G02*
X285060000Y-123701000I225000J0D01*
G01*
G37*
G36*
G01*
X352060000Y-122426000D02*
X352560000Y-122426000D01*
G75*
G02*
X352785000Y-122651000I0J-225000D01*
G01*
X352785000Y-123101000D01*
G75*
G02*
X352560000Y-123326000I-225000J0D01*
G01*
X352060000Y-123326000D01*
G75*
G02*
X351835000Y-123101000I0J225000D01*
G01*
X351835000Y-122651000D01*
G75*
G02*
X352060000Y-122426000I225000J0D01*
G01*
G37*
G36*
G01*
X352060000Y-123976000D02*
X352560000Y-123976000D01*
G75*
G02*
X352785000Y-124201000I0J-225000D01*
G01*
X352785000Y-124651000D01*
G75*
G02*
X352560000Y-124876000I-225000J0D01*
G01*
X352060000Y-124876000D01*
G75*
G02*
X351835000Y-124651000I0J225000D01*
G01*
X351835000Y-124201000D01*
G75*
G02*
X352060000Y-123976000I225000J0D01*
G01*
G37*
G36*
G01*
X285060000Y-127151000D02*
X285560000Y-127151000D01*
G75*
G02*
X285785000Y-127376000I0J-225000D01*
G01*
X285785000Y-127826000D01*
G75*
G02*
X285560000Y-128051000I-225000J0D01*
G01*
X285060000Y-128051000D01*
G75*
G02*
X284835000Y-127826000I0J225000D01*
G01*
X284835000Y-127376000D01*
G75*
G02*
X285060000Y-127151000I225000J0D01*
G01*
G37*
G36*
G01*
X285060000Y-128701000D02*
X285560000Y-128701000D01*
G75*
G02*
X285785000Y-128926000I0J-225000D01*
G01*
X285785000Y-129376000D01*
G75*
G02*
X285560000Y-129601000I-225000J0D01*
G01*
X285060000Y-129601000D01*
G75*
G02*
X284835000Y-129376000I0J225000D01*
G01*
X284835000Y-128926000D01*
G75*
G02*
X285060000Y-128701000I225000J0D01*
G01*
G37*
G36*
G01*
X89035000Y-126791000D02*
X89585000Y-126791000D01*
G75*
G02*
X89785000Y-126991000I0J-200000D01*
G01*
X89785000Y-127391000D01*
G75*
G02*
X89585000Y-127591000I-200000J0D01*
G01*
X89035000Y-127591000D01*
G75*
G02*
X88835000Y-127391000I0J200000D01*
G01*
X88835000Y-126991000D01*
G75*
G02*
X89035000Y-126791000I200000J0D01*
G01*
G37*
G36*
G01*
X89035000Y-128441000D02*
X89585000Y-128441000D01*
G75*
G02*
X89785000Y-128641000I0J-200000D01*
G01*
X89785000Y-129041000D01*
G75*
G02*
X89585000Y-129241000I-200000J0D01*
G01*
X89035000Y-129241000D01*
G75*
G02*
X88835000Y-129041000I0J200000D01*
G01*
X88835000Y-128641000D01*
G75*
G02*
X89035000Y-128441000I200000J0D01*
G01*
G37*
G36*
G01*
X126785000Y-128276000D02*
X126235000Y-128276000D01*
G75*
G02*
X126035000Y-128076000I0J200000D01*
G01*
X126035000Y-127676000D01*
G75*
G02*
X126235000Y-127476000I200000J0D01*
G01*
X126785000Y-127476000D01*
G75*
G02*
X126985000Y-127676000I0J-200000D01*
G01*
X126985000Y-128076000D01*
G75*
G02*
X126785000Y-128276000I-200000J0D01*
G01*
G37*
G36*
G01*
X126785000Y-126626000D02*
X126235000Y-126626000D01*
G75*
G02*
X126035000Y-126426000I0J200000D01*
G01*
X126035000Y-126026000D01*
G75*
G02*
X126235000Y-125826000I200000J0D01*
G01*
X126785000Y-125826000D01*
G75*
G02*
X126985000Y-126026000I0J-200000D01*
G01*
X126985000Y-126426000D01*
G75*
G02*
X126785000Y-126626000I-200000J0D01*
G01*
G37*
G36*
G01*
X85035000Y-122401000D02*
X85585000Y-122401000D01*
G75*
G02*
X85785000Y-122601000I0J-200000D01*
G01*
X85785000Y-123001000D01*
G75*
G02*
X85585000Y-123201000I-200000J0D01*
G01*
X85035000Y-123201000D01*
G75*
G02*
X84835000Y-123001000I0J200000D01*
G01*
X84835000Y-122601000D01*
G75*
G02*
X85035000Y-122401000I200000J0D01*
G01*
G37*
G36*
G01*
X85035000Y-120751000D02*
X85585000Y-120751000D01*
G75*
G02*
X85785000Y-120951000I0J-200000D01*
G01*
X85785000Y-121351000D01*
G75*
G02*
X85585000Y-121551000I-200000J0D01*
G01*
X85035000Y-121551000D01*
G75*
G02*
X84835000Y-121351000I0J200000D01*
G01*
X84835000Y-120951000D01*
G75*
G02*
X85035000Y-120751000I200000J0D01*
G01*
G37*
G36*
G01*
X189085000Y-129201000D02*
X188535000Y-129201000D01*
G75*
G02*
X188335000Y-129001000I0J200000D01*
G01*
X188335000Y-128601000D01*
G75*
G02*
X188535000Y-128401000I200000J0D01*
G01*
X189085000Y-128401000D01*
G75*
G02*
X189285000Y-128601000I0J-200000D01*
G01*
X189285000Y-129001000D01*
G75*
G02*
X189085000Y-129201000I-200000J0D01*
G01*
G37*
G36*
G01*
X189085000Y-127551000D02*
X188535000Y-127551000D01*
G75*
G02*
X188335000Y-127351000I0J200000D01*
G01*
X188335000Y-126951000D01*
G75*
G02*
X188535000Y-126751000I200000J0D01*
G01*
X189085000Y-126751000D01*
G75*
G02*
X189285000Y-126951000I0J-200000D01*
G01*
X189285000Y-127351000D01*
G75*
G02*
X189085000Y-127551000I-200000J0D01*
G01*
G37*
G36*
G01*
X184535000Y-121751000D02*
X185085000Y-121751000D01*
G75*
G02*
X185285000Y-121951000I0J-200000D01*
G01*
X185285000Y-122351000D01*
G75*
G02*
X185085000Y-122551000I-200000J0D01*
G01*
X184535000Y-122551000D01*
G75*
G02*
X184335000Y-122351000I0J200000D01*
G01*
X184335000Y-121951000D01*
G75*
G02*
X184535000Y-121751000I200000J0D01*
G01*
G37*
G36*
G01*
X184535000Y-120101000D02*
X185085000Y-120101000D01*
G75*
G02*
X185285000Y-120301000I0J-200000D01*
G01*
X185285000Y-120701000D01*
G75*
G02*
X185085000Y-120901000I-200000J0D01*
G01*
X184535000Y-120901000D01*
G75*
G02*
X184335000Y-120701000I0J200000D01*
G01*
X184335000Y-120301000D01*
G75*
G02*
X184535000Y-120101000I200000J0D01*
G01*
G37*
G36*
G01*
X328085000Y-127226000D02*
X327535000Y-127226000D01*
G75*
G02*
X327335000Y-127026000I0J200000D01*
G01*
X327335000Y-126626000D01*
G75*
G02*
X327535000Y-126426000I200000J0D01*
G01*
X328085000Y-126426000D01*
G75*
G02*
X328285000Y-126626000I0J-200000D01*
G01*
X328285000Y-127026000D01*
G75*
G02*
X328085000Y-127226000I-200000J0D01*
G01*
G37*
G36*
G01*
X328085000Y-128876000D02*
X327535000Y-128876000D01*
G75*
G02*
X327335000Y-128676000I0J200000D01*
G01*
X327335000Y-128276000D01*
G75*
G02*
X327535000Y-128076000I200000J0D01*
G01*
X328085000Y-128076000D01*
G75*
G02*
X328285000Y-128276000I0J-200000D01*
G01*
X328285000Y-128676000D01*
G75*
G02*
X328085000Y-128876000I-200000J0D01*
G01*
G37*
G36*
G01*
X349035000Y-120926000D02*
X349585000Y-120926000D01*
G75*
G02*
X349785000Y-121126000I0J-200000D01*
G01*
X349785000Y-121526000D01*
G75*
G02*
X349585000Y-121726000I-200000J0D01*
G01*
X349035000Y-121726000D01*
G75*
G02*
X348835000Y-121526000I0J200000D01*
G01*
X348835000Y-121126000D01*
G75*
G02*
X349035000Y-120926000I200000J0D01*
G01*
G37*
G36*
G01*
X349035000Y-122576000D02*
X349585000Y-122576000D01*
G75*
G02*
X349785000Y-122776000I0J-200000D01*
G01*
X349785000Y-123176000D01*
G75*
G02*
X349585000Y-123376000I-200000J0D01*
G01*
X349035000Y-123376000D01*
G75*
G02*
X348835000Y-123176000I0J200000D01*
G01*
X348835000Y-122776000D01*
G75*
G02*
X349035000Y-122576000I200000J0D01*
G01*
G37*
G36*
G01*
X288585000Y-126401000D02*
X288035000Y-126401000D01*
G75*
G02*
X287835000Y-126201000I0J200000D01*
G01*
X287835000Y-125801000D01*
G75*
G02*
X288035000Y-125601000I200000J0D01*
G01*
X288585000Y-125601000D01*
G75*
G02*
X288785000Y-125801000I0J-200000D01*
G01*
X288785000Y-126201000D01*
G75*
G02*
X288585000Y-126401000I-200000J0D01*
G01*
G37*
G36*
G01*
X288585000Y-128051000D02*
X288035000Y-128051000D01*
G75*
G02*
X287835000Y-127851000I0J200000D01*
G01*
X287835000Y-127451000D01*
G75*
G02*
X288035000Y-127251000I200000J0D01*
G01*
X288585000Y-127251000D01*
G75*
G02*
X288785000Y-127451000I0J-200000D01*
G01*
X288785000Y-127851000D01*
G75*
G02*
X288585000Y-128051000I-200000J0D01*
G01*
G37*
G36*
G01*
X345035000Y-126791000D02*
X345585000Y-126791000D01*
G75*
G02*
X345785000Y-126991000I0J-200000D01*
G01*
X345785000Y-127391000D01*
G75*
G02*
X345585000Y-127591000I-200000J0D01*
G01*
X345035000Y-127591000D01*
G75*
G02*
X344835000Y-127391000I0J200000D01*
G01*
X344835000Y-126991000D01*
G75*
G02*
X345035000Y-126791000I200000J0D01*
G01*
G37*
G36*
G01*
X345035000Y-128441000D02*
X345585000Y-128441000D01*
G75*
G02*
X345785000Y-128641000I0J-200000D01*
G01*
X345785000Y-129041000D01*
G75*
G02*
X345585000Y-129241000I-200000J0D01*
G01*
X345035000Y-129241000D01*
G75*
G02*
X344835000Y-129041000I0J200000D01*
G01*
X344835000Y-128641000D01*
G75*
G02*
X345035000Y-128441000I200000J0D01*
G01*
G37*
G36*
G01*
X282535000Y-119826000D02*
X283085000Y-119826000D01*
G75*
G02*
X283285000Y-120026000I0J-200000D01*
G01*
X283285000Y-120426000D01*
G75*
G02*
X283085000Y-120626000I-200000J0D01*
G01*
X282535000Y-120626000D01*
G75*
G02*
X282335000Y-120426000I0J200000D01*
G01*
X282335000Y-120026000D01*
G75*
G02*
X282535000Y-119826000I200000J0D01*
G01*
G37*
G36*
G01*
X282535000Y-118176000D02*
X283085000Y-118176000D01*
G75*
G02*
X283285000Y-118376000I0J-200000D01*
G01*
X283285000Y-118776000D01*
G75*
G02*
X283085000Y-118976000I-200000J0D01*
G01*
X282535000Y-118976000D01*
G75*
G02*
X282335000Y-118776000I0J200000D01*
G01*
X282335000Y-118376000D01*
G75*
G02*
X282535000Y-118176000I200000J0D01*
G01*
G37*
M02*
