%TF.GenerationSoftware,KiCad,Pcbnew,(5.1.9)-1*%
%TF.CreationDate,2021-03-23T10:31:45+01:00*%
%TF.ProjectId,pcb rev1,70636220-7265-4763-912e-6b696361645f,rev?*%
%TF.SameCoordinates,Original*%
%TF.FileFunction,Copper,L1,Top*%
%TF.FilePolarity,Positive*%
%FSLAX46Y46*%
G04 Gerber Fmt 4.6, Leading zero omitted, Abs format (unit mm)*
G04 Created by KiCad (PCBNEW (5.1.9)-1) date 2021-03-23 10:31:45*
%MOMM*%
%LPD*%
G01*
G04 APERTURE LIST*
%TA.AperFunction,ComponentPad*%
%ADD10C,2.000000*%
%TD*%
%TA.AperFunction,SMDPad,CuDef*%
%ADD11R,3.000000X0.700000*%
%TD*%
%TA.AperFunction,ComponentPad*%
%ADD12C,1.524000*%
%TD*%
%TA.AperFunction,ComponentPad*%
%ADD13R,1.524000X1.524000*%
%TD*%
%TA.AperFunction,ComponentPad*%
%ADD14C,1.600000*%
%TD*%
%TA.AperFunction,ComponentPad*%
%ADD15R,1.600000X1.600000*%
%TD*%
%TA.AperFunction,ComponentPad*%
%ADD16O,0.899160X1.501140*%
%TD*%
%TA.AperFunction,ComponentPad*%
%ADD17O,1.700000X1.700000*%
%TD*%
%TA.AperFunction,ComponentPad*%
%ADD18R,1.700000X1.700000*%
%TD*%
%TA.AperFunction,ComponentPad*%
%ADD19O,1.600000X1.600000*%
%TD*%
%TA.AperFunction,ViaPad*%
%ADD20C,0.800000*%
%TD*%
%TA.AperFunction,Conductor*%
%ADD21C,0.250000*%
%TD*%
%TA.AperFunction,Conductor*%
%ADD22C,0.400000*%
%TD*%
G04 APERTURE END LIST*
D10*
%TO.P,X2.1,1b*%
%TO.N,Net-(U2-Pad8)*%
X281280000Y-128260000D03*
%TO.P,X2.1,2b*%
%TO.N,Net-(U2-Pad9)*%
X281280000Y-140980000D03*
%TO.P,X2.1,3b*%
%TO.N,Net-(U2-Pad11)*%
X253340000Y-140980000D03*
%TO.P,X2.1,4b*%
%TO.N,Net-(U2-Pad10)*%
X253340000Y-128260000D03*
%TO.P,X2.1,2a*%
%TO.N,Net-(U2-Pad6)*%
X278740000Y-138430000D03*
%TO.P,X2.1,1a*%
%TO.N,Net-(U2-Pad7)*%
X278740000Y-130810000D03*
%TO.P,X2.1,3a*%
%TO.N,Net-(U2-Pad4)*%
X255880000Y-138430000D03*
%TO.P,X2.1,4a*%
%TO.N,Net-(U2-Pad5)*%
X255880000Y-130810000D03*
%TD*%
D11*
%TO.P,U1,14*%
%TO.N,Net-(A1-Pad31)*%
X112205000Y-144335000D03*
%TO.P,U1,15*%
%TO.N,/5V*%
X120205000Y-144335000D03*
%TO.P,U1,13*%
%TO.N,Net-(A1-Pad30)*%
X112205000Y-143065000D03*
%TO.P,U1,16*%
%TO.N,Net-(A1-Pad36)*%
X120205000Y-143065000D03*
%TO.P,U1,12*%
%TO.N,/GND*%
X112205000Y-141795000D03*
%TO.P,U1,17*%
%TO.N,Net-(A1-Pad35)*%
X120205000Y-141795000D03*
%TO.P,U1,11*%
%TO.N,Net-(U1-Pad11)*%
X112205000Y-140525000D03*
%TO.P,U1,18*%
%TO.N,Net-(U1-Pad18)*%
X120205000Y-140525000D03*
%TO.P,U1,10*%
%TO.N,Net-(U1-Pad10)*%
X112205000Y-139255000D03*
%TO.P,U1,19*%
%TO.N,Net-(U1-Pad19)*%
X120205000Y-139255000D03*
%TO.P,U1,9*%
%TO.N,Net-(U1-Pad9)*%
X112205000Y-137985000D03*
%TO.P,U1,20*%
%TO.N,Net-(U1-Pad20)*%
X120205000Y-137985000D03*
%TO.P,U1,8*%
%TO.N,Net-(U1-Pad8)*%
X112205000Y-136715000D03*
%TO.P,U1,21*%
%TO.N,Net-(U1-Pad21)*%
X120205000Y-136715000D03*
%TO.P,U1,7*%
%TO.N,Net-(U1-Pad7)*%
X112205000Y-135445000D03*
%TO.P,U1,22*%
%TO.N,Net-(U1-Pad22)*%
X120205000Y-135445000D03*
%TO.P,U1,6*%
%TO.N,Net-(U1-Pad6)*%
X112205000Y-134175000D03*
%TO.P,U1,23*%
%TO.N,Net-(U1-Pad23)*%
X120205000Y-134175000D03*
%TO.P,U1,5*%
%TO.N,Net-(U1-Pad5)*%
X112205000Y-132905000D03*
%TO.P,U1,24*%
%TO.N,Net-(U1-Pad24)*%
X120205000Y-132905000D03*
%TO.P,U1,4*%
%TO.N,Net-(U1-Pad4)*%
X112205000Y-131635000D03*
%TO.P,U1,25*%
%TO.N,Net-(U1-Pad25)*%
X120205000Y-131635000D03*
%TO.P,U1,3*%
%TO.N,Net-(A1-Pad29)*%
X112205000Y-130365000D03*
%TO.P,U1,26*%
%TO.N,Net-(R1.1-Pad1)*%
X120205000Y-130365000D03*
%TO.P,U1,2*%
%TO.N,Net-(A1-Pad28)*%
X112205000Y-129095000D03*
%TO.P,U1,27*%
%TO.N,Net-(A1-Pad33)*%
X120205000Y-129095000D03*
%TO.P,U1,1*%
%TO.N,/5V*%
X112205000Y-127825000D03*
%TO.P,U1,28*%
%TO.N,Net-(A1-Pad32)*%
X120205000Y-127825000D03*
%TD*%
D12*
%TO.P,A1,40*%
%TO.N,Net-(A1-Pad40)*%
X193040000Y-115570000D03*
%TO.P,A1,39*%
%TO.N,Net-(A1-Pad39)*%
X195580000Y-115570000D03*
%TO.P,A1,38*%
%TO.N,Net-(A1-Pad38)*%
X198120000Y-115570000D03*
%TO.P,A1,37*%
%TO.N,Net-(A1-Pad37)*%
X200660000Y-115570000D03*
%TO.P,A1,36*%
%TO.N,Net-(A1-Pad36)*%
X203200000Y-115570000D03*
%TO.P,A1,35*%
%TO.N,Net-(A1-Pad35)*%
X205740000Y-115570000D03*
%TO.P,A1,34*%
%TO.N,Net-(A1-Pad34)*%
X208280000Y-115570000D03*
%TO.P,A1,33*%
%TO.N,Net-(A1-Pad33)*%
X210820000Y-115570000D03*
%TO.P,A1,32*%
%TO.N,Net-(A1-Pad32)*%
X213360000Y-115570000D03*
%TO.P,A1,31*%
%TO.N,Net-(A1-Pad31)*%
X215900000Y-115570000D03*
%TO.P,A1,30*%
%TO.N,Net-(A1-Pad30)*%
X218440000Y-115570000D03*
%TO.P,A1,29*%
%TO.N,Net-(A1-Pad29)*%
X220980000Y-115570000D03*
%TO.P,A1,28*%
%TO.N,Net-(A1-Pad28)*%
X223520000Y-115570000D03*
%TO.P,A1,27*%
%TO.N,Net-(A1-Pad27)*%
X226060000Y-115570000D03*
%TO.P,A1,26*%
%TO.N,Net-(A1-Pad26)*%
X228600000Y-115570000D03*
%TO.P,A1,25*%
%TO.N,Net-(A1-Pad25)*%
X231140000Y-115570000D03*
%TO.P,A1,24*%
%TO.N,Net-(A1-Pad24)*%
X233680000Y-115570000D03*
%TO.P,A1,23*%
%TO.N,Net-(A1-Pad23)*%
X236220000Y-115570000D03*
%TO.P,A1,22*%
%TO.N,Net-(A1-Pad22)*%
X238760000Y-115570000D03*
%TO.P,A1,21*%
%TO.N,/5V*%
X241300000Y-115570000D03*
%TO.P,A1,20*%
%TO.N,Net-(A1-Pad20)*%
X241300000Y-130810000D03*
%TO.P,A1,19*%
%TO.N,Net-(A1-Pad19)*%
X238760000Y-130810000D03*
%TO.P,A1,18*%
%TO.N,Net-(A1-Pad18)*%
X236220000Y-130810000D03*
%TO.P,A1,17*%
%TO.N,Net-(A1-Pad17)*%
X233680000Y-130810000D03*
%TO.P,A1,16*%
%TO.N,Net-(A1-Pad16)*%
X231140000Y-130810000D03*
%TO.P,A1,15*%
%TO.N,Net-(A1-Pad15)*%
X228600000Y-130810000D03*
%TO.P,A1,14*%
%TO.N,Net-(A1-Pad14)*%
X226060000Y-130810000D03*
%TO.P,A1,13*%
%TO.N,Net-(A1-Pad13)*%
X223520000Y-130810000D03*
%TO.P,A1,12*%
%TO.N,Net-(A1-Pad12)*%
X220980000Y-130810000D03*
%TO.P,A1,11*%
%TO.N,Net-(A1-Pad11)*%
X218440000Y-130810000D03*
%TO.P,A1,10*%
%TO.N,Net-(A1-Pad10)*%
X215900000Y-130810000D03*
%TO.P,A1,9*%
%TO.N,Net-(A1-Pad9)*%
X213360000Y-130810000D03*
%TO.P,A1,8*%
%TO.N,Net-(A1-Pad8)*%
X210820000Y-130810000D03*
%TO.P,A1,7*%
%TO.N,Net-(A1-Pad7)*%
X208280000Y-130810000D03*
%TO.P,A1,6*%
%TO.N,Net-(A1-Pad6)*%
X205740000Y-130810000D03*
%TO.P,A1,5*%
%TO.N,Net-(A1-Pad5)*%
X203200000Y-130810000D03*
%TO.P,A1,4*%
%TO.N,Net-(A1-Pad4)*%
X200660000Y-130810000D03*
%TO.P,A1,3*%
%TO.N,Net-(A1-Pad3)*%
X198120000Y-130810000D03*
%TO.P,A1,2*%
%TO.N,/GND*%
X195580000Y-130810000D03*
D13*
%TO.P,A1,1*%
%TO.N,Net-(A1-Pad1)*%
X193040000Y-130810000D03*
%TD*%
D14*
%TO.P,C1.8,2*%
%TO.N,/GND*%
X142574000Y-123190000D03*
%TO.P,C1.8,1*%
%TO.N,/5V*%
X147574000Y-123190000D03*
%TD*%
%TO.P,C1.2,2*%
%TO.N,/GND*%
X129460000Y-147320000D03*
%TO.P,C1.2,1*%
%TO.N,/5V*%
X124460000Y-147320000D03*
%TD*%
%TO.P,C1.7,2*%
%TO.N,Net-(A1-Pad9)*%
X67898000Y-116586000D03*
%TO.P,C1.7,1*%
%TO.N,/GND*%
X72898000Y-116586000D03*
%TD*%
%TO.P,C1.9,2*%
%TO.N,Net-(A1-Pad8)*%
X150448000Y-121920000D03*
%TO.P,C1.9,1*%
%TO.N,/GND*%
X155448000Y-121920000D03*
%TD*%
%TO.P,C1.1,2*%
%TO.N,/GND*%
X195580000Y-139740000D03*
D15*
%TO.P,C1.1,1*%
%TO.N,/5V*%
X195580000Y-142240000D03*
%TD*%
D14*
%TO.P,C1.10,2*%
%TO.N,/GND*%
X157814000Y-117856000D03*
%TO.P,C1.10,1*%
%TO.N,/5V*%
X162814000Y-117856000D03*
%TD*%
%TO.P,C1.11,2*%
%TO.N,Net-(A1-Pad7)*%
X174070000Y-117856000D03*
%TO.P,C1.11,1*%
%TO.N,/GND*%
X179070000Y-117856000D03*
%TD*%
%TO.P,C1.4,2*%
%TO.N,/GND*%
X76534000Y-116586000D03*
%TO.P,C1.4,1*%
%TO.N,/5V*%
X81534000Y-116586000D03*
%TD*%
%TO.P,C1.5,2*%
%TO.N,Net-(A1-Pad10)*%
X84408000Y-116586000D03*
%TO.P,C1.5,1*%
%TO.N,/GND*%
X89408000Y-116586000D03*
%TD*%
%TO.P,C1.6,2*%
%TO.N,/GND*%
X59770000Y-116586000D03*
%TO.P,C1.6,1*%
%TO.N,/5V*%
X64770000Y-116586000D03*
%TD*%
%TO.P,C1.3,2*%
%TO.N,/GND*%
X102950000Y-125476000D03*
%TO.P,C1.3,1*%
%TO.N,/5V*%
X107950000Y-125476000D03*
%TD*%
%TO.P,C2.1,2*%
%TO.N,/GND*%
X240030000Y-139740000D03*
D15*
%TO.P,C2.1,1*%
%TO.N,/5V*%
X240030000Y-142240000D03*
%TD*%
D14*
%TO.P,C2.9,2*%
%TO.N,Net-(A1-Pad11)*%
X375492000Y-119507000D03*
%TO.P,C2.9,1*%
%TO.N,/GND*%
X380492000Y-119507000D03*
%TD*%
%TO.P,C2.7,2*%
%TO.N,Net-(A1-Pad16)*%
X253412000Y-123063000D03*
%TO.P,C2.7,1*%
%TO.N,/GND*%
X248412000Y-123063000D03*
%TD*%
%TO.P,C2.6,2*%
%TO.N,/GND*%
X254080000Y-119126000D03*
%TO.P,C2.6,1*%
%TO.N,/5V*%
X259080000Y-119126000D03*
%TD*%
%TO.P,C2.10,2*%
%TO.N,/GND*%
X357712000Y-117221000D03*
%TO.P,C2.10,1*%
%TO.N,/5V*%
X362712000Y-117221000D03*
%TD*%
%TO.P,C2.11,2*%
%TO.N,Net-(A1-Pad14)*%
X356282000Y-121285000D03*
%TO.P,C2.11,1*%
%TO.N,/GND*%
X351282000Y-121285000D03*
%TD*%
%TO.P,C2.4,2*%
%TO.N,/GND*%
X282114000Y-120269000D03*
%TO.P,C2.4,1*%
%TO.N,/5V*%
X277114000Y-120269000D03*
%TD*%
%TO.P,C2.3,2*%
%TO.N,/GND*%
X302848000Y-125095000D03*
%TO.P,C2.3,1*%
%TO.N,/5V*%
X307848000Y-125095000D03*
%TD*%
%TO.P,C2.2,2*%
%TO.N,/GND*%
X318850000Y-147701000D03*
%TO.P,C2.2,1*%
%TO.N,/5V*%
X323850000Y-147701000D03*
%TD*%
%TO.P,C2.8,2*%
%TO.N,/GND*%
X366856000Y-117221000D03*
%TO.P,C2.8,1*%
%TO.N,/5V*%
X371856000Y-117221000D03*
%TD*%
%TO.P,C12.5,2*%
%TO.N,Net-(A1-Pad15)*%
X282528000Y-124968000D03*
%TO.P,C12.5,1*%
%TO.N,/GND*%
X287528000Y-124968000D03*
%TD*%
D16*
%TO.P,H1.1L1,1*%
%TO.N,/5V*%
X68580000Y-123952000D03*
%TO.P,H1.1L1,3*%
%TO.N,Net-(A1-Pad9)*%
X66040000Y-123952000D03*
%TO.P,H1.1L1,2*%
%TO.N,/GND*%
X67310000Y-123952000D03*
%TD*%
%TO.P,H1.1U1,1*%
%TO.N,/5V*%
X66040000Y-133350000D03*
%TO.P,H1.1U1,3*%
%TO.N,Net-(A1-Pad10)*%
X68580000Y-133350000D03*
%TO.P,H1.1U1,2*%
%TO.N,/GND*%
X67310000Y-133350000D03*
%TD*%
%TO.P,H1.2L1,1*%
%TO.N,/5V*%
X168656000Y-123952000D03*
%TO.P,H1.2L1,3*%
%TO.N,Net-(A1-Pad7)*%
X166116000Y-123952000D03*
%TO.P,H1.2L1,2*%
%TO.N,/GND*%
X167386000Y-123952000D03*
%TD*%
%TO.P,H1.2U1,1*%
%TO.N,/5V*%
X166116000Y-133350000D03*
%TO.P,H1.2U1,3*%
%TO.N,Net-(A1-Pad8)*%
X168656000Y-133350000D03*
%TO.P,H1.2U1,2*%
%TO.N,/GND*%
X167386000Y-133350000D03*
%TD*%
%TO.P,H2.2U2,1*%
%TO.N,/5V*%
X366014000Y-133223000D03*
%TO.P,H2.2U2,3*%
%TO.N,Net-(A1-Pad11)*%
X368554000Y-133223000D03*
%TO.P,H2.2U2,2*%
%TO.N,/GND*%
X367284000Y-133223000D03*
%TD*%
%TO.P,H2.1L1,1*%
%TO.N,/5V*%
X268732000Y-123952000D03*
%TO.P,H2.1L1,3*%
%TO.N,Net-(A1-Pad16)*%
X266192000Y-123952000D03*
%TO.P,H2.1L1,2*%
%TO.N,/GND*%
X267462000Y-123952000D03*
%TD*%
%TO.P,H2.1U1,1*%
%TO.N,/5V*%
X266192000Y-133350000D03*
%TO.P,H2.1U1,3*%
%TO.N,Net-(A1-Pad15)*%
X268732000Y-133350000D03*
%TO.P,H2.1U1,2*%
%TO.N,/GND*%
X267462000Y-133350000D03*
%TD*%
%TO.P,H2.2L1,1*%
%TO.N,/5V*%
X368554000Y-124079000D03*
%TO.P,H2.2L1,3*%
%TO.N,Net-(A1-Pad14)*%
X366014000Y-124079000D03*
%TO.P,H2.2L1,2*%
%TO.N,/GND*%
X367284000Y-124079000D03*
%TD*%
D17*
%TO.P,J1,4*%
%TO.N,Net-(A1-Pad5)*%
X229108000Y-141732000D03*
%TO.P,J1,3*%
%TO.N,Net-(A1-Pad4)*%
X226568000Y-141732000D03*
%TO.P,J1,2*%
%TO.N,/5V*%
X224028000Y-141732000D03*
D18*
%TO.P,J1,1*%
%TO.N,/GND*%
X221488000Y-141732000D03*
%TD*%
D19*
%TO.P,R1.3,2*%
%TO.N,/5V*%
X61468000Y-112014000D03*
D14*
%TO.P,R1.3,1*%
%TO.N,Net-(A1-Pad9)*%
X71628000Y-112014000D03*
%TD*%
D19*
%TO.P,R1.1,2*%
%TO.N,/5V*%
X107950000Y-118618000D03*
D14*
%TO.P,R1.1,1*%
%TO.N,Net-(R1.1-Pad1)*%
X118110000Y-118618000D03*
%TD*%
D19*
%TO.P,R1,2*%
%TO.N,/5V*%
X214630000Y-141732000D03*
D14*
%TO.P,R1,1*%
%TO.N,Net-(A1-Pad4)*%
X204470000Y-141732000D03*
%TD*%
D19*
%TO.P,R1.2,2*%
%TO.N,/5V*%
X77724000Y-111760000D03*
D14*
%TO.P,R1.2,1*%
%TO.N,Net-(A1-Pad10)*%
X87884000Y-111760000D03*
%TD*%
D19*
%TO.P,R1.4,2*%
%TO.N,/5V*%
X143764000Y-117094000D03*
D14*
%TO.P,R1.4,1*%
%TO.N,Net-(A1-Pad8)*%
X153924000Y-117094000D03*
%TD*%
D19*
%TO.P,R1.5,2*%
%TO.N,/5V*%
X163576000Y-113792000D03*
D14*
%TO.P,R1.5,1*%
%TO.N,Net-(A1-Pad7)*%
X173736000Y-113792000D03*
%TD*%
D19*
%TO.P,R2.1,2*%
%TO.N,/5V*%
X308864000Y-118237000D03*
D14*
%TO.P,R2.1,1*%
%TO.N,Net-(R2.1-Pad1)*%
X319024000Y-118237000D03*
%TD*%
D19*
%TO.P,R2,2*%
%TO.N,/5V*%
X214630000Y-137160000D03*
D14*
%TO.P,R2,1*%
%TO.N,Net-(A1-Pad5)*%
X204470000Y-137160000D03*
%TD*%
D19*
%TO.P,R2.5,2*%
%TO.N,/5V*%
X362712000Y-113665000D03*
D14*
%TO.P,R2.5,1*%
%TO.N,Net-(A1-Pad14)*%
X352552000Y-113665000D03*
%TD*%
D19*
%TO.P,R2.2,2*%
%TO.N,/5V*%
X279781000Y-115443000D03*
D14*
%TO.P,R2.2,1*%
%TO.N,Net-(A1-Pad15)*%
X289941000Y-115443000D03*
%TD*%
D19*
%TO.P,R2.4,2*%
%TO.N,/5V*%
X369316000Y-113665000D03*
D14*
%TO.P,R2.4,1*%
%TO.N,Net-(A1-Pad11)*%
X379476000Y-113665000D03*
%TD*%
D19*
%TO.P,R2.3,2*%
%TO.N,/5V*%
X260604000Y-115443000D03*
D14*
%TO.P,R2.3,1*%
%TO.N,Net-(A1-Pad16)*%
X250444000Y-115443000D03*
%TD*%
D11*
%TO.P,U2,14*%
%TO.N,Net-(A1-Pad18)*%
X313205000Y-144335000D03*
%TO.P,U2,15*%
%TO.N,/5V*%
X321205000Y-144335000D03*
%TO.P,U2,13*%
%TO.N,Net-(A1-Pad17)*%
X313205000Y-143065000D03*
%TO.P,U2,16*%
%TO.N,Net-(A1-Pad24)*%
X321205000Y-143065000D03*
%TO.P,U2,12*%
%TO.N,/GND*%
X313205000Y-141795000D03*
%TO.P,U2,17*%
%TO.N,Net-(A1-Pad25)*%
X321205000Y-141795000D03*
%TO.P,U2,11*%
%TO.N,Net-(U2-Pad11)*%
X313205000Y-140525000D03*
%TO.P,U2,18*%
%TO.N,Net-(U2-Pad18)*%
X321205000Y-140525000D03*
%TO.P,U2,10*%
%TO.N,Net-(U2-Pad10)*%
X313205000Y-139255000D03*
%TO.P,U2,19*%
%TO.N,Net-(U2-Pad19)*%
X321205000Y-139255000D03*
%TO.P,U2,9*%
%TO.N,Net-(U2-Pad9)*%
X313205000Y-137985000D03*
%TO.P,U2,20*%
%TO.N,Net-(U2-Pad20)*%
X321205000Y-137985000D03*
%TO.P,U2,8*%
%TO.N,Net-(U2-Pad8)*%
X313205000Y-136715000D03*
%TO.P,U2,21*%
%TO.N,Net-(U2-Pad21)*%
X321205000Y-136715000D03*
%TO.P,U2,7*%
%TO.N,Net-(U2-Pad7)*%
X313205000Y-135445000D03*
%TO.P,U2,22*%
%TO.N,Net-(U2-Pad22)*%
X321205000Y-135445000D03*
%TO.P,U2,6*%
%TO.N,Net-(U2-Pad6)*%
X313205000Y-134175000D03*
%TO.P,U2,23*%
%TO.N,Net-(U2-Pad23)*%
X321205000Y-134175000D03*
%TO.P,U2,5*%
%TO.N,Net-(U2-Pad5)*%
X313205000Y-132905000D03*
%TO.P,U2,24*%
%TO.N,Net-(U2-Pad24)*%
X321205000Y-132905000D03*
%TO.P,U2,4*%
%TO.N,Net-(U2-Pad4)*%
X313205000Y-131635000D03*
%TO.P,U2,25*%
%TO.N,Net-(U2-Pad25)*%
X321205000Y-131635000D03*
%TO.P,U2,3*%
%TO.N,Net-(A1-Pad19)*%
X313205000Y-130365000D03*
%TO.P,U2,26*%
%TO.N,Net-(R2.1-Pad1)*%
X321205000Y-130365000D03*
%TO.P,U2,2*%
%TO.N,Net-(A1-Pad20)*%
X313205000Y-129095000D03*
%TO.P,U2,27*%
%TO.N,Net-(A1-Pad27)*%
X321205000Y-129095000D03*
%TO.P,U2,1*%
%TO.N,/5V*%
X313205000Y-127825000D03*
%TO.P,U2,28*%
%TO.N,Net-(A1-Pad26)*%
X321205000Y-127825000D03*
%TD*%
D10*
%TO.P,X1.1,1b*%
%TO.N,Net-(U1-Pad8)*%
X81280000Y-128260000D03*
%TO.P,X1.1,2b*%
%TO.N,Net-(U1-Pad9)*%
X81280000Y-140980000D03*
%TO.P,X1.1,3b*%
%TO.N,Net-(U1-Pad11)*%
X53340000Y-140980000D03*
%TO.P,X1.1,4b*%
%TO.N,Net-(U1-Pad10)*%
X53340000Y-128260000D03*
%TO.P,X1.1,2a*%
%TO.N,Net-(U1-Pad6)*%
X78740000Y-138430000D03*
%TO.P,X1.1,1a*%
%TO.N,Net-(U1-Pad7)*%
X78740000Y-130810000D03*
%TO.P,X1.1,3a*%
%TO.N,Net-(U1-Pad4)*%
X55880000Y-138430000D03*
%TO.P,X1.1,4a*%
%TO.N,Net-(U1-Pad5)*%
X55880000Y-130810000D03*
%TD*%
%TO.P,X1.2,1b*%
%TO.N,Net-(U1-Pad21)*%
X181280000Y-128260000D03*
%TO.P,X1.2,2b*%
%TO.N,Net-(U1-Pad20)*%
X181280000Y-140980000D03*
%TO.P,X1.2,3b*%
%TO.N,Net-(U1-Pad18)*%
X153340000Y-140980000D03*
%TO.P,X1.2,4b*%
%TO.N,Net-(U1-Pad19)*%
X153340000Y-128260000D03*
%TO.P,X1.2,2a*%
%TO.N,Net-(U1-Pad23)*%
X178740000Y-138430000D03*
%TO.P,X1.2,1a*%
%TO.N,Net-(U1-Pad22)*%
X178740000Y-130810000D03*
%TO.P,X1.2,3a*%
%TO.N,Net-(U1-Pad25)*%
X155880000Y-138430000D03*
%TO.P,X1.2,4a*%
%TO.N,Net-(U1-Pad24)*%
X155880000Y-130810000D03*
%TD*%
%TO.P,X2.2,1b*%
%TO.N,Net-(U2-Pad22)*%
X381280000Y-128260000D03*
%TO.P,X2.2,2b*%
%TO.N,Net-(U2-Pad23)*%
X381280000Y-140980000D03*
%TO.P,X2.2,3b*%
%TO.N,Net-(U2-Pad25)*%
X353340000Y-140980000D03*
%TO.P,X2.2,4b*%
%TO.N,Net-(U2-Pad24)*%
X353340000Y-128260000D03*
%TO.P,X2.2,2a*%
%TO.N,Net-(U2-Pad20)*%
X378740000Y-138430000D03*
%TO.P,X2.2,1a*%
%TO.N,Net-(U2-Pad21)*%
X378740000Y-130810000D03*
%TO.P,X2.2,3a*%
%TO.N,Net-(U2-Pad18)*%
X355880000Y-138430000D03*
%TO.P,X2.2,4a*%
%TO.N,Net-(U2-Pad19)*%
X355880000Y-130810000D03*
%TD*%
D20*
%TO.N,Net-(A1-Pad7)*%
X186182000Y-121412000D03*
X189992000Y-125222000D03*
%TO.N,Net-(A1-Pad8)*%
X185928000Y-118364000D03*
X189992000Y-122682000D03*
%TO.N,Net-(A1-Pad9)*%
X184658000Y-106934000D03*
X75946000Y-108966000D03*
X78994000Y-108966000D03*
X189992000Y-120650000D03*
%TO.N,Net-(A1-Pad10)*%
X187960000Y-107188000D03*
X189992000Y-118618000D03*
%TO.N,Net-(A1-Pad11)*%
X368300000Y-108077000D03*
X358648000Y-108077000D03*
X320802000Y-110109000D03*
X313436000Y-112903000D03*
%TO.N,Net-(A1-Pad14)*%
X320548000Y-113157000D03*
X311404000Y-114681000D03*
%TO.N,Net-(U1-Pad19)*%
X145542000Y-138430000D03*
%TO.N,Net-(U1-Pad20)*%
X129540000Y-138176000D03*
X132588000Y-141732000D03*
%TO.N,Net-(U1-Pad8)*%
X83312000Y-132080000D03*
X90233000Y-136715000D03*
%TO.N,Net-(U1-Pad22)*%
X158496000Y-137668000D03*
X148907000Y-135445000D03*
%TO.N,Net-(U1-Pad23)*%
X141478000Y-134112000D03*
X144018000Y-143510000D03*
%TO.N,Net-(U1-Pad24)*%
X147257000Y-132905000D03*
%TO.N,Net-(U1-Pad4)*%
X86614000Y-130302000D03*
X75692000Y-136906000D03*
%TO.N,Net-(U2-Pad25)*%
X339598000Y-131699000D03*
%TO.N,Net-(U2-Pad4)*%
X285750000Y-131572000D03*
X277495000Y-134112000D03*
%TO.N,Net-(U2-Pad23)*%
X326390000Y-134239000D03*
X328930000Y-141605000D03*
%TO.N,Net-(U2-Pad6)*%
X287020000Y-134112000D03*
%TO.N,Net-(U2-Pad8)*%
X308864000Y-136652000D03*
X305181000Y-129794000D03*
%TO.N,Net-(U2-Pad19)*%
X349250000Y-138303000D03*
%TO.N,/GND*%
X108966000Y-141732000D03*
X309626000Y-141859000D03*
%TO.N,/5V*%
X107950000Y-110490000D03*
X109347000Y-107061000D03*
X160020000Y-113030000D03*
X143764000Y-106934000D03*
X160020000Y-106934000D03*
X239014000Y-107188000D03*
X243586000Y-132715000D03*
X260604000Y-107061000D03*
X279654000Y-107061000D03*
X308102000Y-107061000D03*
X243586000Y-126746000D03*
X243586000Y-122047000D03*
%TD*%
D21*
%TO.N,Net-(A1-Pad4)*%
X226568000Y-141732000D02*
X220472000Y-135636000D01*
X210566000Y-135636000D02*
X204470000Y-141732000D01*
X220472000Y-135636000D02*
X210566000Y-135636000D01*
X200660000Y-137922000D02*
X200660000Y-130810000D01*
X204470000Y-141732000D02*
X200660000Y-137922000D01*
%TO.N,Net-(A1-Pad5)*%
X229108000Y-141732000D02*
X221996000Y-134620000D01*
X207010000Y-134620000D02*
X204470000Y-137160000D01*
X221996000Y-134620000D02*
X207010000Y-134620000D01*
X204470000Y-137160000D02*
X203708000Y-137160000D01*
X203200000Y-136652000D02*
X203200000Y-130810000D01*
X203708000Y-137160000D02*
X203200000Y-136652000D01*
%TO.N,Net-(A1-Pad7)*%
X173736000Y-117522000D02*
X174070000Y-117856000D01*
X173736000Y-113792000D02*
X173736000Y-117522000D01*
X173736000Y-113792000D02*
X178562000Y-113792000D01*
X178562000Y-113792000D02*
X186182000Y-121412000D01*
X202692000Y-125222000D02*
X208280000Y-130810000D01*
X189992000Y-125222000D02*
X202692000Y-125222000D01*
X174070000Y-120824000D02*
X174070000Y-117856000D01*
X169425715Y-125468285D02*
X174070000Y-120824000D01*
X166631715Y-125468285D02*
X169425715Y-125468285D01*
X166116000Y-124952570D02*
X166631715Y-125468285D01*
X166116000Y-123952000D02*
X166116000Y-124952570D01*
%TO.N,Net-(A1-Pad8)*%
X153924000Y-117094000D02*
X153924000Y-113030000D01*
X153924000Y-113030000D02*
X153924000Y-112268000D01*
X154525940Y-111412060D02*
X154586420Y-111412060D01*
X153924000Y-112014000D02*
X154525940Y-111412060D01*
X153924000Y-112268000D02*
X153924000Y-112014000D01*
X154586420Y-111412060D02*
X180340000Y-111412060D01*
X150448000Y-120570000D02*
X153924000Y-117094000D01*
X150448000Y-121920000D02*
X150448000Y-120570000D01*
X180340000Y-111412060D02*
X180340000Y-112776000D01*
X180340000Y-112776000D02*
X185928000Y-118364000D01*
X185928000Y-118364000D02*
X185928000Y-118364000D01*
X202692000Y-122682000D02*
X210820000Y-130810000D01*
X189992000Y-122682000D02*
X202692000Y-122682000D01*
X163253501Y-130741501D02*
X164338000Y-131826000D01*
X168656000Y-132349430D02*
X168656000Y-133350000D01*
X168132570Y-131826000D02*
X168656000Y-132349430D01*
X164338000Y-131826000D02*
X168132570Y-131826000D01*
X150448000Y-121920000D02*
X159269501Y-130741501D01*
X159443501Y-130741501D02*
X163253501Y-130741501D01*
X159269501Y-130741501D02*
X159443501Y-130741501D01*
%TO.N,Net-(A1-Pad9)*%
X71628000Y-112856000D02*
X71628000Y-112014000D01*
X67898000Y-116586000D02*
X71628000Y-112856000D01*
X72898000Y-112014000D02*
X75946000Y-108966000D01*
X71628000Y-112014000D02*
X72898000Y-112014000D01*
X110744000Y-107696000D02*
X183896000Y-107696000D01*
X183896000Y-107696000D02*
X184658000Y-106934000D01*
X110236000Y-108204000D02*
X110744000Y-107696000D01*
X106680000Y-107696000D02*
X107188000Y-108204000D01*
X81788000Y-107696000D02*
X106680000Y-107696000D01*
X80518000Y-108966000D02*
X81788000Y-107696000D01*
X107188000Y-108204000D02*
X110236000Y-108204000D01*
X78994000Y-108966000D02*
X80518000Y-108966000D01*
X203200000Y-120650000D02*
X213360000Y-130810000D01*
X189992000Y-120650000D02*
X203200000Y-120650000D01*
X67898000Y-116586000D02*
X70104000Y-118792000D01*
X70104000Y-118792000D02*
X70104000Y-124968000D01*
X70104000Y-124968000D02*
X69596000Y-125476000D01*
X69596000Y-125476000D02*
X66548000Y-125476000D01*
X66548000Y-125476000D02*
X66040000Y-124968000D01*
X66040000Y-124968000D02*
X66040000Y-123952000D01*
%TO.N,Net-(A1-Pad10)*%
X84408000Y-115236000D02*
X87884000Y-111760000D01*
X84408000Y-116586000D02*
X84408000Y-115236000D01*
X87884000Y-111760000D02*
X87884000Y-110236000D01*
X87884000Y-110236000D02*
X89916000Y-108204000D01*
X89916000Y-108204000D02*
X105918000Y-108204000D01*
X106368010Y-108654010D02*
X110547990Y-108654010D01*
X105918000Y-108204000D02*
X106368010Y-108654010D01*
X110547990Y-108654010D02*
X110998000Y-108204000D01*
X110998000Y-108204000D02*
X181610000Y-108204000D01*
X181610000Y-108204000D02*
X186944000Y-108204000D01*
X186944000Y-108204000D02*
X187960000Y-107188000D01*
X187960000Y-107188000D02*
X187960000Y-107188000D01*
X203708000Y-118618000D02*
X215900000Y-130810000D01*
X189992000Y-118618000D02*
X203708000Y-118618000D01*
X68580000Y-134366000D02*
X68580000Y-133350000D01*
X69088000Y-134874000D02*
X68580000Y-134366000D01*
X84408000Y-121078000D02*
X70612000Y-134874000D01*
X70612000Y-134874000D02*
X69088000Y-134874000D01*
X84408000Y-116586000D02*
X84408000Y-121078000D01*
%TO.N,Net-(A1-Pad15)*%
X282528000Y-124968000D02*
X281178000Y-124968000D01*
X272796000Y-133350000D02*
X268732000Y-133350000D01*
X281178000Y-124968000D02*
X272796000Y-133350000D01*
X282528000Y-124968000D02*
X283845000Y-124968000D01*
X289941000Y-118872000D02*
X289941000Y-115443000D01*
X283845000Y-124968000D02*
X289941000Y-118872000D01*
X289941000Y-115443000D02*
X287089010Y-112591010D01*
X287089010Y-112591010D02*
X247710810Y-112591010D01*
X247710810Y-112591010D02*
X245936910Y-114364910D01*
%TO.N,Net-(A1-Pad16)*%
X265684000Y-123444000D02*
X266192000Y-123952000D01*
X253793000Y-123444000D02*
X253412000Y-123063000D01*
X265684000Y-123444000D02*
X253793000Y-123444000D01*
X253412000Y-123063000D02*
X250444000Y-120095000D01*
X250444000Y-120095000D02*
X250444000Y-115443000D01*
%TO.N,Net-(A1-Pad11)*%
X375492000Y-117649000D02*
X379476000Y-113665000D01*
X375492000Y-119507000D02*
X375492000Y-117649000D01*
X375492000Y-119507000D02*
X372872000Y-122127000D01*
X372872000Y-122127000D02*
X372872000Y-131699000D01*
X371348000Y-133223000D02*
X368554000Y-133223000D01*
X372872000Y-131699000D02*
X371348000Y-133223000D01*
X379476000Y-113665000D02*
X379476000Y-111379000D01*
X379476000Y-111379000D02*
X376174000Y-108077000D01*
X376174000Y-108077000D02*
X368300000Y-108077000D01*
X358648000Y-108077000D02*
X353060000Y-108077000D01*
X353060000Y-108077000D02*
X322834000Y-108077000D01*
X322834000Y-108077000D02*
X320802000Y-110109000D01*
X231902000Y-117348000D02*
X218440000Y-130810000D01*
X247351920Y-111677080D02*
X244729000Y-114300000D01*
X312210080Y-111677080D02*
X247351920Y-111677080D01*
X313436000Y-112903000D02*
X312210080Y-111677080D01*
X243967000Y-117348000D02*
X244729000Y-116586000D01*
X244729000Y-114300000D02*
X244729000Y-116586000D01*
X243967000Y-117348000D02*
X231902000Y-117348000D01*
%TO.N,Net-(A1-Pad14)*%
X356282000Y-121285000D02*
X352552000Y-117555000D01*
X352552000Y-117555000D02*
X352552000Y-113665000D01*
X363220000Y-121285000D02*
X366014000Y-124079000D01*
X356282000Y-121285000D02*
X363220000Y-121285000D01*
X323342000Y-113157000D02*
X320548000Y-113157000D01*
X323850000Y-113665000D02*
X323342000Y-113157000D01*
X352552000Y-113665000D02*
X323850000Y-113665000D01*
X239071990Y-117798010D02*
X226060000Y-130810000D01*
X244153400Y-117798010D02*
X239071990Y-117798010D01*
X245364705Y-116586705D02*
X244153400Y-117798010D01*
X245364705Y-114300705D02*
X245364705Y-116586705D01*
X247524410Y-112141000D02*
X245364705Y-114300705D01*
X309626000Y-112141000D02*
X247524410Y-112141000D01*
X311404000Y-113919000D02*
X309626000Y-112141000D01*
X311404000Y-114681000D02*
X311404000Y-113919000D01*
%TO.N,Net-(A1-Pad15)*%
X245936910Y-116650910D02*
X244339800Y-118248020D01*
X245936910Y-114364910D02*
X245936910Y-116650910D01*
X241161980Y-118248020D02*
X228600000Y-130810000D01*
X244339800Y-118248020D02*
X241161980Y-118248020D01*
%TO.N,Net-(A1-Pad16)*%
X233553000Y-128397000D02*
X231140000Y-130810000D01*
X234827230Y-128397000D02*
X233553000Y-128397000D01*
X247781230Y-115443000D02*
X234827230Y-128397000D01*
X250444000Y-115443000D02*
X247781230Y-115443000D01*
%TO.N,Net-(A1-Pad17)*%
X283021410Y-143065000D02*
X313205000Y-143065000D01*
X273165980Y-144029020D02*
X282057390Y-144029020D01*
X269494000Y-147701000D02*
X273165980Y-144029020D01*
X282057390Y-144029020D02*
X283021410Y-143065000D01*
X257556000Y-147701000D02*
X269494000Y-147701000D01*
X246460028Y-136605028D02*
X257556000Y-147701000D01*
X246460027Y-131393797D02*
X246460028Y-136605028D01*
X243071210Y-128004980D02*
X246460027Y-131393797D01*
X236485020Y-128004980D02*
X243071210Y-128004980D01*
X233680000Y-130810000D02*
X236485020Y-128004980D01*
%TO.N,Net-(A1-Pad18)*%
X238575010Y-128454990D02*
X236220000Y-130810000D01*
X242884810Y-128454990D02*
X238575010Y-128454990D01*
X246010018Y-131580198D02*
X242884810Y-128454990D01*
X246010018Y-137045426D02*
X246010018Y-131580198D01*
X257115599Y-148151009D02*
X246010018Y-137045426D01*
X282387820Y-144335000D02*
X278571811Y-148151009D01*
X278571811Y-148151009D02*
X257115599Y-148151009D01*
X313205000Y-144335000D02*
X282387820Y-144335000D01*
%TO.N,Net-(A1-Pad19)*%
X242698410Y-128905000D02*
X239522000Y-128905000D01*
X245560010Y-137231828D02*
X245560009Y-131766599D01*
X256929198Y-148601018D02*
X245560010Y-137231828D01*
X278758211Y-148601019D02*
X256929198Y-148601018D01*
X281182230Y-146177000D02*
X278758211Y-148601019D01*
X314452000Y-146177000D02*
X281182230Y-146177000D01*
X315468000Y-145161000D02*
X314452000Y-146177000D01*
X315468000Y-130878000D02*
X315468000Y-145161000D01*
X239522000Y-128905000D02*
X238760000Y-129667000D01*
X314955000Y-130365000D02*
X315468000Y-130878000D01*
X238760000Y-129667000D02*
X238760000Y-130810000D01*
X245560009Y-131766599D02*
X242698410Y-128905000D01*
X313205000Y-130365000D02*
X314955000Y-130365000D01*
%TO.N,Net-(A1-Pad20)*%
X245110000Y-137418228D02*
X245110000Y-131953000D01*
X256742797Y-149051027D02*
X245110000Y-137418228D01*
X278944613Y-149051027D02*
X256742797Y-149051027D01*
X243967000Y-130810000D02*
X241300000Y-130810000D01*
X245110000Y-131953000D02*
X243967000Y-130810000D01*
X314638400Y-146627010D02*
X281368630Y-146627010D01*
X315792420Y-145472990D02*
X314638400Y-146627010D01*
X315918010Y-145472990D02*
X315792420Y-145472990D01*
X315918010Y-130643008D02*
X315918010Y-145472990D01*
X281368630Y-146627010D02*
X278944613Y-149051027D01*
X314370002Y-129095000D02*
X315918010Y-130643008D01*
X313205000Y-129095000D02*
X314370002Y-129095000D01*
%TO.N,Net-(A1-Pad24)*%
X239822970Y-109427030D02*
X233680000Y-115570000D01*
X315673620Y-109427030D02*
X239822970Y-109427030D01*
X317049990Y-110803400D02*
X315673620Y-109427030D01*
X319455000Y-143065000D02*
X317049990Y-140659990D01*
X317049990Y-140659990D02*
X317049990Y-110803400D01*
X321205000Y-143065000D02*
X319455000Y-143065000D01*
%TO.N,Net-(A1-Pad25)*%
X237732980Y-108977020D02*
X231140000Y-115570000D01*
X315860020Y-108977020D02*
X237732980Y-108977020D01*
X317500000Y-110617000D02*
X315860020Y-108977020D01*
X317500000Y-139840000D02*
X317500000Y-110617000D01*
X319455000Y-141795000D02*
X317500000Y-139840000D01*
X321205000Y-141795000D02*
X319455000Y-141795000D01*
%TO.N,Net-(A1-Pad26)*%
X316046420Y-108527010D02*
X235642990Y-108527010D01*
X317950009Y-110430599D02*
X316046420Y-108527010D01*
X235642990Y-108527010D02*
X228600000Y-115570000D01*
X317950010Y-115131010D02*
X317950009Y-110430599D01*
X319935000Y-115846000D02*
X318665000Y-115846000D01*
X318665000Y-115846000D02*
X317950010Y-115131010D01*
X321205000Y-117116000D02*
X319935000Y-115846000D01*
X321205000Y-127825000D02*
X321205000Y-117116000D01*
%TO.N,Net-(A1-Pad27)*%
X233553000Y-108077000D02*
X226060000Y-115570000D01*
X316232820Y-108077000D02*
X233553000Y-108077000D01*
X318400018Y-114944608D02*
X318400018Y-110244198D01*
X318851400Y-115395990D02*
X318400018Y-114944608D01*
X320121400Y-115395990D02*
X318851400Y-115395990D01*
X318400018Y-110244198D02*
X316232820Y-108077000D01*
X321655009Y-116929599D02*
X320121400Y-115395990D01*
X321655010Y-125186010D02*
X321655009Y-116929599D01*
X323596000Y-128454000D02*
X323596000Y-127127000D01*
X322955000Y-129095000D02*
X323596000Y-128454000D01*
X323596000Y-127127000D02*
X321655010Y-125186010D01*
X321205000Y-129095000D02*
X322955000Y-129095000D01*
%TO.N,Net-(A1-Pad28)*%
X112205000Y-129095000D02*
X113370002Y-129095000D01*
X216604010Y-108654010D02*
X223520000Y-115570000D01*
X118165170Y-108654010D02*
X216604010Y-108654010D01*
X115177982Y-111641198D02*
X118165170Y-108654010D01*
X115177982Y-127872018D02*
X115177982Y-111641198D01*
X113955000Y-129095000D02*
X115177982Y-127872018D01*
X112205000Y-129095000D02*
X113955000Y-129095000D01*
%TO.N,Net-(A1-Pad29)*%
X214514020Y-109104020D02*
X220980000Y-115570000D01*
X118351570Y-109104020D02*
X214514020Y-109104020D01*
X115627991Y-111827599D02*
X118351570Y-109104020D01*
X115627991Y-128692009D02*
X115627991Y-111827599D01*
X113955000Y-130365000D02*
X115627991Y-128692009D01*
X112205000Y-130365000D02*
X113955000Y-130365000D01*
%TO.N,Net-(A1-Pad30)*%
X212424030Y-109554030D02*
X218440000Y-115570000D01*
X118537970Y-109554030D02*
X212424030Y-109554030D01*
X116078001Y-112013999D02*
X118537970Y-109554030D01*
X116078001Y-140941999D02*
X116078001Y-112013999D01*
X113955000Y-143065000D02*
X116078001Y-140941999D01*
X112205000Y-143065000D02*
X113955000Y-143065000D01*
%TO.N,Net-(A1-Pad31)*%
X118724370Y-110004040D02*
X210334040Y-110004040D01*
X116528011Y-112200399D02*
X118724370Y-110004040D01*
X116528011Y-141761989D02*
X116528011Y-112200399D01*
X210334040Y-110004040D02*
X215900000Y-115570000D01*
X113955000Y-144335000D02*
X116528011Y-141761989D01*
X112205000Y-144335000D02*
X113955000Y-144335000D01*
%TO.N,Net-(A1-Pad32)*%
X208302040Y-110512040D02*
X213360000Y-115570000D01*
X121643960Y-110512040D02*
X208302040Y-110512040D01*
X120205000Y-111951000D02*
X121643960Y-110512040D01*
X120205000Y-127825000D02*
X120205000Y-111951000D01*
%TO.N,Net-(A1-Pad33)*%
X206212050Y-110962050D02*
X210820000Y-115570000D01*
X123479950Y-110962050D02*
X206212050Y-110962050D01*
X122428000Y-112014000D02*
X123479950Y-110962050D01*
X122428000Y-128037002D02*
X122428000Y-112014000D01*
X121370002Y-129095000D02*
X122428000Y-128037002D01*
X120205000Y-129095000D02*
X121370002Y-129095000D01*
%TO.N,Net-(A1-Pad35)*%
X201582060Y-111412060D02*
X205740000Y-115570000D01*
X187706000Y-113792000D02*
X190085940Y-111412060D01*
X187706000Y-139574410D02*
X187706000Y-113792000D01*
X178494401Y-148786009D02*
X187706000Y-139574410D01*
X190085940Y-111412060D02*
X201582060Y-111412060D01*
X137356010Y-148786010D02*
X178494401Y-148786009D01*
X130365000Y-141795000D02*
X137356010Y-148786010D01*
X120205000Y-141795000D02*
X130365000Y-141795000D01*
%TO.N,Net-(A1-Pad36)*%
X199492070Y-111862070D02*
X203200000Y-115570000D01*
X190397930Y-111862070D02*
X199492070Y-111862070D01*
X188214000Y-114046000D02*
X190397930Y-111862070D01*
X188214000Y-139702820D02*
X188214000Y-114046000D01*
X178680802Y-149236018D02*
X188214000Y-139702820D01*
X136536019Y-149236019D02*
X178680802Y-149236018D01*
X130365000Y-143065000D02*
X136536019Y-149236019D01*
X120205000Y-143065000D02*
X130365000Y-143065000D01*
%TO.N,Net-(R1.1-Pad1)*%
X118110000Y-130020000D02*
X118110000Y-118618000D01*
X118455000Y-130365000D02*
X118110000Y-130020000D01*
X120205000Y-130365000D02*
X118455000Y-130365000D01*
%TO.N,Net-(R2.1-Pad1)*%
X319024000Y-118237000D02*
X319024000Y-126365000D01*
X319024000Y-126365000D02*
X318516000Y-126873000D01*
X319455000Y-130365000D02*
X321205000Y-130365000D01*
X318516000Y-129426000D02*
X319455000Y-130365000D01*
X318516000Y-126873000D02*
X318516000Y-129426000D01*
%TO.N,Net-(U1-Pad11)*%
X54610000Y-143510000D02*
X53340000Y-142240000D01*
X55816610Y-143510000D02*
X54610000Y-143510000D01*
X60261610Y-147955000D02*
X55816610Y-143510000D01*
X78359000Y-147955000D02*
X60261610Y-147955000D01*
X85789000Y-140525000D02*
X78359000Y-147955000D01*
X53340000Y-142240000D02*
X53340000Y-140980000D01*
X112205000Y-140525000D02*
X85789000Y-140525000D01*
%TO.N,Net-(U1-Pad18)*%
X152885000Y-140525000D02*
X153340000Y-140980000D01*
X120205000Y-140525000D02*
X152885000Y-140525000D01*
%TO.N,Net-(U1-Pad10)*%
X52584999Y-129015001D02*
X53340000Y-128260000D01*
X52584999Y-129025001D02*
X52584999Y-129015001D01*
X82042000Y-142748000D02*
X57658000Y-142748000D01*
X85535000Y-139255000D02*
X82042000Y-142748000D01*
X112205000Y-139255000D02*
X85535000Y-139255000D01*
X57658000Y-142748000D02*
X52578000Y-137668000D01*
X52070000Y-129540000D02*
X52260500Y-129349500D01*
X52070000Y-137160000D02*
X52070000Y-129540000D01*
X52578000Y-137668000D02*
X52070000Y-137160000D01*
X52260500Y-129349500D02*
X52584999Y-129025001D01*
%TO.N,Net-(U1-Pad19)*%
X144717000Y-139255000D02*
X120205000Y-139255000D01*
X145542000Y-138430000D02*
X144717000Y-139255000D01*
%TO.N,Net-(U1-Pad9)*%
X84275000Y-137985000D02*
X81280000Y-140980000D01*
X112205000Y-137985000D02*
X84275000Y-137985000D01*
%TO.N,Net-(U1-Pad20)*%
X120205000Y-137985000D02*
X128587000Y-137985000D01*
X128778000Y-138176000D02*
X129540000Y-138176000D01*
X128587000Y-137985000D02*
X128778000Y-138176000D01*
X133161001Y-142305001D02*
X132588000Y-141732000D01*
X148655001Y-142305001D02*
X133161001Y-142305001D01*
X149860000Y-143510000D02*
X148655001Y-142305001D01*
X157734000Y-143510000D02*
X149860000Y-143510000D01*
X160264000Y-140980000D02*
X157734000Y-143510000D01*
X181280000Y-140980000D02*
X160264000Y-140980000D01*
%TO.N,Net-(U1-Pad8)*%
X81280000Y-128260000D02*
X81280000Y-130048000D01*
X81280000Y-130048000D02*
X83312000Y-132080000D01*
X112205000Y-136715000D02*
X90233000Y-136715000D01*
%TO.N,Net-(U1-Pad21)*%
X152002997Y-137123001D02*
X155267998Y-140388002D01*
X120613001Y-137123001D02*
X152002997Y-137123001D01*
X120205000Y-136715000D02*
X120613001Y-137123001D01*
X181280000Y-128260000D02*
X181280000Y-131140000D01*
X181280000Y-131140000D02*
X175006000Y-137414000D01*
X175006000Y-138684000D02*
X173301998Y-140388002D01*
X175006000Y-137414000D02*
X175006000Y-138684000D01*
X155267998Y-140388002D02*
X173301998Y-140388002D01*
%TO.N,Net-(U1-Pad7)*%
X76708000Y-132842000D02*
X77414999Y-132135001D01*
X76708000Y-139192000D02*
X76708000Y-132842000D01*
X79248000Y-140462000D02*
X77978000Y-140462000D01*
X77978000Y-140462000D02*
X76708000Y-139192000D01*
X84265000Y-135445000D02*
X79248000Y-140462000D01*
X77414999Y-132135001D02*
X78740000Y-130810000D01*
X112205000Y-135445000D02*
X84265000Y-135445000D01*
%TO.N,Net-(U1-Pad22)*%
X120205000Y-135445000D02*
X148907000Y-135445000D01*
X171882000Y-137668000D02*
X178740000Y-130810000D01*
X158496000Y-137668000D02*
X171882000Y-137668000D01*
X148907000Y-135445000D02*
X148907000Y-135445000D01*
%TO.N,Net-(U1-Pad6)*%
X112205000Y-134175000D02*
X84265000Y-134175000D01*
X80010000Y-138430000D02*
X78740000Y-138430000D01*
X84265000Y-134175000D02*
X80010000Y-138430000D01*
%TO.N,Net-(U1-Pad23)*%
X121370002Y-134175000D02*
X120205000Y-134175000D01*
X141541000Y-134175000D02*
X141478000Y-134112000D01*
X120268000Y-134112000D02*
X120205000Y-134175000D01*
X141478000Y-134112000D02*
X120268000Y-134112000D01*
X182118000Y-138430000D02*
X178740000Y-138430000D01*
X183388000Y-143256000D02*
X183388000Y-139700000D01*
X164846000Y-148336000D02*
X178308000Y-148336000D01*
X183388000Y-139700000D02*
X182118000Y-138430000D01*
X163705001Y-147195001D02*
X164846000Y-148336000D01*
X178308000Y-148336000D02*
X183388000Y-143256000D01*
X147703001Y-147195001D02*
X163705001Y-147195001D01*
X144018000Y-143510000D02*
X147703001Y-147195001D01*
%TO.N,Net-(U1-Pad5)*%
X56315001Y-131245001D02*
X55880000Y-130810000D01*
X87886002Y-132905000D02*
X112205000Y-132905000D01*
X86677000Y-132905000D02*
X87886002Y-132905000D01*
X85344000Y-131572000D02*
X86677000Y-132905000D01*
X82550000Y-126492000D02*
X85344000Y-129286000D01*
X80017589Y-126934999D02*
X80075001Y-126934999D01*
X80518000Y-126492000D02*
X82550000Y-126492000D01*
X72527008Y-134425580D02*
X80017589Y-126934999D01*
X69850000Y-137160000D02*
X72527008Y-134482992D01*
X85344000Y-129286000D02*
X85344000Y-131572000D01*
X80075001Y-126934999D02*
X80518000Y-126492000D01*
X62230000Y-137160000D02*
X69850000Y-137160000D01*
X72527008Y-134482992D02*
X72527008Y-134425580D01*
X55880000Y-130810000D02*
X62230000Y-137160000D01*
%TO.N,Net-(U1-Pad24)*%
X120205000Y-132905000D02*
X147257000Y-132905000D01*
%TO.N,Net-(U1-Pad4)*%
X87947000Y-131635000D02*
X86614000Y-130302000D01*
X112205000Y-131635000D02*
X87947000Y-131635000D01*
X74168000Y-138430000D02*
X55880000Y-138430000D01*
X75692000Y-136906000D02*
X74168000Y-138430000D01*
%TO.N,Net-(U1-Pad25)*%
X154559000Y-138430000D02*
X155880000Y-138430000D01*
X151130000Y-135001000D02*
X154559000Y-138430000D01*
X151130000Y-132461000D02*
X151130000Y-135001000D01*
X150304000Y-131635000D02*
X151130000Y-132461000D01*
X120205000Y-131635000D02*
X150304000Y-131635000D01*
%TO.N,Net-(U2-Pad25)*%
X321269000Y-131699000D02*
X321205000Y-131635000D01*
X339598000Y-131699000D02*
X321269000Y-131699000D01*
%TO.N,Net-(U2-Pad4)*%
X285813000Y-131635000D02*
X285750000Y-131572000D01*
X313205000Y-131635000D02*
X285813000Y-131635000D01*
X273177000Y-138430000D02*
X255880000Y-138430000D01*
X277495000Y-134112000D02*
X273177000Y-138430000D01*
%TO.N,Net-(U2-Pad24)*%
X346969770Y-128260000D02*
X353340000Y-128260000D01*
X342324770Y-132905000D02*
X346969770Y-128260000D01*
X321205000Y-132905000D02*
X342324770Y-132905000D01*
%TO.N,Net-(U2-Pad5)*%
X279401410Y-128778000D02*
X278004410Y-128778000D01*
X283528410Y-132905000D02*
X279401410Y-128778000D01*
X313205000Y-132905000D02*
X283528410Y-132905000D01*
X278004410Y-128778000D02*
X271400410Y-135382000D01*
X260452000Y-135382000D02*
X255880000Y-130810000D01*
X271400410Y-135382000D02*
X260452000Y-135382000D01*
%TO.N,Net-(U2-Pad23)*%
X326326000Y-134175000D02*
X326390000Y-134239000D01*
X321205000Y-134175000D02*
X326326000Y-134175000D01*
X379385000Y-142875000D02*
X381280000Y-140980000D01*
X330200000Y-142875000D02*
X379385000Y-142875000D01*
X328930000Y-141605000D02*
X330200000Y-142875000D01*
%TO.N,Net-(U2-Pad6)*%
X287083000Y-134175000D02*
X287020000Y-134112000D01*
X313205000Y-134175000D02*
X287083000Y-134175000D01*
%TO.N,Net-(U2-Pad22)*%
X340421180Y-135445000D02*
X343405180Y-132461000D01*
X321205000Y-135445000D02*
X340421180Y-135445000D01*
X359410000Y-132461000D02*
X361753990Y-134804990D01*
X343405180Y-132461000D02*
X359410000Y-132461000D01*
X361753990Y-134804990D02*
X372052010Y-134804990D01*
X378597000Y-128260000D02*
X381280000Y-128260000D01*
X372052010Y-134804990D02*
X378597000Y-128260000D01*
%TO.N,Net-(U2-Pad7)*%
X313205000Y-135445000D02*
X285432000Y-135445000D01*
X280797000Y-130810000D02*
X278740000Y-130810000D01*
X285432000Y-135445000D02*
X280797000Y-130810000D01*
%TO.N,Net-(U2-Pad21)*%
X339787590Y-136715000D02*
X343533590Y-132969000D01*
X321205000Y-136715000D02*
X339787590Y-136715000D01*
X343533590Y-132969000D02*
X358902000Y-132969000D01*
X358902000Y-132969000D02*
X361188000Y-135255000D01*
X374295000Y-135255000D02*
X378740000Y-130810000D01*
X361188000Y-135255000D02*
X374295000Y-135255000D01*
%TO.N,Net-(U2-Pad8)*%
X308801000Y-136715000D02*
X308864000Y-136652000D01*
X313205000Y-136715000D02*
X308801000Y-136715000D01*
X281290000Y-128270000D02*
X281280000Y-128260000D01*
X303657000Y-128270000D02*
X281290000Y-128270000D01*
X305181000Y-129794000D02*
X303657000Y-128270000D01*
%TO.N,Net-(U2-Pad20)*%
X376835000Y-136525000D02*
X378740000Y-138430000D01*
X340614000Y-136525000D02*
X376835000Y-136525000D01*
X339154000Y-137985000D02*
X340614000Y-136525000D01*
X321205000Y-137985000D02*
X339154000Y-137985000D01*
%TO.N,Net-(U2-Pad9)*%
X284275000Y-137985000D02*
X281280000Y-140980000D01*
X313205000Y-137985000D02*
X284275000Y-137985000D01*
%TO.N,Net-(U2-Pad19)*%
X321205000Y-139255000D02*
X343953000Y-139255000D01*
X348298000Y-139255000D02*
X349250000Y-138303000D01*
X343953000Y-139255000D02*
X348298000Y-139255000D01*
%TO.N,Net-(U2-Pad10)*%
X285558590Y-139255000D02*
X313205000Y-139255000D01*
X251968000Y-129632000D02*
X251968000Y-137033000D01*
X253340000Y-128260000D02*
X251968000Y-129632000D01*
X285558590Y-139255000D02*
X281684590Y-143129000D01*
X281684590Y-143129000D02*
X273558000Y-143129000D01*
X273558000Y-143129000D02*
X270764000Y-140335000D01*
X270764000Y-140335000D02*
X255270000Y-140335000D01*
X255270000Y-140335000D02*
X251968000Y-137033000D01*
%TO.N,Net-(U2-Pad18)*%
X321205000Y-140525000D02*
X349822000Y-140525000D01*
X351917000Y-138430000D02*
X355880000Y-138430000D01*
X349822000Y-140525000D02*
X351917000Y-138430000D01*
%TO.N,Net-(U2-Pad11)*%
X313205000Y-140525000D02*
X284925000Y-140525000D01*
X281870990Y-143579010D02*
X271468010Y-143579010D01*
X284925000Y-140525000D02*
X281870990Y-143579010D01*
X268869000Y-140980000D02*
X253340000Y-140980000D01*
X271468010Y-143579010D02*
X268869000Y-140980000D01*
%TO.N,/GND*%
X109029000Y-141795000D02*
X108966000Y-141732000D01*
X112205000Y-141795000D02*
X109029000Y-141795000D01*
X309690000Y-141795000D02*
X309626000Y-141859000D01*
X313205000Y-141795000D02*
X309690000Y-141795000D01*
%TO.N,/5V*%
X77724000Y-112776000D02*
X77724000Y-111760000D01*
X81534000Y-116586000D02*
X77724000Y-112776000D01*
X64770000Y-116586000D02*
X64770000Y-115316000D01*
X64770000Y-115316000D02*
X61468000Y-112014000D01*
X110299000Y-127825000D02*
X107950000Y-125476000D01*
X112205000Y-127825000D02*
X110299000Y-127825000D01*
X107950000Y-125476000D02*
X107950000Y-118618000D01*
X107950000Y-118618000D02*
X107950000Y-110490000D01*
D22*
X81788000Y-105918000D02*
X110490000Y-105918000D01*
D21*
X147574000Y-120904000D02*
X143764000Y-117094000D01*
X147574000Y-123190000D02*
X147574000Y-120904000D01*
X77724000Y-108458000D02*
X79756000Y-106426000D01*
X77724000Y-111760000D02*
X77724000Y-108458000D01*
D22*
X65024000Y-105918000D02*
X80264000Y-105918000D01*
D21*
X109347000Y-107061000D02*
X109982000Y-106426000D01*
D22*
X81788000Y-105918000D02*
X80264000Y-105918000D01*
D21*
X79756000Y-106426000D02*
X80264000Y-105918000D01*
X64516000Y-106426000D02*
X65024000Y-105918000D01*
X61468000Y-109474000D02*
X64516000Y-106426000D01*
X61468000Y-112014000D02*
X61468000Y-109474000D01*
X109982000Y-106426000D02*
X110490000Y-105918000D01*
D22*
X146558000Y-105918000D02*
X147066000Y-105918000D01*
D21*
X163576000Y-117094000D02*
X162814000Y-117856000D01*
X163576000Y-113792000D02*
X163576000Y-117094000D01*
X163576000Y-113792000D02*
X160782000Y-113792000D01*
X160782000Y-113792000D02*
X160020000Y-113030000D01*
D22*
X161036000Y-105918000D02*
X160020000Y-105918000D01*
X185420000Y-105918000D02*
X161036000Y-105918000D01*
X145796000Y-105918000D02*
X146558000Y-105918000D01*
X110490000Y-105918000D02*
X143510000Y-105918000D01*
X160020000Y-105918000D02*
X147066000Y-105918000D01*
D21*
X144780000Y-105918000D02*
X145034000Y-105918000D01*
X143764000Y-106934000D02*
X144780000Y-105918000D01*
D22*
X145034000Y-105918000D02*
X145796000Y-105918000D01*
X143510000Y-105918000D02*
X145034000Y-105918000D01*
D21*
X160020000Y-106934000D02*
X161036000Y-105918000D01*
X66040000Y-132349430D02*
X66040000Y-133350000D01*
X66817430Y-131572000D02*
X66040000Y-132349430D01*
X70358000Y-131572000D02*
X66817430Y-131572000D01*
X72898000Y-129032000D02*
X70358000Y-131572000D01*
X72898000Y-125222000D02*
X72898000Y-129032000D01*
X81534000Y-116586000D02*
X72898000Y-125222000D01*
X68580000Y-120396000D02*
X68580000Y-123952000D01*
X64770000Y-116586000D02*
X68580000Y-120396000D01*
X224028000Y-141732000D02*
X220726000Y-138430000D01*
X215900000Y-138430000D02*
X214630000Y-137160000D01*
X220726000Y-138430000D02*
X215900000Y-138430000D01*
X214630000Y-137160000D02*
X214630000Y-141732000D01*
D22*
X123190000Y-147320000D02*
X120205000Y-144335000D01*
X124460000Y-147320000D02*
X123190000Y-147320000D01*
X124460000Y-147320000D02*
X127508000Y-150368000D01*
X239014000Y-107188000D02*
X239014000Y-105918000D01*
X239014000Y-105918000D02*
X241300000Y-105918000D01*
X185420000Y-105918000D02*
X239014000Y-105918000D01*
D21*
X168656000Y-123952000D02*
X168656000Y-122682000D01*
X163830000Y-117856000D02*
X162814000Y-117856000D01*
X168656000Y-122682000D02*
X163830000Y-117856000D01*
X164592000Y-134874000D02*
X166116000Y-133350000D01*
X156718000Y-134874000D02*
X164592000Y-134874000D01*
X147574000Y-125730000D02*
X156718000Y-134874000D01*
X147574000Y-123190000D02*
X147574000Y-125730000D01*
X268732000Y-122951430D02*
X268732000Y-123952000D01*
X264906570Y-119126000D02*
X268732000Y-122951430D01*
X259080000Y-119126000D02*
X264906570Y-119126000D01*
D22*
X241300000Y-105918000D02*
X258064000Y-105918000D01*
D21*
X277114000Y-120269000D02*
X272288000Y-125095000D01*
X272288000Y-125095000D02*
X272288000Y-129667000D01*
X272288000Y-129667000D02*
X270256000Y-131699000D01*
X266192000Y-132349430D02*
X266192000Y-133350000D01*
X266842430Y-131699000D02*
X266192000Y-132349430D01*
X270256000Y-131699000D02*
X266842430Y-131699000D01*
X277114000Y-120269000D02*
X279781000Y-117602000D01*
X279781000Y-117602000D02*
X279781000Y-115443000D01*
X259080000Y-116967000D02*
X260604000Y-115443000D01*
X259080000Y-119126000D02*
X259080000Y-116967000D01*
X259461000Y-105918000D02*
X258953000Y-105918000D01*
X260604000Y-107061000D02*
X259461000Y-105918000D01*
D22*
X258064000Y-105918000D02*
X258953000Y-105918000D01*
D21*
X278511000Y-105918000D02*
X277749000Y-105918000D01*
X279654000Y-107061000D02*
X278511000Y-105918000D01*
D22*
X258953000Y-105918000D02*
X277749000Y-105918000D01*
D21*
X307848000Y-125095000D02*
X310642000Y-127889000D01*
X313141000Y-127889000D02*
X313205000Y-127825000D01*
X310642000Y-127889000D02*
X313141000Y-127889000D01*
X307848000Y-119253000D02*
X308864000Y-118237000D01*
X307848000Y-125095000D02*
X307848000Y-119253000D01*
X308102000Y-107061000D02*
X306959000Y-105918000D01*
X306959000Y-105918000D02*
X306451000Y-105918000D01*
D22*
X277749000Y-105918000D02*
X306451000Y-105918000D01*
D21*
X362712000Y-117221000D02*
X362712000Y-113665000D01*
X368554000Y-123063000D02*
X368554000Y-124079000D01*
X362712000Y-117221000D02*
X368554000Y-123063000D01*
X369316000Y-114681000D02*
X369316000Y-113665000D01*
X371856000Y-117221000D02*
X369316000Y-114681000D01*
X371856000Y-117221000D02*
X371856000Y-129667000D01*
X371856000Y-129667000D02*
X369824000Y-131699000D01*
X366014000Y-132222430D02*
X366014000Y-133223000D01*
X366537430Y-131699000D02*
X366014000Y-132222430D01*
X369824000Y-131699000D02*
X366537430Y-131699000D01*
X362712000Y-110109000D02*
X358521000Y-105918000D01*
X362712000Y-113665000D02*
X362712000Y-110109000D01*
D22*
X306451000Y-105918000D02*
X358521000Y-105918000D01*
D21*
X369316000Y-111379000D02*
X363855000Y-105918000D01*
X369316000Y-113665000D02*
X369316000Y-111379000D01*
D22*
X358521000Y-105918000D02*
X363855000Y-105918000D01*
X321183000Y-150368000D02*
X323850000Y-147701000D01*
X323850000Y-147701000D02*
X323850000Y-144907000D01*
X323278000Y-144335000D02*
X321205000Y-144335000D01*
X323850000Y-144907000D02*
X323278000Y-144335000D01*
X199009000Y-142240000D02*
X195580000Y-142240000D01*
X192405000Y-142240000D02*
X184277000Y-150368000D01*
X195580000Y-142240000D02*
X192405000Y-142240000D01*
X127508000Y-150368000D02*
X184277000Y-150368000D01*
X201739500Y-144970500D02*
X200660000Y-143891000D01*
X220789500Y-144970500D02*
X201739500Y-144970500D01*
X200660000Y-143891000D02*
X199009000Y-142240000D01*
X220789500Y-144970500D02*
X224028000Y-141732000D01*
X241681000Y-142240000D02*
X243586000Y-140335000D01*
D21*
X240030000Y-142240000D02*
X241681000Y-142240000D01*
D22*
X243586000Y-140335000D02*
X243586000Y-132715000D01*
X240030000Y-142240000D02*
X243459000Y-142240000D01*
X243459000Y-142240000D02*
X251587000Y-150368000D01*
X251587000Y-150368000D02*
X321183000Y-150368000D01*
X226123500Y-143827500D02*
X238442500Y-143827500D01*
D21*
X238442500Y-143827500D02*
X238569500Y-143700500D01*
D22*
X238569500Y-143700500D02*
X240030000Y-142240000D01*
X224028000Y-141732000D02*
X226123500Y-143827500D01*
X243586000Y-126746000D02*
X243586000Y-122047000D01*
%TD*%
M02*
