%TF.GenerationSoftware,KiCad,Pcbnew,(5.1.9)-1*%
%TF.CreationDate,2021-03-23T10:31:45+01:00*%
%TF.ProjectId,pcb rev1,70636220-7265-4763-912e-6b696361645f,rev?*%
%TF.SameCoordinates,Original*%
%TF.FileFunction,Legend,Top*%
%TF.FilePolarity,Positive*%
%FSLAX46Y46*%
G04 Gerber Fmt 4.6, Leading zero omitted, Abs format (unit mm)*
G04 Created by KiCad (PCBNEW (5.1.9)-1) date 2021-03-23 10:31:45*
%MOMM*%
%LPD*%
G01*
G04 APERTURE LIST*
%ADD10C,0.120000*%
%ADD11C,0.150000*%
G04 APERTURE END LIST*
D10*
%TO.C,X2.1*%
X282510000Y-134620000D02*
G75*
G03*
X282510000Y-134620000I-15200000J0D01*
G01*
%TO.C,U1*%
X110205000Y-127775000D02*
X111005000Y-126975000D01*
X111005000Y-126975000D02*
X122205000Y-126975000D01*
X122205000Y-126975000D02*
X122205000Y-145185000D01*
X122205000Y-145185000D02*
X110205000Y-145185000D01*
X110205000Y-145185000D02*
X110205000Y-127775000D01*
%TO.C,A1*%
X191710000Y-129480000D02*
X191710000Y-114240000D01*
X242630000Y-114240000D02*
X242630000Y-132140000D01*
X191710000Y-114240000D02*
X242630000Y-114240000D01*
X242630000Y-132140000D02*
X194310000Y-132140000D01*
X191710000Y-129480000D02*
X242630000Y-129480000D01*
X242630000Y-116900000D02*
X191710000Y-116900000D01*
X194310000Y-132140000D02*
X194310000Y-129480000D01*
X191710000Y-130810000D02*
X191710000Y-132140000D01*
X191710000Y-132140000D02*
X193040000Y-132140000D01*
%TO.C,C1.8*%
X148194000Y-124560000D02*
X141954000Y-124560000D01*
X148194000Y-121820000D02*
X141954000Y-121820000D01*
X148194000Y-124560000D02*
X148194000Y-124115000D01*
X148194000Y-122265000D02*
X148194000Y-121820000D01*
X141954000Y-124560000D02*
X141954000Y-124115000D01*
X141954000Y-122265000D02*
X141954000Y-121820000D01*
%TO.C,C1.2*%
X123840000Y-145950000D02*
X130080000Y-145950000D01*
X123840000Y-148690000D02*
X130080000Y-148690000D01*
X123840000Y-145950000D02*
X123840000Y-146395000D01*
X123840000Y-148245000D02*
X123840000Y-148690000D01*
X130080000Y-145950000D02*
X130080000Y-146395000D01*
X130080000Y-148245000D02*
X130080000Y-148690000D01*
%TO.C,C1.7*%
X73518000Y-117956000D02*
X67278000Y-117956000D01*
X73518000Y-115216000D02*
X67278000Y-115216000D01*
X73518000Y-117956000D02*
X73518000Y-117511000D01*
X73518000Y-115661000D02*
X73518000Y-115216000D01*
X67278000Y-117956000D02*
X67278000Y-117511000D01*
X67278000Y-115661000D02*
X67278000Y-115216000D01*
%TO.C,C1.9*%
X156068000Y-123290000D02*
X149828000Y-123290000D01*
X156068000Y-120550000D02*
X149828000Y-120550000D01*
X156068000Y-123290000D02*
X156068000Y-122845000D01*
X156068000Y-120995000D02*
X156068000Y-120550000D01*
X149828000Y-123290000D02*
X149828000Y-122845000D01*
X149828000Y-120995000D02*
X149828000Y-120550000D01*
%TO.C,C1.1*%
X198850000Y-140990000D02*
G75*
G03*
X198850000Y-140990000I-3270000J0D01*
G01*
X192350000Y-140990000D02*
X198810000Y-140990000D01*
X192350000Y-140950000D02*
X198810000Y-140950000D01*
X192350000Y-140910000D02*
X198810000Y-140910000D01*
X192352000Y-140870000D02*
X198808000Y-140870000D01*
X192353000Y-140830000D02*
X198807000Y-140830000D01*
X192356000Y-140790000D02*
X198804000Y-140790000D01*
X192358000Y-140750000D02*
X194540000Y-140750000D01*
X196620000Y-140750000D02*
X198802000Y-140750000D01*
X192362000Y-140710000D02*
X194540000Y-140710000D01*
X196620000Y-140710000D02*
X198798000Y-140710000D01*
X192365000Y-140670000D02*
X194540000Y-140670000D01*
X196620000Y-140670000D02*
X198795000Y-140670000D01*
X192369000Y-140630000D02*
X194540000Y-140630000D01*
X196620000Y-140630000D02*
X198791000Y-140630000D01*
X192374000Y-140590000D02*
X194540000Y-140590000D01*
X196620000Y-140590000D02*
X198786000Y-140590000D01*
X192379000Y-140550000D02*
X194540000Y-140550000D01*
X196620000Y-140550000D02*
X198781000Y-140550000D01*
X192385000Y-140510000D02*
X194540000Y-140510000D01*
X196620000Y-140510000D02*
X198775000Y-140510000D01*
X192391000Y-140470000D02*
X194540000Y-140470000D01*
X196620000Y-140470000D02*
X198769000Y-140470000D01*
X192398000Y-140430000D02*
X194540000Y-140430000D01*
X196620000Y-140430000D02*
X198762000Y-140430000D01*
X192405000Y-140390000D02*
X194540000Y-140390000D01*
X196620000Y-140390000D02*
X198755000Y-140390000D01*
X192413000Y-140350000D02*
X194540000Y-140350000D01*
X196620000Y-140350000D02*
X198747000Y-140350000D01*
X192421000Y-140310000D02*
X194540000Y-140310000D01*
X196620000Y-140310000D02*
X198739000Y-140310000D01*
X192430000Y-140269000D02*
X194540000Y-140269000D01*
X196620000Y-140269000D02*
X198730000Y-140269000D01*
X192439000Y-140229000D02*
X194540000Y-140229000D01*
X196620000Y-140229000D02*
X198721000Y-140229000D01*
X192449000Y-140189000D02*
X194540000Y-140189000D01*
X196620000Y-140189000D02*
X198711000Y-140189000D01*
X192459000Y-140149000D02*
X194540000Y-140149000D01*
X196620000Y-140149000D02*
X198701000Y-140149000D01*
X192470000Y-140109000D02*
X194540000Y-140109000D01*
X196620000Y-140109000D02*
X198690000Y-140109000D01*
X192482000Y-140069000D02*
X194540000Y-140069000D01*
X196620000Y-140069000D02*
X198678000Y-140069000D01*
X192494000Y-140029000D02*
X194540000Y-140029000D01*
X196620000Y-140029000D02*
X198666000Y-140029000D01*
X192506000Y-139989000D02*
X194540000Y-139989000D01*
X196620000Y-139989000D02*
X198654000Y-139989000D01*
X192519000Y-139949000D02*
X194540000Y-139949000D01*
X196620000Y-139949000D02*
X198641000Y-139949000D01*
X192533000Y-139909000D02*
X194540000Y-139909000D01*
X196620000Y-139909000D02*
X198627000Y-139909000D01*
X192547000Y-139869000D02*
X194540000Y-139869000D01*
X196620000Y-139869000D02*
X198613000Y-139869000D01*
X192562000Y-139829000D02*
X194540000Y-139829000D01*
X196620000Y-139829000D02*
X198598000Y-139829000D01*
X192578000Y-139789000D02*
X194540000Y-139789000D01*
X196620000Y-139789000D02*
X198582000Y-139789000D01*
X192594000Y-139749000D02*
X194540000Y-139749000D01*
X196620000Y-139749000D02*
X198566000Y-139749000D01*
X192610000Y-139709000D02*
X194540000Y-139709000D01*
X196620000Y-139709000D02*
X198550000Y-139709000D01*
X192628000Y-139669000D02*
X194540000Y-139669000D01*
X196620000Y-139669000D02*
X198532000Y-139669000D01*
X192646000Y-139629000D02*
X194540000Y-139629000D01*
X196620000Y-139629000D02*
X198514000Y-139629000D01*
X192664000Y-139589000D02*
X194540000Y-139589000D01*
X196620000Y-139589000D02*
X198496000Y-139589000D01*
X192684000Y-139549000D02*
X194540000Y-139549000D01*
X196620000Y-139549000D02*
X198476000Y-139549000D01*
X192704000Y-139509000D02*
X194540000Y-139509000D01*
X196620000Y-139509000D02*
X198456000Y-139509000D01*
X192724000Y-139469000D02*
X194540000Y-139469000D01*
X196620000Y-139469000D02*
X198436000Y-139469000D01*
X192746000Y-139429000D02*
X194540000Y-139429000D01*
X196620000Y-139429000D02*
X198414000Y-139429000D01*
X192768000Y-139389000D02*
X194540000Y-139389000D01*
X196620000Y-139389000D02*
X198392000Y-139389000D01*
X192790000Y-139349000D02*
X194540000Y-139349000D01*
X196620000Y-139349000D02*
X198370000Y-139349000D01*
X192814000Y-139309000D02*
X194540000Y-139309000D01*
X196620000Y-139309000D02*
X198346000Y-139309000D01*
X192838000Y-139269000D02*
X194540000Y-139269000D01*
X196620000Y-139269000D02*
X198322000Y-139269000D01*
X192864000Y-139229000D02*
X194540000Y-139229000D01*
X196620000Y-139229000D02*
X198296000Y-139229000D01*
X192890000Y-139189000D02*
X194540000Y-139189000D01*
X196620000Y-139189000D02*
X198270000Y-139189000D01*
X192916000Y-139149000D02*
X194540000Y-139149000D01*
X196620000Y-139149000D02*
X198244000Y-139149000D01*
X192944000Y-139109000D02*
X194540000Y-139109000D01*
X196620000Y-139109000D02*
X198216000Y-139109000D01*
X192973000Y-139069000D02*
X194540000Y-139069000D01*
X196620000Y-139069000D02*
X198187000Y-139069000D01*
X193002000Y-139029000D02*
X194540000Y-139029000D01*
X196620000Y-139029000D02*
X198158000Y-139029000D01*
X193032000Y-138989000D02*
X194540000Y-138989000D01*
X196620000Y-138989000D02*
X198128000Y-138989000D01*
X193064000Y-138949000D02*
X194540000Y-138949000D01*
X196620000Y-138949000D02*
X198096000Y-138949000D01*
X193096000Y-138909000D02*
X194540000Y-138909000D01*
X196620000Y-138909000D02*
X198064000Y-138909000D01*
X193130000Y-138869000D02*
X194540000Y-138869000D01*
X196620000Y-138869000D02*
X198030000Y-138869000D01*
X193164000Y-138829000D02*
X194540000Y-138829000D01*
X196620000Y-138829000D02*
X197996000Y-138829000D01*
X193200000Y-138789000D02*
X194540000Y-138789000D01*
X196620000Y-138789000D02*
X197960000Y-138789000D01*
X193237000Y-138749000D02*
X194540000Y-138749000D01*
X196620000Y-138749000D02*
X197923000Y-138749000D01*
X193275000Y-138709000D02*
X194540000Y-138709000D01*
X196620000Y-138709000D02*
X197885000Y-138709000D01*
X193315000Y-138669000D02*
X197845000Y-138669000D01*
X193356000Y-138629000D02*
X197804000Y-138629000D01*
X193398000Y-138589000D02*
X197762000Y-138589000D01*
X193443000Y-138549000D02*
X197717000Y-138549000D01*
X193488000Y-138509000D02*
X197672000Y-138509000D01*
X193536000Y-138469000D02*
X197624000Y-138469000D01*
X193585000Y-138429000D02*
X197575000Y-138429000D01*
X193636000Y-138389000D02*
X197524000Y-138389000D01*
X193690000Y-138349000D02*
X197470000Y-138349000D01*
X193746000Y-138309000D02*
X197414000Y-138309000D01*
X193804000Y-138269000D02*
X197356000Y-138269000D01*
X193866000Y-138229000D02*
X197294000Y-138229000D01*
X193930000Y-138189000D02*
X197230000Y-138189000D01*
X193999000Y-138149000D02*
X197161000Y-138149000D01*
X194071000Y-138109000D02*
X197089000Y-138109000D01*
X194148000Y-138069000D02*
X197012000Y-138069000D01*
X194230000Y-138029000D02*
X196930000Y-138029000D01*
X194318000Y-137989000D02*
X196842000Y-137989000D01*
X194415000Y-137949000D02*
X196745000Y-137949000D01*
X194521000Y-137909000D02*
X196639000Y-137909000D01*
X194640000Y-137869000D02*
X196520000Y-137869000D01*
X194778000Y-137829000D02*
X196382000Y-137829000D01*
X194947000Y-137789000D02*
X196213000Y-137789000D01*
X195178000Y-137749000D02*
X195982000Y-137749000D01*
X193741000Y-144490241D02*
X193741000Y-143860241D01*
X193426000Y-144175241D02*
X194056000Y-144175241D01*
%TO.C,C1.10*%
X163434000Y-119226000D02*
X157194000Y-119226000D01*
X163434000Y-116486000D02*
X157194000Y-116486000D01*
X163434000Y-119226000D02*
X163434000Y-118781000D01*
X163434000Y-116931000D02*
X163434000Y-116486000D01*
X157194000Y-119226000D02*
X157194000Y-118781000D01*
X157194000Y-116931000D02*
X157194000Y-116486000D01*
%TO.C,C1.11*%
X179690000Y-119226000D02*
X173450000Y-119226000D01*
X179690000Y-116486000D02*
X173450000Y-116486000D01*
X179690000Y-119226000D02*
X179690000Y-118781000D01*
X179690000Y-116931000D02*
X179690000Y-116486000D01*
X173450000Y-119226000D02*
X173450000Y-118781000D01*
X173450000Y-116931000D02*
X173450000Y-116486000D01*
%TO.C,C1.4*%
X82154000Y-117956000D02*
X75914000Y-117956000D01*
X82154000Y-115216000D02*
X75914000Y-115216000D01*
X82154000Y-117956000D02*
X82154000Y-117511000D01*
X82154000Y-115661000D02*
X82154000Y-115216000D01*
X75914000Y-117956000D02*
X75914000Y-117511000D01*
X75914000Y-115661000D02*
X75914000Y-115216000D01*
%TO.C,C1.5*%
X90028000Y-117956000D02*
X83788000Y-117956000D01*
X90028000Y-115216000D02*
X83788000Y-115216000D01*
X90028000Y-117956000D02*
X90028000Y-117511000D01*
X90028000Y-115661000D02*
X90028000Y-115216000D01*
X83788000Y-117956000D02*
X83788000Y-117511000D01*
X83788000Y-115661000D02*
X83788000Y-115216000D01*
%TO.C,C1.6*%
X65390000Y-117956000D02*
X59150000Y-117956000D01*
X65390000Y-115216000D02*
X59150000Y-115216000D01*
X65390000Y-117956000D02*
X65390000Y-117511000D01*
X65390000Y-115661000D02*
X65390000Y-115216000D01*
X59150000Y-117956000D02*
X59150000Y-117511000D01*
X59150000Y-115661000D02*
X59150000Y-115216000D01*
%TO.C,C1.3*%
X108570000Y-126846000D02*
X102330000Y-126846000D01*
X108570000Y-124106000D02*
X102330000Y-124106000D01*
X108570000Y-126846000D02*
X108570000Y-126401000D01*
X108570000Y-124551000D02*
X108570000Y-124106000D01*
X102330000Y-126846000D02*
X102330000Y-126401000D01*
X102330000Y-124551000D02*
X102330000Y-124106000D01*
%TO.C,C2.1*%
X243300000Y-140990000D02*
G75*
G03*
X243300000Y-140990000I-3270000J0D01*
G01*
X236800000Y-140990000D02*
X243260000Y-140990000D01*
X236800000Y-140950000D02*
X243260000Y-140950000D01*
X236800000Y-140910000D02*
X243260000Y-140910000D01*
X236802000Y-140870000D02*
X243258000Y-140870000D01*
X236803000Y-140830000D02*
X243257000Y-140830000D01*
X236806000Y-140790000D02*
X243254000Y-140790000D01*
X236808000Y-140750000D02*
X238990000Y-140750000D01*
X241070000Y-140750000D02*
X243252000Y-140750000D01*
X236812000Y-140710000D02*
X238990000Y-140710000D01*
X241070000Y-140710000D02*
X243248000Y-140710000D01*
X236815000Y-140670000D02*
X238990000Y-140670000D01*
X241070000Y-140670000D02*
X243245000Y-140670000D01*
X236819000Y-140630000D02*
X238990000Y-140630000D01*
X241070000Y-140630000D02*
X243241000Y-140630000D01*
X236824000Y-140590000D02*
X238990000Y-140590000D01*
X241070000Y-140590000D02*
X243236000Y-140590000D01*
X236829000Y-140550000D02*
X238990000Y-140550000D01*
X241070000Y-140550000D02*
X243231000Y-140550000D01*
X236835000Y-140510000D02*
X238990000Y-140510000D01*
X241070000Y-140510000D02*
X243225000Y-140510000D01*
X236841000Y-140470000D02*
X238990000Y-140470000D01*
X241070000Y-140470000D02*
X243219000Y-140470000D01*
X236848000Y-140430000D02*
X238990000Y-140430000D01*
X241070000Y-140430000D02*
X243212000Y-140430000D01*
X236855000Y-140390000D02*
X238990000Y-140390000D01*
X241070000Y-140390000D02*
X243205000Y-140390000D01*
X236863000Y-140350000D02*
X238990000Y-140350000D01*
X241070000Y-140350000D02*
X243197000Y-140350000D01*
X236871000Y-140310000D02*
X238990000Y-140310000D01*
X241070000Y-140310000D02*
X243189000Y-140310000D01*
X236880000Y-140269000D02*
X238990000Y-140269000D01*
X241070000Y-140269000D02*
X243180000Y-140269000D01*
X236889000Y-140229000D02*
X238990000Y-140229000D01*
X241070000Y-140229000D02*
X243171000Y-140229000D01*
X236899000Y-140189000D02*
X238990000Y-140189000D01*
X241070000Y-140189000D02*
X243161000Y-140189000D01*
X236909000Y-140149000D02*
X238990000Y-140149000D01*
X241070000Y-140149000D02*
X243151000Y-140149000D01*
X236920000Y-140109000D02*
X238990000Y-140109000D01*
X241070000Y-140109000D02*
X243140000Y-140109000D01*
X236932000Y-140069000D02*
X238990000Y-140069000D01*
X241070000Y-140069000D02*
X243128000Y-140069000D01*
X236944000Y-140029000D02*
X238990000Y-140029000D01*
X241070000Y-140029000D02*
X243116000Y-140029000D01*
X236956000Y-139989000D02*
X238990000Y-139989000D01*
X241070000Y-139989000D02*
X243104000Y-139989000D01*
X236969000Y-139949000D02*
X238990000Y-139949000D01*
X241070000Y-139949000D02*
X243091000Y-139949000D01*
X236983000Y-139909000D02*
X238990000Y-139909000D01*
X241070000Y-139909000D02*
X243077000Y-139909000D01*
X236997000Y-139869000D02*
X238990000Y-139869000D01*
X241070000Y-139869000D02*
X243063000Y-139869000D01*
X237012000Y-139829000D02*
X238990000Y-139829000D01*
X241070000Y-139829000D02*
X243048000Y-139829000D01*
X237028000Y-139789000D02*
X238990000Y-139789000D01*
X241070000Y-139789000D02*
X243032000Y-139789000D01*
X237044000Y-139749000D02*
X238990000Y-139749000D01*
X241070000Y-139749000D02*
X243016000Y-139749000D01*
X237060000Y-139709000D02*
X238990000Y-139709000D01*
X241070000Y-139709000D02*
X243000000Y-139709000D01*
X237078000Y-139669000D02*
X238990000Y-139669000D01*
X241070000Y-139669000D02*
X242982000Y-139669000D01*
X237096000Y-139629000D02*
X238990000Y-139629000D01*
X241070000Y-139629000D02*
X242964000Y-139629000D01*
X237114000Y-139589000D02*
X238990000Y-139589000D01*
X241070000Y-139589000D02*
X242946000Y-139589000D01*
X237134000Y-139549000D02*
X238990000Y-139549000D01*
X241070000Y-139549000D02*
X242926000Y-139549000D01*
X237154000Y-139509000D02*
X238990000Y-139509000D01*
X241070000Y-139509000D02*
X242906000Y-139509000D01*
X237174000Y-139469000D02*
X238990000Y-139469000D01*
X241070000Y-139469000D02*
X242886000Y-139469000D01*
X237196000Y-139429000D02*
X238990000Y-139429000D01*
X241070000Y-139429000D02*
X242864000Y-139429000D01*
X237218000Y-139389000D02*
X238990000Y-139389000D01*
X241070000Y-139389000D02*
X242842000Y-139389000D01*
X237240000Y-139349000D02*
X238990000Y-139349000D01*
X241070000Y-139349000D02*
X242820000Y-139349000D01*
X237264000Y-139309000D02*
X238990000Y-139309000D01*
X241070000Y-139309000D02*
X242796000Y-139309000D01*
X237288000Y-139269000D02*
X238990000Y-139269000D01*
X241070000Y-139269000D02*
X242772000Y-139269000D01*
X237314000Y-139229000D02*
X238990000Y-139229000D01*
X241070000Y-139229000D02*
X242746000Y-139229000D01*
X237340000Y-139189000D02*
X238990000Y-139189000D01*
X241070000Y-139189000D02*
X242720000Y-139189000D01*
X237366000Y-139149000D02*
X238990000Y-139149000D01*
X241070000Y-139149000D02*
X242694000Y-139149000D01*
X237394000Y-139109000D02*
X238990000Y-139109000D01*
X241070000Y-139109000D02*
X242666000Y-139109000D01*
X237423000Y-139069000D02*
X238990000Y-139069000D01*
X241070000Y-139069000D02*
X242637000Y-139069000D01*
X237452000Y-139029000D02*
X238990000Y-139029000D01*
X241070000Y-139029000D02*
X242608000Y-139029000D01*
X237482000Y-138989000D02*
X238990000Y-138989000D01*
X241070000Y-138989000D02*
X242578000Y-138989000D01*
X237514000Y-138949000D02*
X238990000Y-138949000D01*
X241070000Y-138949000D02*
X242546000Y-138949000D01*
X237546000Y-138909000D02*
X238990000Y-138909000D01*
X241070000Y-138909000D02*
X242514000Y-138909000D01*
X237580000Y-138869000D02*
X238990000Y-138869000D01*
X241070000Y-138869000D02*
X242480000Y-138869000D01*
X237614000Y-138829000D02*
X238990000Y-138829000D01*
X241070000Y-138829000D02*
X242446000Y-138829000D01*
X237650000Y-138789000D02*
X238990000Y-138789000D01*
X241070000Y-138789000D02*
X242410000Y-138789000D01*
X237687000Y-138749000D02*
X238990000Y-138749000D01*
X241070000Y-138749000D02*
X242373000Y-138749000D01*
X237725000Y-138709000D02*
X238990000Y-138709000D01*
X241070000Y-138709000D02*
X242335000Y-138709000D01*
X237765000Y-138669000D02*
X242295000Y-138669000D01*
X237806000Y-138629000D02*
X242254000Y-138629000D01*
X237848000Y-138589000D02*
X242212000Y-138589000D01*
X237893000Y-138549000D02*
X242167000Y-138549000D01*
X237938000Y-138509000D02*
X242122000Y-138509000D01*
X237986000Y-138469000D02*
X242074000Y-138469000D01*
X238035000Y-138429000D02*
X242025000Y-138429000D01*
X238086000Y-138389000D02*
X241974000Y-138389000D01*
X238140000Y-138349000D02*
X241920000Y-138349000D01*
X238196000Y-138309000D02*
X241864000Y-138309000D01*
X238254000Y-138269000D02*
X241806000Y-138269000D01*
X238316000Y-138229000D02*
X241744000Y-138229000D01*
X238380000Y-138189000D02*
X241680000Y-138189000D01*
X238449000Y-138149000D02*
X241611000Y-138149000D01*
X238521000Y-138109000D02*
X241539000Y-138109000D01*
X238598000Y-138069000D02*
X241462000Y-138069000D01*
X238680000Y-138029000D02*
X241380000Y-138029000D01*
X238768000Y-137989000D02*
X241292000Y-137989000D01*
X238865000Y-137949000D02*
X241195000Y-137949000D01*
X238971000Y-137909000D02*
X241089000Y-137909000D01*
X239090000Y-137869000D02*
X240970000Y-137869000D01*
X239228000Y-137829000D02*
X240832000Y-137829000D01*
X239397000Y-137789000D02*
X240663000Y-137789000D01*
X239628000Y-137749000D02*
X240432000Y-137749000D01*
X238191000Y-144490241D02*
X238191000Y-143860241D01*
X237876000Y-144175241D02*
X238506000Y-144175241D01*
%TO.C,C2.9*%
X381112000Y-120877000D02*
X374872000Y-120877000D01*
X381112000Y-118137000D02*
X374872000Y-118137000D01*
X381112000Y-120877000D02*
X381112000Y-120432000D01*
X381112000Y-118582000D02*
X381112000Y-118137000D01*
X374872000Y-120877000D02*
X374872000Y-120432000D01*
X374872000Y-118582000D02*
X374872000Y-118137000D01*
%TO.C,C2.7*%
X247792000Y-121693000D02*
X254032000Y-121693000D01*
X247792000Y-124433000D02*
X254032000Y-124433000D01*
X247792000Y-121693000D02*
X247792000Y-122138000D01*
X247792000Y-123988000D02*
X247792000Y-124433000D01*
X254032000Y-121693000D02*
X254032000Y-122138000D01*
X254032000Y-123988000D02*
X254032000Y-124433000D01*
%TO.C,C2.6*%
X259700000Y-120496000D02*
X253460000Y-120496000D01*
X259700000Y-117756000D02*
X253460000Y-117756000D01*
X259700000Y-120496000D02*
X259700000Y-120051000D01*
X259700000Y-118201000D02*
X259700000Y-117756000D01*
X253460000Y-120496000D02*
X253460000Y-120051000D01*
X253460000Y-118201000D02*
X253460000Y-117756000D01*
%TO.C,C2.10*%
X363332000Y-118591000D02*
X357092000Y-118591000D01*
X363332000Y-115851000D02*
X357092000Y-115851000D01*
X363332000Y-118591000D02*
X363332000Y-118146000D01*
X363332000Y-116296000D02*
X363332000Y-115851000D01*
X357092000Y-118591000D02*
X357092000Y-118146000D01*
X357092000Y-116296000D02*
X357092000Y-115851000D01*
%TO.C,C2.11*%
X350662000Y-119915000D02*
X356902000Y-119915000D01*
X350662000Y-122655000D02*
X356902000Y-122655000D01*
X350662000Y-119915000D02*
X350662000Y-120360000D01*
X350662000Y-122210000D02*
X350662000Y-122655000D01*
X356902000Y-119915000D02*
X356902000Y-120360000D01*
X356902000Y-122210000D02*
X356902000Y-122655000D01*
%TO.C,C2.4*%
X276494000Y-118899000D02*
X282734000Y-118899000D01*
X276494000Y-121639000D02*
X282734000Y-121639000D01*
X276494000Y-118899000D02*
X276494000Y-119344000D01*
X276494000Y-121194000D02*
X276494000Y-121639000D01*
X282734000Y-118899000D02*
X282734000Y-119344000D01*
X282734000Y-121194000D02*
X282734000Y-121639000D01*
%TO.C,C2.3*%
X308468000Y-126465000D02*
X302228000Y-126465000D01*
X308468000Y-123725000D02*
X302228000Y-123725000D01*
X308468000Y-126465000D02*
X308468000Y-126020000D01*
X308468000Y-124170000D02*
X308468000Y-123725000D01*
X302228000Y-126465000D02*
X302228000Y-126020000D01*
X302228000Y-124170000D02*
X302228000Y-123725000D01*
%TO.C,C2.2*%
X324470000Y-149071000D02*
X318230000Y-149071000D01*
X324470000Y-146331000D02*
X318230000Y-146331000D01*
X324470000Y-149071000D02*
X324470000Y-148626000D01*
X324470000Y-146776000D02*
X324470000Y-146331000D01*
X318230000Y-149071000D02*
X318230000Y-148626000D01*
X318230000Y-146776000D02*
X318230000Y-146331000D01*
%TO.C,C2.8*%
X372476000Y-118591000D02*
X366236000Y-118591000D01*
X372476000Y-115851000D02*
X366236000Y-115851000D01*
X372476000Y-118591000D02*
X372476000Y-118146000D01*
X372476000Y-116296000D02*
X372476000Y-115851000D01*
X366236000Y-118591000D02*
X366236000Y-118146000D01*
X366236000Y-116296000D02*
X366236000Y-115851000D01*
%TO.C,C12.5*%
X288148000Y-126338000D02*
X281908000Y-126338000D01*
X288148000Y-123598000D02*
X281908000Y-123598000D01*
X288148000Y-126338000D02*
X288148000Y-125893000D01*
X288148000Y-124043000D02*
X288148000Y-123598000D01*
X281908000Y-126338000D02*
X281908000Y-125893000D01*
X281908000Y-124043000D02*
X281908000Y-123598000D01*
D11*
%TO.C,H1.1L1*%
X69510000Y-123952000D02*
X69310000Y-123652000D01*
X69310000Y-124852000D02*
X69510000Y-123952000D01*
X68410000Y-123152000D02*
X66210000Y-123152000D01*
X69310000Y-124852000D02*
X65310000Y-124852000D01*
X65310000Y-124852000D02*
X65110000Y-123952000D01*
X65110000Y-123952000D02*
X65310000Y-123652000D01*
%TO.C,H1.1U1*%
X65110000Y-133350000D02*
X65310000Y-133650000D01*
X65310000Y-132450000D02*
X65110000Y-133350000D01*
X66210000Y-134150000D02*
X68410000Y-134150000D01*
X65310000Y-132450000D02*
X69310000Y-132450000D01*
X69310000Y-132450000D02*
X69510000Y-133350000D01*
X69510000Y-133350000D02*
X69310000Y-133650000D01*
%TO.C,H1.2L1*%
X169586000Y-123952000D02*
X169386000Y-123652000D01*
X169386000Y-124852000D02*
X169586000Y-123952000D01*
X168486000Y-123152000D02*
X166286000Y-123152000D01*
X169386000Y-124852000D02*
X165386000Y-124852000D01*
X165386000Y-124852000D02*
X165186000Y-123952000D01*
X165186000Y-123952000D02*
X165386000Y-123652000D01*
%TO.C,H1.2U1*%
X165186000Y-133350000D02*
X165386000Y-133650000D01*
X165386000Y-132450000D02*
X165186000Y-133350000D01*
X166286000Y-134150000D02*
X168486000Y-134150000D01*
X165386000Y-132450000D02*
X169386000Y-132450000D01*
X169386000Y-132450000D02*
X169586000Y-133350000D01*
X169586000Y-133350000D02*
X169386000Y-133650000D01*
%TO.C,H2.2U2*%
X365084000Y-133223000D02*
X365284000Y-133523000D01*
X365284000Y-132323000D02*
X365084000Y-133223000D01*
X366184000Y-134023000D02*
X368384000Y-134023000D01*
X365284000Y-132323000D02*
X369284000Y-132323000D01*
X369284000Y-132323000D02*
X369484000Y-133223000D01*
X369484000Y-133223000D02*
X369284000Y-133523000D01*
%TO.C,H2.1L1*%
X269662000Y-123952000D02*
X269462000Y-123652000D01*
X269462000Y-124852000D02*
X269662000Y-123952000D01*
X268562000Y-123152000D02*
X266362000Y-123152000D01*
X269462000Y-124852000D02*
X265462000Y-124852000D01*
X265462000Y-124852000D02*
X265262000Y-123952000D01*
X265262000Y-123952000D02*
X265462000Y-123652000D01*
%TO.C,H2.1U1*%
X265262000Y-133350000D02*
X265462000Y-133650000D01*
X265462000Y-132450000D02*
X265262000Y-133350000D01*
X266362000Y-134150000D02*
X268562000Y-134150000D01*
X265462000Y-132450000D02*
X269462000Y-132450000D01*
X269462000Y-132450000D02*
X269662000Y-133350000D01*
X269662000Y-133350000D02*
X269462000Y-133650000D01*
%TO.C,H2.2L1*%
X369484000Y-124079000D02*
X369284000Y-123779000D01*
X369284000Y-124979000D02*
X369484000Y-124079000D01*
X368384000Y-123279000D02*
X366184000Y-123279000D01*
X369284000Y-124979000D02*
X365284000Y-124979000D01*
X365284000Y-124979000D02*
X365084000Y-124079000D01*
X365084000Y-124079000D02*
X365284000Y-123779000D01*
D10*
%TO.C,J1*%
X230438000Y-143062000D02*
X230438000Y-140402000D01*
X222758000Y-143062000D02*
X230438000Y-143062000D01*
X222758000Y-140402000D02*
X230438000Y-140402000D01*
X222758000Y-143062000D02*
X222758000Y-140402000D01*
X221488000Y-143062000D02*
X220158000Y-143062000D01*
X220158000Y-143062000D02*
X220158000Y-141732000D01*
%TO.C,R1.3*%
X69818000Y-113384000D02*
X69818000Y-110644000D01*
X69818000Y-110644000D02*
X63278000Y-110644000D01*
X63278000Y-110644000D02*
X63278000Y-113384000D01*
X63278000Y-113384000D02*
X69818000Y-113384000D01*
X70588000Y-112014000D02*
X69818000Y-112014000D01*
X62508000Y-112014000D02*
X63278000Y-112014000D01*
%TO.C,R1.1*%
X116300000Y-119988000D02*
X116300000Y-117248000D01*
X116300000Y-117248000D02*
X109760000Y-117248000D01*
X109760000Y-117248000D02*
X109760000Y-119988000D01*
X109760000Y-119988000D02*
X116300000Y-119988000D01*
X117070000Y-118618000D02*
X116300000Y-118618000D01*
X108990000Y-118618000D02*
X109760000Y-118618000D01*
%TO.C,R1*%
X206280000Y-140362000D02*
X206280000Y-143102000D01*
X206280000Y-143102000D02*
X212820000Y-143102000D01*
X212820000Y-143102000D02*
X212820000Y-140362000D01*
X212820000Y-140362000D02*
X206280000Y-140362000D01*
X205510000Y-141732000D02*
X206280000Y-141732000D01*
X213590000Y-141732000D02*
X212820000Y-141732000D01*
%TO.C,R1.2*%
X86074000Y-113130000D02*
X86074000Y-110390000D01*
X86074000Y-110390000D02*
X79534000Y-110390000D01*
X79534000Y-110390000D02*
X79534000Y-113130000D01*
X79534000Y-113130000D02*
X86074000Y-113130000D01*
X86844000Y-111760000D02*
X86074000Y-111760000D01*
X78764000Y-111760000D02*
X79534000Y-111760000D01*
%TO.C,R1.4*%
X152114000Y-118464000D02*
X152114000Y-115724000D01*
X152114000Y-115724000D02*
X145574000Y-115724000D01*
X145574000Y-115724000D02*
X145574000Y-118464000D01*
X145574000Y-118464000D02*
X152114000Y-118464000D01*
X152884000Y-117094000D02*
X152114000Y-117094000D01*
X144804000Y-117094000D02*
X145574000Y-117094000D01*
%TO.C,R1.5*%
X171926000Y-115162000D02*
X171926000Y-112422000D01*
X171926000Y-112422000D02*
X165386000Y-112422000D01*
X165386000Y-112422000D02*
X165386000Y-115162000D01*
X165386000Y-115162000D02*
X171926000Y-115162000D01*
X172696000Y-113792000D02*
X171926000Y-113792000D01*
X164616000Y-113792000D02*
X165386000Y-113792000D01*
%TO.C,R2.1*%
X317214000Y-119607000D02*
X317214000Y-116867000D01*
X317214000Y-116867000D02*
X310674000Y-116867000D01*
X310674000Y-116867000D02*
X310674000Y-119607000D01*
X310674000Y-119607000D02*
X317214000Y-119607000D01*
X317984000Y-118237000D02*
X317214000Y-118237000D01*
X309904000Y-118237000D02*
X310674000Y-118237000D01*
%TO.C,R2*%
X206280000Y-135790000D02*
X206280000Y-138530000D01*
X206280000Y-138530000D02*
X212820000Y-138530000D01*
X212820000Y-138530000D02*
X212820000Y-135790000D01*
X212820000Y-135790000D02*
X206280000Y-135790000D01*
X205510000Y-137160000D02*
X206280000Y-137160000D01*
X213590000Y-137160000D02*
X212820000Y-137160000D01*
%TO.C,R2.5*%
X354362000Y-112295000D02*
X354362000Y-115035000D01*
X354362000Y-115035000D02*
X360902000Y-115035000D01*
X360902000Y-115035000D02*
X360902000Y-112295000D01*
X360902000Y-112295000D02*
X354362000Y-112295000D01*
X353592000Y-113665000D02*
X354362000Y-113665000D01*
X361672000Y-113665000D02*
X360902000Y-113665000D01*
%TO.C,R2.2*%
X288131000Y-116813000D02*
X288131000Y-114073000D01*
X288131000Y-114073000D02*
X281591000Y-114073000D01*
X281591000Y-114073000D02*
X281591000Y-116813000D01*
X281591000Y-116813000D02*
X288131000Y-116813000D01*
X288901000Y-115443000D02*
X288131000Y-115443000D01*
X280821000Y-115443000D02*
X281591000Y-115443000D01*
%TO.C,R2.4*%
X377666000Y-115035000D02*
X377666000Y-112295000D01*
X377666000Y-112295000D02*
X371126000Y-112295000D01*
X371126000Y-112295000D02*
X371126000Y-115035000D01*
X371126000Y-115035000D02*
X377666000Y-115035000D01*
X378436000Y-113665000D02*
X377666000Y-113665000D01*
X370356000Y-113665000D02*
X371126000Y-113665000D01*
%TO.C,R2.3*%
X252254000Y-114073000D02*
X252254000Y-116813000D01*
X252254000Y-116813000D02*
X258794000Y-116813000D01*
X258794000Y-116813000D02*
X258794000Y-114073000D01*
X258794000Y-114073000D02*
X252254000Y-114073000D01*
X251484000Y-115443000D02*
X252254000Y-115443000D01*
X259564000Y-115443000D02*
X258794000Y-115443000D01*
%TO.C,U2*%
X311205000Y-127775000D02*
X312005000Y-126975000D01*
X312005000Y-126975000D02*
X323205000Y-126975000D01*
X323205000Y-126975000D02*
X323205000Y-145185000D01*
X323205000Y-145185000D02*
X311205000Y-145185000D01*
X311205000Y-145185000D02*
X311205000Y-127775000D01*
%TO.C,X1.1*%
X82510000Y-134620000D02*
G75*
G03*
X82510000Y-134620000I-15200000J0D01*
G01*
%TO.C,X1.2*%
X182510000Y-134620000D02*
G75*
G03*
X182510000Y-134620000I-15200000J0D01*
G01*
%TO.C,X2.2*%
X382510000Y-134620000D02*
G75*
G03*
X382510000Y-134620000I-15200000J0D01*
G01*
%TO.C,X2.1*%
D11*
X265760190Y-142200380D02*
X266426857Y-143200380D01*
X266426857Y-142200380D02*
X265760190Y-143200380D01*
X266760190Y-142295619D02*
X266807809Y-142248000D01*
X266903047Y-142200380D01*
X267141142Y-142200380D01*
X267236380Y-142248000D01*
X267284000Y-142295619D01*
X267331619Y-142390857D01*
X267331619Y-142486095D01*
X267284000Y-142628952D01*
X266712571Y-143200380D01*
X267331619Y-143200380D01*
X267760190Y-143105142D02*
X267807809Y-143152761D01*
X267760190Y-143200380D01*
X267712571Y-143152761D01*
X267760190Y-143105142D01*
X267760190Y-143200380D01*
X268760190Y-143200380D02*
X268188761Y-143200380D01*
X268474476Y-143200380D02*
X268474476Y-142200380D01*
X268379238Y-142343238D01*
X268284000Y-142438476D01*
X268188761Y-142486095D01*
%TO.C,U1*%
X115443095Y-125427380D02*
X115443095Y-126236904D01*
X115490714Y-126332142D01*
X115538333Y-126379761D01*
X115633571Y-126427380D01*
X115824047Y-126427380D01*
X115919285Y-126379761D01*
X115966904Y-126332142D01*
X116014523Y-126236904D01*
X116014523Y-125427380D01*
X117014523Y-126427380D02*
X116443095Y-126427380D01*
X116728809Y-126427380D02*
X116728809Y-125427380D01*
X116633571Y-125570238D01*
X116538333Y-125665476D01*
X116443095Y-125713095D01*
%TO.C,A1*%
X189396666Y-123904285D02*
X189396666Y-123428095D01*
X189682380Y-123999523D02*
X188682380Y-123666190D01*
X189682380Y-123332857D01*
X189682380Y-122475714D02*
X189682380Y-123047142D01*
X189682380Y-122761428D02*
X188682380Y-122761428D01*
X188825238Y-122856666D01*
X188920476Y-122951904D01*
X188968095Y-123047142D01*
%TO.C,C1.8*%
X144193047Y-126047142D02*
X144145428Y-126094761D01*
X144002571Y-126142380D01*
X143907333Y-126142380D01*
X143764476Y-126094761D01*
X143669238Y-125999523D01*
X143621619Y-125904285D01*
X143574000Y-125713809D01*
X143574000Y-125570952D01*
X143621619Y-125380476D01*
X143669238Y-125285238D01*
X143764476Y-125190000D01*
X143907333Y-125142380D01*
X144002571Y-125142380D01*
X144145428Y-125190000D01*
X144193047Y-125237619D01*
X145145428Y-126142380D02*
X144574000Y-126142380D01*
X144859714Y-126142380D02*
X144859714Y-125142380D01*
X144764476Y-125285238D01*
X144669238Y-125380476D01*
X144574000Y-125428095D01*
X145574000Y-126047142D02*
X145621619Y-126094761D01*
X145574000Y-126142380D01*
X145526380Y-126094761D01*
X145574000Y-126047142D01*
X145574000Y-126142380D01*
X146193047Y-125570952D02*
X146097809Y-125523333D01*
X146050190Y-125475714D01*
X146002571Y-125380476D01*
X146002571Y-125332857D01*
X146050190Y-125237619D01*
X146097809Y-125190000D01*
X146193047Y-125142380D01*
X146383523Y-125142380D01*
X146478761Y-125190000D01*
X146526380Y-125237619D01*
X146574000Y-125332857D01*
X146574000Y-125380476D01*
X146526380Y-125475714D01*
X146478761Y-125523333D01*
X146383523Y-125570952D01*
X146193047Y-125570952D01*
X146097809Y-125618571D01*
X146050190Y-125666190D01*
X146002571Y-125761428D01*
X146002571Y-125951904D01*
X146050190Y-126047142D01*
X146097809Y-126094761D01*
X146193047Y-126142380D01*
X146383523Y-126142380D01*
X146478761Y-126094761D01*
X146526380Y-126047142D01*
X146574000Y-125951904D01*
X146574000Y-125761428D01*
X146526380Y-125666190D01*
X146478761Y-125618571D01*
X146383523Y-125570952D01*
%TO.C,C1.2*%
X126079047Y-145177142D02*
X126031428Y-145224761D01*
X125888571Y-145272380D01*
X125793333Y-145272380D01*
X125650476Y-145224761D01*
X125555238Y-145129523D01*
X125507619Y-145034285D01*
X125460000Y-144843809D01*
X125460000Y-144700952D01*
X125507619Y-144510476D01*
X125555238Y-144415238D01*
X125650476Y-144320000D01*
X125793333Y-144272380D01*
X125888571Y-144272380D01*
X126031428Y-144320000D01*
X126079047Y-144367619D01*
X127031428Y-145272380D02*
X126460000Y-145272380D01*
X126745714Y-145272380D02*
X126745714Y-144272380D01*
X126650476Y-144415238D01*
X126555238Y-144510476D01*
X126460000Y-144558095D01*
X127460000Y-145177142D02*
X127507619Y-145224761D01*
X127460000Y-145272380D01*
X127412380Y-145224761D01*
X127460000Y-145177142D01*
X127460000Y-145272380D01*
X127888571Y-144367619D02*
X127936190Y-144320000D01*
X128031428Y-144272380D01*
X128269523Y-144272380D01*
X128364761Y-144320000D01*
X128412380Y-144367619D01*
X128460000Y-144462857D01*
X128460000Y-144558095D01*
X128412380Y-144700952D01*
X127840952Y-145272380D01*
X128460000Y-145272380D01*
%TO.C,C1.7*%
X69517047Y-119443142D02*
X69469428Y-119490761D01*
X69326571Y-119538380D01*
X69231333Y-119538380D01*
X69088476Y-119490761D01*
X68993238Y-119395523D01*
X68945619Y-119300285D01*
X68898000Y-119109809D01*
X68898000Y-118966952D01*
X68945619Y-118776476D01*
X68993238Y-118681238D01*
X69088476Y-118586000D01*
X69231333Y-118538380D01*
X69326571Y-118538380D01*
X69469428Y-118586000D01*
X69517047Y-118633619D01*
X70469428Y-119538380D02*
X69898000Y-119538380D01*
X70183714Y-119538380D02*
X70183714Y-118538380D01*
X70088476Y-118681238D01*
X69993238Y-118776476D01*
X69898000Y-118824095D01*
X70898000Y-119443142D02*
X70945619Y-119490761D01*
X70898000Y-119538380D01*
X70850380Y-119490761D01*
X70898000Y-119443142D01*
X70898000Y-119538380D01*
X71278952Y-118538380D02*
X71945619Y-118538380D01*
X71517047Y-119538380D01*
%TO.C,C1.9*%
X152067047Y-124777142D02*
X152019428Y-124824761D01*
X151876571Y-124872380D01*
X151781333Y-124872380D01*
X151638476Y-124824761D01*
X151543238Y-124729523D01*
X151495619Y-124634285D01*
X151448000Y-124443809D01*
X151448000Y-124300952D01*
X151495619Y-124110476D01*
X151543238Y-124015238D01*
X151638476Y-123920000D01*
X151781333Y-123872380D01*
X151876571Y-123872380D01*
X152019428Y-123920000D01*
X152067047Y-123967619D01*
X153019428Y-124872380D02*
X152448000Y-124872380D01*
X152733714Y-124872380D02*
X152733714Y-123872380D01*
X152638476Y-124015238D01*
X152543238Y-124110476D01*
X152448000Y-124158095D01*
X153448000Y-124777142D02*
X153495619Y-124824761D01*
X153448000Y-124872380D01*
X153400380Y-124824761D01*
X153448000Y-124777142D01*
X153448000Y-124872380D01*
X153971809Y-124872380D02*
X154162285Y-124872380D01*
X154257523Y-124824761D01*
X154305142Y-124777142D01*
X154400380Y-124634285D01*
X154448000Y-124443809D01*
X154448000Y-124062857D01*
X154400380Y-123967619D01*
X154352761Y-123920000D01*
X154257523Y-123872380D01*
X154067047Y-123872380D01*
X153971809Y-123920000D01*
X153924190Y-123967619D01*
X153876571Y-124062857D01*
X153876571Y-124300952D01*
X153924190Y-124396190D01*
X153971809Y-124443809D01*
X154067047Y-124491428D01*
X154257523Y-124491428D01*
X154352761Y-124443809D01*
X154400380Y-124396190D01*
X154448000Y-124300952D01*
%TO.C,C1.1*%
X191537142Y-141870952D02*
X191584761Y-141918571D01*
X191632380Y-142061428D01*
X191632380Y-142156666D01*
X191584761Y-142299523D01*
X191489523Y-142394761D01*
X191394285Y-142442380D01*
X191203809Y-142490000D01*
X191060952Y-142490000D01*
X190870476Y-142442380D01*
X190775238Y-142394761D01*
X190680000Y-142299523D01*
X190632380Y-142156666D01*
X190632380Y-142061428D01*
X190680000Y-141918571D01*
X190727619Y-141870952D01*
X191632380Y-140918571D02*
X191632380Y-141490000D01*
X191632380Y-141204285D02*
X190632380Y-141204285D01*
X190775238Y-141299523D01*
X190870476Y-141394761D01*
X190918095Y-141490000D01*
X191537142Y-140490000D02*
X191584761Y-140442380D01*
X191632380Y-140490000D01*
X191584761Y-140537619D01*
X191537142Y-140490000D01*
X191632380Y-140490000D01*
X191632380Y-139490000D02*
X191632380Y-140061428D01*
X191632380Y-139775714D02*
X190632380Y-139775714D01*
X190775238Y-139870952D01*
X190870476Y-139966190D01*
X190918095Y-140061428D01*
%TO.C,C1.10*%
X158956857Y-120713142D02*
X158909238Y-120760761D01*
X158766380Y-120808380D01*
X158671142Y-120808380D01*
X158528285Y-120760761D01*
X158433047Y-120665523D01*
X158385428Y-120570285D01*
X158337809Y-120379809D01*
X158337809Y-120236952D01*
X158385428Y-120046476D01*
X158433047Y-119951238D01*
X158528285Y-119856000D01*
X158671142Y-119808380D01*
X158766380Y-119808380D01*
X158909238Y-119856000D01*
X158956857Y-119903619D01*
X159909238Y-120808380D02*
X159337809Y-120808380D01*
X159623523Y-120808380D02*
X159623523Y-119808380D01*
X159528285Y-119951238D01*
X159433047Y-120046476D01*
X159337809Y-120094095D01*
X160337809Y-120713142D02*
X160385428Y-120760761D01*
X160337809Y-120808380D01*
X160290190Y-120760761D01*
X160337809Y-120713142D01*
X160337809Y-120808380D01*
X161337809Y-120808380D02*
X160766380Y-120808380D01*
X161052095Y-120808380D02*
X161052095Y-119808380D01*
X160956857Y-119951238D01*
X160861619Y-120046476D01*
X160766380Y-120094095D01*
X161956857Y-119808380D02*
X162052095Y-119808380D01*
X162147333Y-119856000D01*
X162194952Y-119903619D01*
X162242571Y-119998857D01*
X162290190Y-120189333D01*
X162290190Y-120427428D01*
X162242571Y-120617904D01*
X162194952Y-120713142D01*
X162147333Y-120760761D01*
X162052095Y-120808380D01*
X161956857Y-120808380D01*
X161861619Y-120760761D01*
X161814000Y-120713142D01*
X161766380Y-120617904D01*
X161718761Y-120427428D01*
X161718761Y-120189333D01*
X161766380Y-119998857D01*
X161814000Y-119903619D01*
X161861619Y-119856000D01*
X161956857Y-119808380D01*
%TO.C,C1.11*%
X175212857Y-120713142D02*
X175165238Y-120760761D01*
X175022380Y-120808380D01*
X174927142Y-120808380D01*
X174784285Y-120760761D01*
X174689047Y-120665523D01*
X174641428Y-120570285D01*
X174593809Y-120379809D01*
X174593809Y-120236952D01*
X174641428Y-120046476D01*
X174689047Y-119951238D01*
X174784285Y-119856000D01*
X174927142Y-119808380D01*
X175022380Y-119808380D01*
X175165238Y-119856000D01*
X175212857Y-119903619D01*
X176165238Y-120808380D02*
X175593809Y-120808380D01*
X175879523Y-120808380D02*
X175879523Y-119808380D01*
X175784285Y-119951238D01*
X175689047Y-120046476D01*
X175593809Y-120094095D01*
X176593809Y-120713142D02*
X176641428Y-120760761D01*
X176593809Y-120808380D01*
X176546190Y-120760761D01*
X176593809Y-120713142D01*
X176593809Y-120808380D01*
X177593809Y-120808380D02*
X177022380Y-120808380D01*
X177308095Y-120808380D02*
X177308095Y-119808380D01*
X177212857Y-119951238D01*
X177117619Y-120046476D01*
X177022380Y-120094095D01*
X178546190Y-120808380D02*
X177974761Y-120808380D01*
X178260476Y-120808380D02*
X178260476Y-119808380D01*
X178165238Y-119951238D01*
X178070000Y-120046476D01*
X177974761Y-120094095D01*
%TO.C,C1.4*%
X78153047Y-119443142D02*
X78105428Y-119490761D01*
X77962571Y-119538380D01*
X77867333Y-119538380D01*
X77724476Y-119490761D01*
X77629238Y-119395523D01*
X77581619Y-119300285D01*
X77534000Y-119109809D01*
X77534000Y-118966952D01*
X77581619Y-118776476D01*
X77629238Y-118681238D01*
X77724476Y-118586000D01*
X77867333Y-118538380D01*
X77962571Y-118538380D01*
X78105428Y-118586000D01*
X78153047Y-118633619D01*
X79105428Y-119538380D02*
X78534000Y-119538380D01*
X78819714Y-119538380D02*
X78819714Y-118538380D01*
X78724476Y-118681238D01*
X78629238Y-118776476D01*
X78534000Y-118824095D01*
X79534000Y-119443142D02*
X79581619Y-119490761D01*
X79534000Y-119538380D01*
X79486380Y-119490761D01*
X79534000Y-119443142D01*
X79534000Y-119538380D01*
X80438761Y-118871714D02*
X80438761Y-119538380D01*
X80200666Y-118490761D02*
X79962571Y-119205047D01*
X80581619Y-119205047D01*
%TO.C,C1.5*%
X86027047Y-119443142D02*
X85979428Y-119490761D01*
X85836571Y-119538380D01*
X85741333Y-119538380D01*
X85598476Y-119490761D01*
X85503238Y-119395523D01*
X85455619Y-119300285D01*
X85408000Y-119109809D01*
X85408000Y-118966952D01*
X85455619Y-118776476D01*
X85503238Y-118681238D01*
X85598476Y-118586000D01*
X85741333Y-118538380D01*
X85836571Y-118538380D01*
X85979428Y-118586000D01*
X86027047Y-118633619D01*
X86979428Y-119538380D02*
X86408000Y-119538380D01*
X86693714Y-119538380D02*
X86693714Y-118538380D01*
X86598476Y-118681238D01*
X86503238Y-118776476D01*
X86408000Y-118824095D01*
X87408000Y-119443142D02*
X87455619Y-119490761D01*
X87408000Y-119538380D01*
X87360380Y-119490761D01*
X87408000Y-119443142D01*
X87408000Y-119538380D01*
X88360380Y-118538380D02*
X87884190Y-118538380D01*
X87836571Y-119014571D01*
X87884190Y-118966952D01*
X87979428Y-118919333D01*
X88217523Y-118919333D01*
X88312761Y-118966952D01*
X88360380Y-119014571D01*
X88408000Y-119109809D01*
X88408000Y-119347904D01*
X88360380Y-119443142D01*
X88312761Y-119490761D01*
X88217523Y-119538380D01*
X87979428Y-119538380D01*
X87884190Y-119490761D01*
X87836571Y-119443142D01*
%TO.C,C1.6*%
X61389047Y-119443142D02*
X61341428Y-119490761D01*
X61198571Y-119538380D01*
X61103333Y-119538380D01*
X60960476Y-119490761D01*
X60865238Y-119395523D01*
X60817619Y-119300285D01*
X60770000Y-119109809D01*
X60770000Y-118966952D01*
X60817619Y-118776476D01*
X60865238Y-118681238D01*
X60960476Y-118586000D01*
X61103333Y-118538380D01*
X61198571Y-118538380D01*
X61341428Y-118586000D01*
X61389047Y-118633619D01*
X62341428Y-119538380D02*
X61770000Y-119538380D01*
X62055714Y-119538380D02*
X62055714Y-118538380D01*
X61960476Y-118681238D01*
X61865238Y-118776476D01*
X61770000Y-118824095D01*
X62770000Y-119443142D02*
X62817619Y-119490761D01*
X62770000Y-119538380D01*
X62722380Y-119490761D01*
X62770000Y-119443142D01*
X62770000Y-119538380D01*
X63674761Y-118538380D02*
X63484285Y-118538380D01*
X63389047Y-118586000D01*
X63341428Y-118633619D01*
X63246190Y-118776476D01*
X63198571Y-118966952D01*
X63198571Y-119347904D01*
X63246190Y-119443142D01*
X63293809Y-119490761D01*
X63389047Y-119538380D01*
X63579523Y-119538380D01*
X63674761Y-119490761D01*
X63722380Y-119443142D01*
X63770000Y-119347904D01*
X63770000Y-119109809D01*
X63722380Y-119014571D01*
X63674761Y-118966952D01*
X63579523Y-118919333D01*
X63389047Y-118919333D01*
X63293809Y-118966952D01*
X63246190Y-119014571D01*
X63198571Y-119109809D01*
%TO.C,C1.3*%
X104569047Y-128333142D02*
X104521428Y-128380761D01*
X104378571Y-128428380D01*
X104283333Y-128428380D01*
X104140476Y-128380761D01*
X104045238Y-128285523D01*
X103997619Y-128190285D01*
X103950000Y-127999809D01*
X103950000Y-127856952D01*
X103997619Y-127666476D01*
X104045238Y-127571238D01*
X104140476Y-127476000D01*
X104283333Y-127428380D01*
X104378571Y-127428380D01*
X104521428Y-127476000D01*
X104569047Y-127523619D01*
X105521428Y-128428380D02*
X104950000Y-128428380D01*
X105235714Y-128428380D02*
X105235714Y-127428380D01*
X105140476Y-127571238D01*
X105045238Y-127666476D01*
X104950000Y-127714095D01*
X105950000Y-128333142D02*
X105997619Y-128380761D01*
X105950000Y-128428380D01*
X105902380Y-128380761D01*
X105950000Y-128333142D01*
X105950000Y-128428380D01*
X106330952Y-127428380D02*
X106950000Y-127428380D01*
X106616666Y-127809333D01*
X106759523Y-127809333D01*
X106854761Y-127856952D01*
X106902380Y-127904571D01*
X106950000Y-127999809D01*
X106950000Y-128237904D01*
X106902380Y-128333142D01*
X106854761Y-128380761D01*
X106759523Y-128428380D01*
X106473809Y-128428380D01*
X106378571Y-128380761D01*
X106330952Y-128333142D01*
%TO.C,C2.1*%
X235987142Y-141870952D02*
X236034761Y-141918571D01*
X236082380Y-142061428D01*
X236082380Y-142156666D01*
X236034761Y-142299523D01*
X235939523Y-142394761D01*
X235844285Y-142442380D01*
X235653809Y-142490000D01*
X235510952Y-142490000D01*
X235320476Y-142442380D01*
X235225238Y-142394761D01*
X235130000Y-142299523D01*
X235082380Y-142156666D01*
X235082380Y-142061428D01*
X235130000Y-141918571D01*
X235177619Y-141870952D01*
X235177619Y-141490000D02*
X235130000Y-141442380D01*
X235082380Y-141347142D01*
X235082380Y-141109047D01*
X235130000Y-141013809D01*
X235177619Y-140966190D01*
X235272857Y-140918571D01*
X235368095Y-140918571D01*
X235510952Y-140966190D01*
X236082380Y-141537619D01*
X236082380Y-140918571D01*
X235987142Y-140490000D02*
X236034761Y-140442380D01*
X236082380Y-140490000D01*
X236034761Y-140537619D01*
X235987142Y-140490000D01*
X236082380Y-140490000D01*
X236082380Y-139490000D02*
X236082380Y-140061428D01*
X236082380Y-139775714D02*
X235082380Y-139775714D01*
X235225238Y-139870952D01*
X235320476Y-139966190D01*
X235368095Y-140061428D01*
%TO.C,C2.9*%
X377111047Y-122364142D02*
X377063428Y-122411761D01*
X376920571Y-122459380D01*
X376825333Y-122459380D01*
X376682476Y-122411761D01*
X376587238Y-122316523D01*
X376539619Y-122221285D01*
X376492000Y-122030809D01*
X376492000Y-121887952D01*
X376539619Y-121697476D01*
X376587238Y-121602238D01*
X376682476Y-121507000D01*
X376825333Y-121459380D01*
X376920571Y-121459380D01*
X377063428Y-121507000D01*
X377111047Y-121554619D01*
X377492000Y-121554619D02*
X377539619Y-121507000D01*
X377634857Y-121459380D01*
X377872952Y-121459380D01*
X377968190Y-121507000D01*
X378015809Y-121554619D01*
X378063428Y-121649857D01*
X378063428Y-121745095D01*
X378015809Y-121887952D01*
X377444380Y-122459380D01*
X378063428Y-122459380D01*
X378492000Y-122364142D02*
X378539619Y-122411761D01*
X378492000Y-122459380D01*
X378444380Y-122411761D01*
X378492000Y-122364142D01*
X378492000Y-122459380D01*
X379015809Y-122459380D02*
X379206285Y-122459380D01*
X379301523Y-122411761D01*
X379349142Y-122364142D01*
X379444380Y-122221285D01*
X379492000Y-122030809D01*
X379492000Y-121649857D01*
X379444380Y-121554619D01*
X379396761Y-121507000D01*
X379301523Y-121459380D01*
X379111047Y-121459380D01*
X379015809Y-121507000D01*
X378968190Y-121554619D01*
X378920571Y-121649857D01*
X378920571Y-121887952D01*
X378968190Y-121983190D01*
X379015809Y-122030809D01*
X379111047Y-122078428D01*
X379301523Y-122078428D01*
X379396761Y-122030809D01*
X379444380Y-121983190D01*
X379492000Y-121887952D01*
%TO.C,C2.7*%
X250031047Y-120920142D02*
X249983428Y-120967761D01*
X249840571Y-121015380D01*
X249745333Y-121015380D01*
X249602476Y-120967761D01*
X249507238Y-120872523D01*
X249459619Y-120777285D01*
X249412000Y-120586809D01*
X249412000Y-120443952D01*
X249459619Y-120253476D01*
X249507238Y-120158238D01*
X249602476Y-120063000D01*
X249745333Y-120015380D01*
X249840571Y-120015380D01*
X249983428Y-120063000D01*
X250031047Y-120110619D01*
X250412000Y-120110619D02*
X250459619Y-120063000D01*
X250554857Y-120015380D01*
X250792952Y-120015380D01*
X250888190Y-120063000D01*
X250935809Y-120110619D01*
X250983428Y-120205857D01*
X250983428Y-120301095D01*
X250935809Y-120443952D01*
X250364380Y-121015380D01*
X250983428Y-121015380D01*
X251412000Y-120920142D02*
X251459619Y-120967761D01*
X251412000Y-121015380D01*
X251364380Y-120967761D01*
X251412000Y-120920142D01*
X251412000Y-121015380D01*
X251792952Y-120015380D02*
X252459619Y-120015380D01*
X252031047Y-121015380D01*
%TO.C,C2.6*%
X255699047Y-121983142D02*
X255651428Y-122030761D01*
X255508571Y-122078380D01*
X255413333Y-122078380D01*
X255270476Y-122030761D01*
X255175238Y-121935523D01*
X255127619Y-121840285D01*
X255080000Y-121649809D01*
X255080000Y-121506952D01*
X255127619Y-121316476D01*
X255175238Y-121221238D01*
X255270476Y-121126000D01*
X255413333Y-121078380D01*
X255508571Y-121078380D01*
X255651428Y-121126000D01*
X255699047Y-121173619D01*
X256080000Y-121173619D02*
X256127619Y-121126000D01*
X256222857Y-121078380D01*
X256460952Y-121078380D01*
X256556190Y-121126000D01*
X256603809Y-121173619D01*
X256651428Y-121268857D01*
X256651428Y-121364095D01*
X256603809Y-121506952D01*
X256032380Y-122078380D01*
X256651428Y-122078380D01*
X257080000Y-121983142D02*
X257127619Y-122030761D01*
X257080000Y-122078380D01*
X257032380Y-122030761D01*
X257080000Y-121983142D01*
X257080000Y-122078380D01*
X257984761Y-121078380D02*
X257794285Y-121078380D01*
X257699047Y-121126000D01*
X257651428Y-121173619D01*
X257556190Y-121316476D01*
X257508571Y-121506952D01*
X257508571Y-121887904D01*
X257556190Y-121983142D01*
X257603809Y-122030761D01*
X257699047Y-122078380D01*
X257889523Y-122078380D01*
X257984761Y-122030761D01*
X258032380Y-121983142D01*
X258080000Y-121887904D01*
X258080000Y-121649809D01*
X258032380Y-121554571D01*
X257984761Y-121506952D01*
X257889523Y-121459333D01*
X257699047Y-121459333D01*
X257603809Y-121506952D01*
X257556190Y-121554571D01*
X257508571Y-121649809D01*
%TO.C,C2.10*%
X358854857Y-120078142D02*
X358807238Y-120125761D01*
X358664380Y-120173380D01*
X358569142Y-120173380D01*
X358426285Y-120125761D01*
X358331047Y-120030523D01*
X358283428Y-119935285D01*
X358235809Y-119744809D01*
X358235809Y-119601952D01*
X358283428Y-119411476D01*
X358331047Y-119316238D01*
X358426285Y-119221000D01*
X358569142Y-119173380D01*
X358664380Y-119173380D01*
X358807238Y-119221000D01*
X358854857Y-119268619D01*
X359235809Y-119268619D02*
X359283428Y-119221000D01*
X359378666Y-119173380D01*
X359616761Y-119173380D01*
X359712000Y-119221000D01*
X359759619Y-119268619D01*
X359807238Y-119363857D01*
X359807238Y-119459095D01*
X359759619Y-119601952D01*
X359188190Y-120173380D01*
X359807238Y-120173380D01*
X360235809Y-120078142D02*
X360283428Y-120125761D01*
X360235809Y-120173380D01*
X360188190Y-120125761D01*
X360235809Y-120078142D01*
X360235809Y-120173380D01*
X361235809Y-120173380D02*
X360664380Y-120173380D01*
X360950095Y-120173380D02*
X360950095Y-119173380D01*
X360854857Y-119316238D01*
X360759619Y-119411476D01*
X360664380Y-119459095D01*
X361854857Y-119173380D02*
X361950095Y-119173380D01*
X362045333Y-119221000D01*
X362092952Y-119268619D01*
X362140571Y-119363857D01*
X362188190Y-119554333D01*
X362188190Y-119792428D01*
X362140571Y-119982904D01*
X362092952Y-120078142D01*
X362045333Y-120125761D01*
X361950095Y-120173380D01*
X361854857Y-120173380D01*
X361759619Y-120125761D01*
X361712000Y-120078142D01*
X361664380Y-119982904D01*
X361616761Y-119792428D01*
X361616761Y-119554333D01*
X361664380Y-119363857D01*
X361712000Y-119268619D01*
X361759619Y-119221000D01*
X361854857Y-119173380D01*
%TO.C,C2.11*%
X352424857Y-119142142D02*
X352377238Y-119189761D01*
X352234380Y-119237380D01*
X352139142Y-119237380D01*
X351996285Y-119189761D01*
X351901047Y-119094523D01*
X351853428Y-118999285D01*
X351805809Y-118808809D01*
X351805809Y-118665952D01*
X351853428Y-118475476D01*
X351901047Y-118380238D01*
X351996285Y-118285000D01*
X352139142Y-118237380D01*
X352234380Y-118237380D01*
X352377238Y-118285000D01*
X352424857Y-118332619D01*
X352805809Y-118332619D02*
X352853428Y-118285000D01*
X352948666Y-118237380D01*
X353186761Y-118237380D01*
X353282000Y-118285000D01*
X353329619Y-118332619D01*
X353377238Y-118427857D01*
X353377238Y-118523095D01*
X353329619Y-118665952D01*
X352758190Y-119237380D01*
X353377238Y-119237380D01*
X353805809Y-119142142D02*
X353853428Y-119189761D01*
X353805809Y-119237380D01*
X353758190Y-119189761D01*
X353805809Y-119142142D01*
X353805809Y-119237380D01*
X354805809Y-119237380D02*
X354234380Y-119237380D01*
X354520095Y-119237380D02*
X354520095Y-118237380D01*
X354424857Y-118380238D01*
X354329619Y-118475476D01*
X354234380Y-118523095D01*
X355758190Y-119237380D02*
X355186761Y-119237380D01*
X355472476Y-119237380D02*
X355472476Y-118237380D01*
X355377238Y-118380238D01*
X355282000Y-118475476D01*
X355186761Y-118523095D01*
%TO.C,C2.4*%
X278733047Y-118126142D02*
X278685428Y-118173761D01*
X278542571Y-118221380D01*
X278447333Y-118221380D01*
X278304476Y-118173761D01*
X278209238Y-118078523D01*
X278161619Y-117983285D01*
X278114000Y-117792809D01*
X278114000Y-117649952D01*
X278161619Y-117459476D01*
X278209238Y-117364238D01*
X278304476Y-117269000D01*
X278447333Y-117221380D01*
X278542571Y-117221380D01*
X278685428Y-117269000D01*
X278733047Y-117316619D01*
X279114000Y-117316619D02*
X279161619Y-117269000D01*
X279256857Y-117221380D01*
X279494952Y-117221380D01*
X279590190Y-117269000D01*
X279637809Y-117316619D01*
X279685428Y-117411857D01*
X279685428Y-117507095D01*
X279637809Y-117649952D01*
X279066380Y-118221380D01*
X279685428Y-118221380D01*
X280114000Y-118126142D02*
X280161619Y-118173761D01*
X280114000Y-118221380D01*
X280066380Y-118173761D01*
X280114000Y-118126142D01*
X280114000Y-118221380D01*
X281018761Y-117554714D02*
X281018761Y-118221380D01*
X280780666Y-117173761D02*
X280542571Y-117888047D01*
X281161619Y-117888047D01*
%TO.C,C2.3*%
X304467047Y-127952142D02*
X304419428Y-127999761D01*
X304276571Y-128047380D01*
X304181333Y-128047380D01*
X304038476Y-127999761D01*
X303943238Y-127904523D01*
X303895619Y-127809285D01*
X303848000Y-127618809D01*
X303848000Y-127475952D01*
X303895619Y-127285476D01*
X303943238Y-127190238D01*
X304038476Y-127095000D01*
X304181333Y-127047380D01*
X304276571Y-127047380D01*
X304419428Y-127095000D01*
X304467047Y-127142619D01*
X304848000Y-127142619D02*
X304895619Y-127095000D01*
X304990857Y-127047380D01*
X305228952Y-127047380D01*
X305324190Y-127095000D01*
X305371809Y-127142619D01*
X305419428Y-127237857D01*
X305419428Y-127333095D01*
X305371809Y-127475952D01*
X304800380Y-128047380D01*
X305419428Y-128047380D01*
X305848000Y-127952142D02*
X305895619Y-127999761D01*
X305848000Y-128047380D01*
X305800380Y-127999761D01*
X305848000Y-127952142D01*
X305848000Y-128047380D01*
X306228952Y-127047380D02*
X306848000Y-127047380D01*
X306514666Y-127428333D01*
X306657523Y-127428333D01*
X306752761Y-127475952D01*
X306800380Y-127523571D01*
X306848000Y-127618809D01*
X306848000Y-127856904D01*
X306800380Y-127952142D01*
X306752761Y-127999761D01*
X306657523Y-128047380D01*
X306371809Y-128047380D01*
X306276571Y-127999761D01*
X306228952Y-127952142D01*
%TO.C,C2.2*%
X320469047Y-150558142D02*
X320421428Y-150605761D01*
X320278571Y-150653380D01*
X320183333Y-150653380D01*
X320040476Y-150605761D01*
X319945238Y-150510523D01*
X319897619Y-150415285D01*
X319850000Y-150224809D01*
X319850000Y-150081952D01*
X319897619Y-149891476D01*
X319945238Y-149796238D01*
X320040476Y-149701000D01*
X320183333Y-149653380D01*
X320278571Y-149653380D01*
X320421428Y-149701000D01*
X320469047Y-149748619D01*
X320850000Y-149748619D02*
X320897619Y-149701000D01*
X320992857Y-149653380D01*
X321230952Y-149653380D01*
X321326190Y-149701000D01*
X321373809Y-149748619D01*
X321421428Y-149843857D01*
X321421428Y-149939095D01*
X321373809Y-150081952D01*
X320802380Y-150653380D01*
X321421428Y-150653380D01*
X321850000Y-150558142D02*
X321897619Y-150605761D01*
X321850000Y-150653380D01*
X321802380Y-150605761D01*
X321850000Y-150558142D01*
X321850000Y-150653380D01*
X322278571Y-149748619D02*
X322326190Y-149701000D01*
X322421428Y-149653380D01*
X322659523Y-149653380D01*
X322754761Y-149701000D01*
X322802380Y-149748619D01*
X322850000Y-149843857D01*
X322850000Y-149939095D01*
X322802380Y-150081952D01*
X322230952Y-150653380D01*
X322850000Y-150653380D01*
%TO.C,C2.8*%
X368475047Y-120078142D02*
X368427428Y-120125761D01*
X368284571Y-120173380D01*
X368189333Y-120173380D01*
X368046476Y-120125761D01*
X367951238Y-120030523D01*
X367903619Y-119935285D01*
X367856000Y-119744809D01*
X367856000Y-119601952D01*
X367903619Y-119411476D01*
X367951238Y-119316238D01*
X368046476Y-119221000D01*
X368189333Y-119173380D01*
X368284571Y-119173380D01*
X368427428Y-119221000D01*
X368475047Y-119268619D01*
X368856000Y-119268619D02*
X368903619Y-119221000D01*
X368998857Y-119173380D01*
X369236952Y-119173380D01*
X369332190Y-119221000D01*
X369379809Y-119268619D01*
X369427428Y-119363857D01*
X369427428Y-119459095D01*
X369379809Y-119601952D01*
X368808380Y-120173380D01*
X369427428Y-120173380D01*
X369856000Y-120078142D02*
X369903619Y-120125761D01*
X369856000Y-120173380D01*
X369808380Y-120125761D01*
X369856000Y-120078142D01*
X369856000Y-120173380D01*
X370475047Y-119601952D02*
X370379809Y-119554333D01*
X370332190Y-119506714D01*
X370284571Y-119411476D01*
X370284571Y-119363857D01*
X370332190Y-119268619D01*
X370379809Y-119221000D01*
X370475047Y-119173380D01*
X370665523Y-119173380D01*
X370760761Y-119221000D01*
X370808380Y-119268619D01*
X370856000Y-119363857D01*
X370856000Y-119411476D01*
X370808380Y-119506714D01*
X370760761Y-119554333D01*
X370665523Y-119601952D01*
X370475047Y-119601952D01*
X370379809Y-119649571D01*
X370332190Y-119697190D01*
X370284571Y-119792428D01*
X370284571Y-119982904D01*
X370332190Y-120078142D01*
X370379809Y-120125761D01*
X370475047Y-120173380D01*
X370665523Y-120173380D01*
X370760761Y-120125761D01*
X370808380Y-120078142D01*
X370856000Y-119982904D01*
X370856000Y-119792428D01*
X370808380Y-119697190D01*
X370760761Y-119649571D01*
X370665523Y-119601952D01*
%TO.C,C12.5*%
X283670857Y-127825142D02*
X283623238Y-127872761D01*
X283480380Y-127920380D01*
X283385142Y-127920380D01*
X283242285Y-127872761D01*
X283147047Y-127777523D01*
X283099428Y-127682285D01*
X283051809Y-127491809D01*
X283051809Y-127348952D01*
X283099428Y-127158476D01*
X283147047Y-127063238D01*
X283242285Y-126968000D01*
X283385142Y-126920380D01*
X283480380Y-126920380D01*
X283623238Y-126968000D01*
X283670857Y-127015619D01*
X284623238Y-127920380D02*
X284051809Y-127920380D01*
X284337523Y-127920380D02*
X284337523Y-126920380D01*
X284242285Y-127063238D01*
X284147047Y-127158476D01*
X284051809Y-127206095D01*
X285004190Y-127015619D02*
X285051809Y-126968000D01*
X285147047Y-126920380D01*
X285385142Y-126920380D01*
X285480380Y-126968000D01*
X285528000Y-127015619D01*
X285575619Y-127110857D01*
X285575619Y-127206095D01*
X285528000Y-127348952D01*
X284956571Y-127920380D01*
X285575619Y-127920380D01*
X286004190Y-127825142D02*
X286051809Y-127872761D01*
X286004190Y-127920380D01*
X285956571Y-127872761D01*
X286004190Y-127825142D01*
X286004190Y-127920380D01*
X286956571Y-126920380D02*
X286480380Y-126920380D01*
X286432761Y-127396571D01*
X286480380Y-127348952D01*
X286575619Y-127301333D01*
X286813714Y-127301333D01*
X286908952Y-127348952D01*
X286956571Y-127396571D01*
X287004190Y-127491809D01*
X287004190Y-127729904D01*
X286956571Y-127825142D01*
X286908952Y-127872761D01*
X286813714Y-127920380D01*
X286575619Y-127920380D01*
X286480380Y-127872761D01*
X286432761Y-127825142D01*
%TO.C,H1.1L1*%
X64952857Y-122372380D02*
X64952857Y-121372380D01*
X64952857Y-121848571D02*
X65524285Y-121848571D01*
X65524285Y-122372380D02*
X65524285Y-121372380D01*
X66524285Y-122372380D02*
X65952857Y-122372380D01*
X66238571Y-122372380D02*
X66238571Y-121372380D01*
X66143333Y-121515238D01*
X66048095Y-121610476D01*
X65952857Y-121658095D01*
X66952857Y-122277142D02*
X67000476Y-122324761D01*
X66952857Y-122372380D01*
X66905238Y-122324761D01*
X66952857Y-122277142D01*
X66952857Y-122372380D01*
X67952857Y-122372380D02*
X67381428Y-122372380D01*
X67667142Y-122372380D02*
X67667142Y-121372380D01*
X67571904Y-121515238D01*
X67476666Y-121610476D01*
X67381428Y-121658095D01*
X68857619Y-122372380D02*
X68381428Y-122372380D01*
X68381428Y-121372380D01*
X69714761Y-122372380D02*
X69143333Y-122372380D01*
X69429047Y-122372380D02*
X69429047Y-121372380D01*
X69333809Y-121515238D01*
X69238571Y-121610476D01*
X69143333Y-121658095D01*
%TO.C,H1.1U1*%
X70167809Y-134564380D02*
X70167809Y-133564380D01*
X70167809Y-134040571D02*
X70739238Y-134040571D01*
X70739238Y-134564380D02*
X70739238Y-133564380D01*
X71739238Y-134564380D02*
X71167809Y-134564380D01*
X71453523Y-134564380D02*
X71453523Y-133564380D01*
X71358285Y-133707238D01*
X71263047Y-133802476D01*
X71167809Y-133850095D01*
X72167809Y-134469142D02*
X72215428Y-134516761D01*
X72167809Y-134564380D01*
X72120190Y-134516761D01*
X72167809Y-134469142D01*
X72167809Y-134564380D01*
X73167809Y-134564380D02*
X72596380Y-134564380D01*
X72882095Y-134564380D02*
X72882095Y-133564380D01*
X72786857Y-133707238D01*
X72691619Y-133802476D01*
X72596380Y-133850095D01*
X73596380Y-133564380D02*
X73596380Y-134373904D01*
X73644000Y-134469142D01*
X73691619Y-134516761D01*
X73786857Y-134564380D01*
X73977333Y-134564380D01*
X74072571Y-134516761D01*
X74120190Y-134469142D01*
X74167809Y-134373904D01*
X74167809Y-133564380D01*
X75167809Y-134564380D02*
X74596380Y-134564380D01*
X74882095Y-134564380D02*
X74882095Y-133564380D01*
X74786857Y-133707238D01*
X74691619Y-133802476D01*
X74596380Y-133850095D01*
%TO.C,H1.2L1*%
X164774857Y-122372380D02*
X164774857Y-121372380D01*
X164774857Y-121848571D02*
X165346285Y-121848571D01*
X165346285Y-122372380D02*
X165346285Y-121372380D01*
X166346285Y-122372380D02*
X165774857Y-122372380D01*
X166060571Y-122372380D02*
X166060571Y-121372380D01*
X165965333Y-121515238D01*
X165870095Y-121610476D01*
X165774857Y-121658095D01*
X166774857Y-122277142D02*
X166822476Y-122324761D01*
X166774857Y-122372380D01*
X166727238Y-122324761D01*
X166774857Y-122277142D01*
X166774857Y-122372380D01*
X167203428Y-121467619D02*
X167251047Y-121420000D01*
X167346285Y-121372380D01*
X167584380Y-121372380D01*
X167679619Y-121420000D01*
X167727238Y-121467619D01*
X167774857Y-121562857D01*
X167774857Y-121658095D01*
X167727238Y-121800952D01*
X167155809Y-122372380D01*
X167774857Y-122372380D01*
X168679619Y-122372380D02*
X168203428Y-122372380D01*
X168203428Y-121372380D01*
X169536761Y-122372380D02*
X168965333Y-122372380D01*
X169251047Y-122372380D02*
X169251047Y-121372380D01*
X169155809Y-121515238D01*
X169060571Y-121610476D01*
X168965333Y-121658095D01*
%TO.C,H1.2U1*%
X159321809Y-133548380D02*
X159321809Y-132548380D01*
X159321809Y-133024571D02*
X159893238Y-133024571D01*
X159893238Y-133548380D02*
X159893238Y-132548380D01*
X160893238Y-133548380D02*
X160321809Y-133548380D01*
X160607523Y-133548380D02*
X160607523Y-132548380D01*
X160512285Y-132691238D01*
X160417047Y-132786476D01*
X160321809Y-132834095D01*
X161321809Y-133453142D02*
X161369428Y-133500761D01*
X161321809Y-133548380D01*
X161274190Y-133500761D01*
X161321809Y-133453142D01*
X161321809Y-133548380D01*
X161750380Y-132643619D02*
X161798000Y-132596000D01*
X161893238Y-132548380D01*
X162131333Y-132548380D01*
X162226571Y-132596000D01*
X162274190Y-132643619D01*
X162321809Y-132738857D01*
X162321809Y-132834095D01*
X162274190Y-132976952D01*
X161702761Y-133548380D01*
X162321809Y-133548380D01*
X162750380Y-132548380D02*
X162750380Y-133357904D01*
X162798000Y-133453142D01*
X162845619Y-133500761D01*
X162940857Y-133548380D01*
X163131333Y-133548380D01*
X163226571Y-133500761D01*
X163274190Y-133453142D01*
X163321809Y-133357904D01*
X163321809Y-132548380D01*
X164321809Y-133548380D02*
X163750380Y-133548380D01*
X164036095Y-133548380D02*
X164036095Y-132548380D01*
X163940857Y-132691238D01*
X163845619Y-132786476D01*
X163750380Y-132834095D01*
%TO.C,H2.2U2*%
X358965809Y-133675380D02*
X358965809Y-132675380D01*
X358965809Y-133151571D02*
X359537238Y-133151571D01*
X359537238Y-133675380D02*
X359537238Y-132675380D01*
X359965809Y-132770619D02*
X360013428Y-132723000D01*
X360108666Y-132675380D01*
X360346761Y-132675380D01*
X360442000Y-132723000D01*
X360489619Y-132770619D01*
X360537238Y-132865857D01*
X360537238Y-132961095D01*
X360489619Y-133103952D01*
X359918190Y-133675380D01*
X360537238Y-133675380D01*
X360965809Y-133580142D02*
X361013428Y-133627761D01*
X360965809Y-133675380D01*
X360918190Y-133627761D01*
X360965809Y-133580142D01*
X360965809Y-133675380D01*
X361394380Y-132770619D02*
X361442000Y-132723000D01*
X361537238Y-132675380D01*
X361775333Y-132675380D01*
X361870571Y-132723000D01*
X361918190Y-132770619D01*
X361965809Y-132865857D01*
X361965809Y-132961095D01*
X361918190Y-133103952D01*
X361346761Y-133675380D01*
X361965809Y-133675380D01*
X362394380Y-132675380D02*
X362394380Y-133484904D01*
X362442000Y-133580142D01*
X362489619Y-133627761D01*
X362584857Y-133675380D01*
X362775333Y-133675380D01*
X362870571Y-133627761D01*
X362918190Y-133580142D01*
X362965809Y-133484904D01*
X362965809Y-132675380D01*
X363394380Y-132770619D02*
X363442000Y-132723000D01*
X363537238Y-132675380D01*
X363775333Y-132675380D01*
X363870571Y-132723000D01*
X363918190Y-132770619D01*
X363965809Y-132865857D01*
X363965809Y-132961095D01*
X363918190Y-133103952D01*
X363346761Y-133675380D01*
X363965809Y-133675380D01*
%TO.C,H2.1L1*%
X259770857Y-124404380D02*
X259770857Y-123404380D01*
X259770857Y-123880571D02*
X260342285Y-123880571D01*
X260342285Y-124404380D02*
X260342285Y-123404380D01*
X260770857Y-123499619D02*
X260818476Y-123452000D01*
X260913714Y-123404380D01*
X261151809Y-123404380D01*
X261247047Y-123452000D01*
X261294666Y-123499619D01*
X261342285Y-123594857D01*
X261342285Y-123690095D01*
X261294666Y-123832952D01*
X260723238Y-124404380D01*
X261342285Y-124404380D01*
X261770857Y-124309142D02*
X261818476Y-124356761D01*
X261770857Y-124404380D01*
X261723238Y-124356761D01*
X261770857Y-124309142D01*
X261770857Y-124404380D01*
X262770857Y-124404380D02*
X262199428Y-124404380D01*
X262485142Y-124404380D02*
X262485142Y-123404380D01*
X262389904Y-123547238D01*
X262294666Y-123642476D01*
X262199428Y-123690095D01*
X263675619Y-124404380D02*
X263199428Y-124404380D01*
X263199428Y-123404380D01*
X264532761Y-124404380D02*
X263961333Y-124404380D01*
X264247047Y-124404380D02*
X264247047Y-123404380D01*
X264151809Y-123547238D01*
X264056571Y-123642476D01*
X263961333Y-123690095D01*
%TO.C,H2.1U1*%
X270319809Y-133548380D02*
X270319809Y-132548380D01*
X270319809Y-133024571D02*
X270891238Y-133024571D01*
X270891238Y-133548380D02*
X270891238Y-132548380D01*
X271319809Y-132643619D02*
X271367428Y-132596000D01*
X271462666Y-132548380D01*
X271700761Y-132548380D01*
X271796000Y-132596000D01*
X271843619Y-132643619D01*
X271891238Y-132738857D01*
X271891238Y-132834095D01*
X271843619Y-132976952D01*
X271272190Y-133548380D01*
X271891238Y-133548380D01*
X272319809Y-133453142D02*
X272367428Y-133500761D01*
X272319809Y-133548380D01*
X272272190Y-133500761D01*
X272319809Y-133453142D01*
X272319809Y-133548380D01*
X273319809Y-133548380D02*
X272748380Y-133548380D01*
X273034095Y-133548380D02*
X273034095Y-132548380D01*
X272938857Y-132691238D01*
X272843619Y-132786476D01*
X272748380Y-132834095D01*
X273748380Y-132548380D02*
X273748380Y-133357904D01*
X273796000Y-133453142D01*
X273843619Y-133500761D01*
X273938857Y-133548380D01*
X274129333Y-133548380D01*
X274224571Y-133500761D01*
X274272190Y-133453142D01*
X274319809Y-133357904D01*
X274319809Y-132548380D01*
X275319809Y-133548380D02*
X274748380Y-133548380D01*
X275034095Y-133548380D02*
X275034095Y-132548380D01*
X274938857Y-132691238D01*
X274843619Y-132786476D01*
X274748380Y-132834095D01*
%TO.C,H2.2L1*%
X364926857Y-121991380D02*
X364926857Y-120991380D01*
X364926857Y-121467571D02*
X365498285Y-121467571D01*
X365498285Y-121991380D02*
X365498285Y-120991380D01*
X365926857Y-121086619D02*
X365974476Y-121039000D01*
X366069714Y-120991380D01*
X366307809Y-120991380D01*
X366403047Y-121039000D01*
X366450666Y-121086619D01*
X366498285Y-121181857D01*
X366498285Y-121277095D01*
X366450666Y-121419952D01*
X365879238Y-121991380D01*
X366498285Y-121991380D01*
X366926857Y-121896142D02*
X366974476Y-121943761D01*
X366926857Y-121991380D01*
X366879238Y-121943761D01*
X366926857Y-121896142D01*
X366926857Y-121991380D01*
X367355428Y-121086619D02*
X367403047Y-121039000D01*
X367498285Y-120991380D01*
X367736380Y-120991380D01*
X367831619Y-121039000D01*
X367879238Y-121086619D01*
X367926857Y-121181857D01*
X367926857Y-121277095D01*
X367879238Y-121419952D01*
X367307809Y-121991380D01*
X367926857Y-121991380D01*
X368831619Y-121991380D02*
X368355428Y-121991380D01*
X368355428Y-120991380D01*
X369688761Y-121991380D02*
X369117333Y-121991380D01*
X369403047Y-121991380D02*
X369403047Y-120991380D01*
X369307809Y-121134238D01*
X369212571Y-121229476D01*
X369117333Y-121277095D01*
%TO.C,J1*%
X218610380Y-142065333D02*
X219324666Y-142065333D01*
X219467523Y-142112952D01*
X219562761Y-142208190D01*
X219610380Y-142351047D01*
X219610380Y-142446285D01*
X219610380Y-141065333D02*
X219610380Y-141636761D01*
X219610380Y-141351047D02*
X218610380Y-141351047D01*
X218753238Y-141446285D01*
X218848476Y-141541523D01*
X218896095Y-141636761D01*
%TO.C,R1.3*%
X65667047Y-114836380D02*
X65333714Y-114360190D01*
X65095619Y-114836380D02*
X65095619Y-113836380D01*
X65476571Y-113836380D01*
X65571809Y-113884000D01*
X65619428Y-113931619D01*
X65667047Y-114026857D01*
X65667047Y-114169714D01*
X65619428Y-114264952D01*
X65571809Y-114312571D01*
X65476571Y-114360190D01*
X65095619Y-114360190D01*
X66619428Y-114836380D02*
X66048000Y-114836380D01*
X66333714Y-114836380D02*
X66333714Y-113836380D01*
X66238476Y-113979238D01*
X66143238Y-114074476D01*
X66048000Y-114122095D01*
X67048000Y-114741142D02*
X67095619Y-114788761D01*
X67048000Y-114836380D01*
X67000380Y-114788761D01*
X67048000Y-114741142D01*
X67048000Y-114836380D01*
X67428952Y-113836380D02*
X68048000Y-113836380D01*
X67714666Y-114217333D01*
X67857523Y-114217333D01*
X67952761Y-114264952D01*
X68000380Y-114312571D01*
X68048000Y-114407809D01*
X68048000Y-114645904D01*
X68000380Y-114741142D01*
X67952761Y-114788761D01*
X67857523Y-114836380D01*
X67571809Y-114836380D01*
X67476571Y-114788761D01*
X67428952Y-114741142D01*
%TO.C,R1.1*%
X112149047Y-121440380D02*
X111815714Y-120964190D01*
X111577619Y-121440380D02*
X111577619Y-120440380D01*
X111958571Y-120440380D01*
X112053809Y-120488000D01*
X112101428Y-120535619D01*
X112149047Y-120630857D01*
X112149047Y-120773714D01*
X112101428Y-120868952D01*
X112053809Y-120916571D01*
X111958571Y-120964190D01*
X111577619Y-120964190D01*
X113101428Y-121440380D02*
X112530000Y-121440380D01*
X112815714Y-121440380D02*
X112815714Y-120440380D01*
X112720476Y-120583238D01*
X112625238Y-120678476D01*
X112530000Y-120726095D01*
X113530000Y-121345142D02*
X113577619Y-121392761D01*
X113530000Y-121440380D01*
X113482380Y-121392761D01*
X113530000Y-121345142D01*
X113530000Y-121440380D01*
X114530000Y-121440380D02*
X113958571Y-121440380D01*
X114244285Y-121440380D02*
X114244285Y-120440380D01*
X114149047Y-120583238D01*
X114053809Y-120678476D01*
X113958571Y-120726095D01*
%TO.C,R1*%
X209383333Y-139814380D02*
X209050000Y-139338190D01*
X208811904Y-139814380D02*
X208811904Y-138814380D01*
X209192857Y-138814380D01*
X209288095Y-138862000D01*
X209335714Y-138909619D01*
X209383333Y-139004857D01*
X209383333Y-139147714D01*
X209335714Y-139242952D01*
X209288095Y-139290571D01*
X209192857Y-139338190D01*
X208811904Y-139338190D01*
X210335714Y-139814380D02*
X209764285Y-139814380D01*
X210050000Y-139814380D02*
X210050000Y-138814380D01*
X209954761Y-138957238D01*
X209859523Y-139052476D01*
X209764285Y-139100095D01*
%TO.C,R1.2*%
X81923047Y-114582380D02*
X81589714Y-114106190D01*
X81351619Y-114582380D02*
X81351619Y-113582380D01*
X81732571Y-113582380D01*
X81827809Y-113630000D01*
X81875428Y-113677619D01*
X81923047Y-113772857D01*
X81923047Y-113915714D01*
X81875428Y-114010952D01*
X81827809Y-114058571D01*
X81732571Y-114106190D01*
X81351619Y-114106190D01*
X82875428Y-114582380D02*
X82304000Y-114582380D01*
X82589714Y-114582380D02*
X82589714Y-113582380D01*
X82494476Y-113725238D01*
X82399238Y-113820476D01*
X82304000Y-113868095D01*
X83304000Y-114487142D02*
X83351619Y-114534761D01*
X83304000Y-114582380D01*
X83256380Y-114534761D01*
X83304000Y-114487142D01*
X83304000Y-114582380D01*
X83732571Y-113677619D02*
X83780190Y-113630000D01*
X83875428Y-113582380D01*
X84113523Y-113582380D01*
X84208761Y-113630000D01*
X84256380Y-113677619D01*
X84304000Y-113772857D01*
X84304000Y-113868095D01*
X84256380Y-114010952D01*
X83684952Y-114582380D01*
X84304000Y-114582380D01*
%TO.C,R1.4*%
X147963047Y-119916380D02*
X147629714Y-119440190D01*
X147391619Y-119916380D02*
X147391619Y-118916380D01*
X147772571Y-118916380D01*
X147867809Y-118964000D01*
X147915428Y-119011619D01*
X147963047Y-119106857D01*
X147963047Y-119249714D01*
X147915428Y-119344952D01*
X147867809Y-119392571D01*
X147772571Y-119440190D01*
X147391619Y-119440190D01*
X148915428Y-119916380D02*
X148344000Y-119916380D01*
X148629714Y-119916380D02*
X148629714Y-118916380D01*
X148534476Y-119059238D01*
X148439238Y-119154476D01*
X148344000Y-119202095D01*
X149344000Y-119821142D02*
X149391619Y-119868761D01*
X149344000Y-119916380D01*
X149296380Y-119868761D01*
X149344000Y-119821142D01*
X149344000Y-119916380D01*
X150248761Y-119249714D02*
X150248761Y-119916380D01*
X150010666Y-118868761D02*
X149772571Y-119583047D01*
X150391619Y-119583047D01*
%TO.C,R1.5*%
X167775047Y-116614380D02*
X167441714Y-116138190D01*
X167203619Y-116614380D02*
X167203619Y-115614380D01*
X167584571Y-115614380D01*
X167679809Y-115662000D01*
X167727428Y-115709619D01*
X167775047Y-115804857D01*
X167775047Y-115947714D01*
X167727428Y-116042952D01*
X167679809Y-116090571D01*
X167584571Y-116138190D01*
X167203619Y-116138190D01*
X168727428Y-116614380D02*
X168156000Y-116614380D01*
X168441714Y-116614380D02*
X168441714Y-115614380D01*
X168346476Y-115757238D01*
X168251238Y-115852476D01*
X168156000Y-115900095D01*
X169156000Y-116519142D02*
X169203619Y-116566761D01*
X169156000Y-116614380D01*
X169108380Y-116566761D01*
X169156000Y-116519142D01*
X169156000Y-116614380D01*
X170108380Y-115614380D02*
X169632190Y-115614380D01*
X169584571Y-116090571D01*
X169632190Y-116042952D01*
X169727428Y-115995333D01*
X169965523Y-115995333D01*
X170060761Y-116042952D01*
X170108380Y-116090571D01*
X170156000Y-116185809D01*
X170156000Y-116423904D01*
X170108380Y-116519142D01*
X170060761Y-116566761D01*
X169965523Y-116614380D01*
X169727428Y-116614380D01*
X169632190Y-116566761D01*
X169584571Y-116519142D01*
%TO.C,R2.1*%
X313063047Y-121059380D02*
X312729714Y-120583190D01*
X312491619Y-121059380D02*
X312491619Y-120059380D01*
X312872571Y-120059380D01*
X312967809Y-120107000D01*
X313015428Y-120154619D01*
X313063047Y-120249857D01*
X313063047Y-120392714D01*
X313015428Y-120487952D01*
X312967809Y-120535571D01*
X312872571Y-120583190D01*
X312491619Y-120583190D01*
X313444000Y-120154619D02*
X313491619Y-120107000D01*
X313586857Y-120059380D01*
X313824952Y-120059380D01*
X313920190Y-120107000D01*
X313967809Y-120154619D01*
X314015428Y-120249857D01*
X314015428Y-120345095D01*
X313967809Y-120487952D01*
X313396380Y-121059380D01*
X314015428Y-121059380D01*
X314444000Y-120964142D02*
X314491619Y-121011761D01*
X314444000Y-121059380D01*
X314396380Y-121011761D01*
X314444000Y-120964142D01*
X314444000Y-121059380D01*
X315444000Y-121059380D02*
X314872571Y-121059380D01*
X315158285Y-121059380D02*
X315158285Y-120059380D01*
X315063047Y-120202238D01*
X314967809Y-120297476D01*
X314872571Y-120345095D01*
%TO.C,R2*%
X209383333Y-135242380D02*
X209050000Y-134766190D01*
X208811904Y-135242380D02*
X208811904Y-134242380D01*
X209192857Y-134242380D01*
X209288095Y-134290000D01*
X209335714Y-134337619D01*
X209383333Y-134432857D01*
X209383333Y-134575714D01*
X209335714Y-134670952D01*
X209288095Y-134718571D01*
X209192857Y-134766190D01*
X208811904Y-134766190D01*
X209764285Y-134337619D02*
X209811904Y-134290000D01*
X209907142Y-134242380D01*
X210145238Y-134242380D01*
X210240476Y-134290000D01*
X210288095Y-134337619D01*
X210335714Y-134432857D01*
X210335714Y-134528095D01*
X210288095Y-134670952D01*
X209716666Y-135242380D01*
X210335714Y-135242380D01*
%TO.C,R2.5*%
X356751047Y-111747380D02*
X356417714Y-111271190D01*
X356179619Y-111747380D02*
X356179619Y-110747380D01*
X356560571Y-110747380D01*
X356655809Y-110795000D01*
X356703428Y-110842619D01*
X356751047Y-110937857D01*
X356751047Y-111080714D01*
X356703428Y-111175952D01*
X356655809Y-111223571D01*
X356560571Y-111271190D01*
X356179619Y-111271190D01*
X357132000Y-110842619D02*
X357179619Y-110795000D01*
X357274857Y-110747380D01*
X357512952Y-110747380D01*
X357608190Y-110795000D01*
X357655809Y-110842619D01*
X357703428Y-110937857D01*
X357703428Y-111033095D01*
X357655809Y-111175952D01*
X357084380Y-111747380D01*
X357703428Y-111747380D01*
X358132000Y-111652142D02*
X358179619Y-111699761D01*
X358132000Y-111747380D01*
X358084380Y-111699761D01*
X358132000Y-111652142D01*
X358132000Y-111747380D01*
X359084380Y-110747380D02*
X358608190Y-110747380D01*
X358560571Y-111223571D01*
X358608190Y-111175952D01*
X358703428Y-111128333D01*
X358941523Y-111128333D01*
X359036761Y-111175952D01*
X359084380Y-111223571D01*
X359132000Y-111318809D01*
X359132000Y-111556904D01*
X359084380Y-111652142D01*
X359036761Y-111699761D01*
X358941523Y-111747380D01*
X358703428Y-111747380D01*
X358608190Y-111699761D01*
X358560571Y-111652142D01*
%TO.C,R2.2*%
X283980047Y-118265380D02*
X283646714Y-117789190D01*
X283408619Y-118265380D02*
X283408619Y-117265380D01*
X283789571Y-117265380D01*
X283884809Y-117313000D01*
X283932428Y-117360619D01*
X283980047Y-117455857D01*
X283980047Y-117598714D01*
X283932428Y-117693952D01*
X283884809Y-117741571D01*
X283789571Y-117789190D01*
X283408619Y-117789190D01*
X284361000Y-117360619D02*
X284408619Y-117313000D01*
X284503857Y-117265380D01*
X284741952Y-117265380D01*
X284837190Y-117313000D01*
X284884809Y-117360619D01*
X284932428Y-117455857D01*
X284932428Y-117551095D01*
X284884809Y-117693952D01*
X284313380Y-118265380D01*
X284932428Y-118265380D01*
X285361000Y-118170142D02*
X285408619Y-118217761D01*
X285361000Y-118265380D01*
X285313380Y-118217761D01*
X285361000Y-118170142D01*
X285361000Y-118265380D01*
X285789571Y-117360619D02*
X285837190Y-117313000D01*
X285932428Y-117265380D01*
X286170523Y-117265380D01*
X286265761Y-117313000D01*
X286313380Y-117360619D01*
X286361000Y-117455857D01*
X286361000Y-117551095D01*
X286313380Y-117693952D01*
X285741952Y-118265380D01*
X286361000Y-118265380D01*
%TO.C,R2.4*%
X373515047Y-116487380D02*
X373181714Y-116011190D01*
X372943619Y-116487380D02*
X372943619Y-115487380D01*
X373324571Y-115487380D01*
X373419809Y-115535000D01*
X373467428Y-115582619D01*
X373515047Y-115677857D01*
X373515047Y-115820714D01*
X373467428Y-115915952D01*
X373419809Y-115963571D01*
X373324571Y-116011190D01*
X372943619Y-116011190D01*
X373896000Y-115582619D02*
X373943619Y-115535000D01*
X374038857Y-115487380D01*
X374276952Y-115487380D01*
X374372190Y-115535000D01*
X374419809Y-115582619D01*
X374467428Y-115677857D01*
X374467428Y-115773095D01*
X374419809Y-115915952D01*
X373848380Y-116487380D01*
X374467428Y-116487380D01*
X374896000Y-116392142D02*
X374943619Y-116439761D01*
X374896000Y-116487380D01*
X374848380Y-116439761D01*
X374896000Y-116392142D01*
X374896000Y-116487380D01*
X375800761Y-115820714D02*
X375800761Y-116487380D01*
X375562666Y-115439761D02*
X375324571Y-116154047D01*
X375943619Y-116154047D01*
%TO.C,R2.3*%
X254643047Y-113525380D02*
X254309714Y-113049190D01*
X254071619Y-113525380D02*
X254071619Y-112525380D01*
X254452571Y-112525380D01*
X254547809Y-112573000D01*
X254595428Y-112620619D01*
X254643047Y-112715857D01*
X254643047Y-112858714D01*
X254595428Y-112953952D01*
X254547809Y-113001571D01*
X254452571Y-113049190D01*
X254071619Y-113049190D01*
X255024000Y-112620619D02*
X255071619Y-112573000D01*
X255166857Y-112525380D01*
X255404952Y-112525380D01*
X255500190Y-112573000D01*
X255547809Y-112620619D01*
X255595428Y-112715857D01*
X255595428Y-112811095D01*
X255547809Y-112953952D01*
X254976380Y-113525380D01*
X255595428Y-113525380D01*
X256024000Y-113430142D02*
X256071619Y-113477761D01*
X256024000Y-113525380D01*
X255976380Y-113477761D01*
X256024000Y-113430142D01*
X256024000Y-113525380D01*
X256404952Y-112525380D02*
X257024000Y-112525380D01*
X256690666Y-112906333D01*
X256833523Y-112906333D01*
X256928761Y-112953952D01*
X256976380Y-113001571D01*
X257024000Y-113096809D01*
X257024000Y-113334904D01*
X256976380Y-113430142D01*
X256928761Y-113477761D01*
X256833523Y-113525380D01*
X256547809Y-113525380D01*
X256452571Y-113477761D01*
X256404952Y-113430142D01*
%TO.C,U2*%
X316443095Y-125427380D02*
X316443095Y-126236904D01*
X316490714Y-126332142D01*
X316538333Y-126379761D01*
X316633571Y-126427380D01*
X316824047Y-126427380D01*
X316919285Y-126379761D01*
X316966904Y-126332142D01*
X317014523Y-126236904D01*
X317014523Y-125427380D01*
X317443095Y-125522619D02*
X317490714Y-125475000D01*
X317585952Y-125427380D01*
X317824047Y-125427380D01*
X317919285Y-125475000D01*
X317966904Y-125522619D01*
X318014523Y-125617857D01*
X318014523Y-125713095D01*
X317966904Y-125855952D01*
X317395476Y-126427380D01*
X318014523Y-126427380D01*
%TO.C,X1.1*%
X70358190Y-144740380D02*
X71024857Y-145740380D01*
X71024857Y-144740380D02*
X70358190Y-145740380D01*
X71929619Y-145740380D02*
X71358190Y-145740380D01*
X71643904Y-145740380D02*
X71643904Y-144740380D01*
X71548666Y-144883238D01*
X71453428Y-144978476D01*
X71358190Y-145026095D01*
X72358190Y-145645142D02*
X72405809Y-145692761D01*
X72358190Y-145740380D01*
X72310571Y-145692761D01*
X72358190Y-145645142D01*
X72358190Y-145740380D01*
X73358190Y-145740380D02*
X72786761Y-145740380D01*
X73072476Y-145740380D02*
X73072476Y-144740380D01*
X72977238Y-144883238D01*
X72882000Y-144978476D01*
X72786761Y-145026095D01*
%TO.C,X1.2*%
X165608190Y-142200380D02*
X166274857Y-143200380D01*
X166274857Y-142200380D02*
X165608190Y-143200380D01*
X167179619Y-143200380D02*
X166608190Y-143200380D01*
X166893904Y-143200380D02*
X166893904Y-142200380D01*
X166798666Y-142343238D01*
X166703428Y-142438476D01*
X166608190Y-142486095D01*
X167608190Y-143105142D02*
X167655809Y-143152761D01*
X167608190Y-143200380D01*
X167560571Y-143152761D01*
X167608190Y-143105142D01*
X167608190Y-143200380D01*
X168036761Y-142295619D02*
X168084380Y-142248000D01*
X168179619Y-142200380D01*
X168417714Y-142200380D01*
X168512952Y-142248000D01*
X168560571Y-142295619D01*
X168608190Y-142390857D01*
X168608190Y-142486095D01*
X168560571Y-142628952D01*
X167989142Y-143200380D01*
X168608190Y-143200380D01*
%TO.C,X2.2*%
X365938190Y-142200380D02*
X366604857Y-143200380D01*
X366604857Y-142200380D02*
X365938190Y-143200380D01*
X366938190Y-142295619D02*
X366985809Y-142248000D01*
X367081047Y-142200380D01*
X367319142Y-142200380D01*
X367414380Y-142248000D01*
X367462000Y-142295619D01*
X367509619Y-142390857D01*
X367509619Y-142486095D01*
X367462000Y-142628952D01*
X366890571Y-143200380D01*
X367509619Y-143200380D01*
X367938190Y-143105142D02*
X367985809Y-143152761D01*
X367938190Y-143200380D01*
X367890571Y-143152761D01*
X367938190Y-143105142D01*
X367938190Y-143200380D01*
X368366761Y-142295619D02*
X368414380Y-142248000D01*
X368509619Y-142200380D01*
X368747714Y-142200380D01*
X368842952Y-142248000D01*
X368890571Y-142295619D01*
X368938190Y-142390857D01*
X368938190Y-142486095D01*
X368890571Y-142628952D01*
X368319142Y-143200380D01*
X368938190Y-143200380D01*
%TD*%
M02*
