M48
; DRILL file {KiCad (5.1.9)-1} date 03/23/21 10:31:52
; FORMAT={-:-/ absolute / inch / decimal}
; #@! TF.CreationDate,2021-03-23T10:31:52+01:00
; #@! TF.GenerationSoftware,Kicad,Pcbnew,(5.1.9)-1
FMAT,2
INCH
T1C0.0157
T2C0.0236
T3C0.0300
T4C0.0315
T5C0.0394
T6C0.0709
T7C0.1181
T8C0.1811
%
G90
G05
T1
X2.98Y-5.39
X2.99Y-4.29
X3.11Y-4.29
X3.28Y-5.2
X3.41Y-5.13
X3.5525Y-5.3825
X4.25Y-4.35
X4.29Y-5.58
X4.305Y-4.215
X5.1Y-5.44
X5.22Y-5.58
X5.57Y-5.28
X5.66Y-4.21
X5.67Y-5.65
X5.73Y-5.45
X5.7975Y-5.2325
X5.8625Y-5.3325
X6.24Y-5.42
X6.3Y-4.21
X6.3Y-4.45
X7.27Y-4.21
X7.32Y-4.66
X7.33Y-4.78
X7.4Y-4.22
X7.48Y-4.67
X7.48Y-4.75
X7.48Y-4.83
X7.48Y-4.93
X9.41Y-4.22
X9.59Y-4.805
X9.59Y-4.99
X9.59Y-5.225
X10.26Y-4.215
X10.925Y-5.28
X11.01Y-4.215
X11.25Y-5.18
X11.3Y-5.28
X12.015Y-5.11
X12.13Y-4.215
X12.16Y-5.38
X12.19Y-5.585
X12.26Y-4.515
X12.34Y-4.445
X12.62Y-4.455
X12.63Y-4.335
X12.85Y-5.285
X12.95Y-5.575
X13.37Y-5.185
X13.75Y-5.445
X14.12Y-4.255
X14.5Y-4.255
T2
X2.6Y-4.88
X2.6Y-5.25
X2.65Y-4.88
X2.65Y-5.25
X2.7Y-4.88
X2.7Y-5.25
X6.54Y-4.88
X6.54Y-5.25
X6.59Y-4.88
X6.59Y-5.25
X6.64Y-4.88
X6.64Y-5.25
X10.48Y-4.88
X10.48Y-5.25
X10.53Y-4.88
X10.53Y-5.25
X10.58Y-4.88
X10.58Y-5.25
X14.41Y-4.885
X14.41Y-5.245
X14.46Y-4.885
X14.46Y-5.245
X14.51Y-4.885
X14.51Y-5.245
T3
X7.6Y-4.55
X7.6Y-5.15
X7.7Y-4.55
X7.7Y-5.15
X7.8Y-4.55
X7.8Y-5.15
X7.9Y-4.55
X7.9Y-5.15
X8.0Y-4.55
X8.0Y-5.15
X8.1Y-4.55
X8.1Y-5.15
X8.2Y-4.55
X8.2Y-5.15
X8.3Y-4.55
X8.3Y-5.15
X8.4Y-4.55
X8.4Y-5.15
X8.5Y-4.55
X8.5Y-5.15
X8.6Y-4.55
X8.6Y-5.15
X8.7Y-4.55
X8.7Y-5.15
X8.8Y-4.55
X8.8Y-5.15
X8.9Y-4.55
X8.9Y-5.15
X9.0Y-4.55
X9.0Y-5.15
X9.1Y-4.55
X9.1Y-5.15
X9.2Y-4.55
X9.2Y-5.15
X9.3Y-4.55
X9.3Y-5.15
X9.4Y-4.55
X9.4Y-5.15
X9.5Y-4.55
X9.5Y-5.15
T4
X2.1Y-5.0496
X2.1Y-5.5504
X2.2Y-5.15
X2.2Y-5.45
X2.3531Y-4.59
X2.42Y-4.41
X2.55Y-4.59
X2.6731Y-4.59
X2.82Y-4.41
X2.87Y-4.59
X3.0131Y-4.59
X3.06Y-4.4
X3.1Y-5.15
X3.1Y-5.45
X3.2Y-5.0496
X3.2Y-5.5504
X3.21Y-4.59
X3.3231Y-4.59
X3.46Y-4.4
X3.52Y-4.59
X4.0531Y-4.94
X4.25Y-4.67
X4.25Y-4.94
X4.65Y-4.67
X4.9Y-5.8
X5.0969Y-5.8
X5.6131Y-4.85
X5.66Y-4.61
X5.81Y-4.85
X5.9231Y-4.8
X6.037Y-5.0496
X6.037Y-5.5504
X6.06Y-4.61
X6.12Y-4.8
X6.137Y-5.15
X6.137Y-5.45
X6.2131Y-4.64
X6.41Y-4.64
X6.44Y-4.48
X6.84Y-4.48
X6.8531Y-4.64
X7.037Y-5.15
X7.037Y-5.45
X7.05Y-4.64
X7.137Y-5.0496
X7.137Y-5.5504
X7.7Y-5.5016
X7.7Y-5.6
X8.05Y-5.4
X8.05Y-5.58
X8.45Y-5.4
X8.45Y-5.58
X9.45Y-5.5016
X9.45Y-5.6
X9.78Y-4.845
X9.86Y-4.545
X9.974Y-5.0496
X9.974Y-5.5504
X9.9769Y-4.845
X10.0031Y-4.69
X10.074Y-5.15
X10.074Y-5.45
X10.2Y-4.69
X10.26Y-4.545
X10.91Y-4.735
X10.974Y-5.15
X10.974Y-5.45
X11.015Y-4.545
X11.074Y-5.0496
X11.074Y-5.5504
X11.1069Y-4.735
X11.1231Y-4.92
X11.32Y-4.92
X11.415Y-4.545
X11.9231Y-4.925
X12.12Y-4.925
X12.16Y-4.655
X12.5531Y-5.815
X12.56Y-4.655
X12.75Y-5.815
X13.83Y-4.775
X13.88Y-4.475
X13.911Y-5.0496
X13.911Y-5.5504
X14.011Y-5.15
X14.011Y-5.45
X14.0269Y-4.775
X14.0831Y-4.615
X14.28Y-4.475
X14.28Y-4.615
X14.4431Y-4.615
X14.54Y-4.475
X14.64Y-4.615
X14.7831Y-4.705
X14.911Y-5.15
X14.911Y-5.45
X14.94Y-4.475
X14.98Y-4.705
X15.011Y-5.0496
X15.011Y-5.5504
T5
X8.72Y-5.58
X8.82Y-5.58
X8.92Y-5.58
X9.02Y-5.58
T6
X2.1185Y-5.3
X3.1815Y-5.3
X6.0555Y-5.3
X7.1185Y-5.3
X9.9925Y-5.3
X11.0555Y-5.3
X13.9295Y-5.3
X14.9925Y-5.3
T7
X2.3157Y-4.9657
X2.65Y-5.7232
X2.9843Y-4.9657
X6.2528Y-4.9657
X6.587Y-5.7232
X6.9213Y-4.9657
X10.1898Y-4.9657
X10.524Y-5.7232
X10.8583Y-4.9657
X14.1268Y-4.9657
X14.461Y-5.7232
X14.7953Y-4.9657
T8
X2.65Y-5.0638
X6.587Y-5.0638
X10.524Y-5.0638
X14.461Y-5.0638
T0
M30
