%TF.GenerationSoftware,KiCad,Pcbnew,(5.1.9)-1*%
%TF.CreationDate,2021-03-23T10:31:46+01:00*%
%TF.ProjectId,pcb rev1,70636220-7265-4763-912e-6b696361645f,rev?*%
%TF.SameCoordinates,Original*%
%TF.FileFunction,Soldermask,Bot*%
%TF.FilePolarity,Negative*%
%FSLAX46Y46*%
G04 Gerber Fmt 4.6, Leading zero omitted, Abs format (unit mm)*
G04 Created by KiCad (PCBNEW (5.1.9)-1) date 2021-03-23 10:31:46*
%MOMM*%
%LPD*%
G01*
G04 APERTURE LIST*
%ADD10C,1.800000*%
%ADD11C,3.000000*%
%ADD12C,4.600000*%
%ADD13C,2.000000*%
%ADD14C,1.524000*%
%ADD15R,1.524000X1.524000*%
%ADD16C,1.600000*%
%ADD17R,1.600000X1.600000*%
%ADD18O,0.899160X1.501140*%
%ADD19O,1.700000X1.700000*%
%ADD20R,1.700000X1.700000*%
%ADD21O,1.600000X1.600000*%
G04 APERTURE END LIST*
D10*
%TO.C,X2.1*%
X253810000Y-134620000D03*
X280810000Y-134620000D03*
D11*
X267310000Y-145370000D03*
X275800000Y-126130000D03*
X258820000Y-126130000D03*
D12*
X267310000Y-128620000D03*
D13*
X281280000Y-128260000D03*
X281280000Y-140980000D03*
X253340000Y-140980000D03*
X253340000Y-128260000D03*
X278740000Y-138430000D03*
X278740000Y-130810000D03*
X255880000Y-138430000D03*
X255880000Y-130810000D03*
%TD*%
D14*
%TO.C,A1*%
X193040000Y-115570000D03*
X195580000Y-115570000D03*
X198120000Y-115570000D03*
X200660000Y-115570000D03*
X203200000Y-115570000D03*
X205740000Y-115570000D03*
X208280000Y-115570000D03*
X210820000Y-115570000D03*
X213360000Y-115570000D03*
X215900000Y-115570000D03*
X218440000Y-115570000D03*
X220980000Y-115570000D03*
X223520000Y-115570000D03*
X226060000Y-115570000D03*
X228600000Y-115570000D03*
X231140000Y-115570000D03*
X233680000Y-115570000D03*
X236220000Y-115570000D03*
X238760000Y-115570000D03*
X241300000Y-115570000D03*
X241300000Y-130810000D03*
X238760000Y-130810000D03*
X236220000Y-130810000D03*
X233680000Y-130810000D03*
X231140000Y-130810000D03*
X228600000Y-130810000D03*
X226060000Y-130810000D03*
X223520000Y-130810000D03*
X220980000Y-130810000D03*
X218440000Y-130810000D03*
X215900000Y-130810000D03*
X213360000Y-130810000D03*
X210820000Y-130810000D03*
X208280000Y-130810000D03*
X205740000Y-130810000D03*
X203200000Y-130810000D03*
X200660000Y-130810000D03*
X198120000Y-130810000D03*
X195580000Y-130810000D03*
D15*
X193040000Y-130810000D03*
%TD*%
D16*
%TO.C,C1.8*%
X142574000Y-123190000D03*
X147574000Y-123190000D03*
%TD*%
%TO.C,C1.2*%
X129460000Y-147320000D03*
X124460000Y-147320000D03*
%TD*%
%TO.C,C1.7*%
X67898000Y-116586000D03*
X72898000Y-116586000D03*
%TD*%
%TO.C,C1.9*%
X150448000Y-121920000D03*
X155448000Y-121920000D03*
%TD*%
%TO.C,C1.1*%
X195580000Y-139740000D03*
D17*
X195580000Y-142240000D03*
%TD*%
D16*
%TO.C,C1.10*%
X157814000Y-117856000D03*
X162814000Y-117856000D03*
%TD*%
%TO.C,C1.11*%
X174070000Y-117856000D03*
X179070000Y-117856000D03*
%TD*%
%TO.C,C1.4*%
X76534000Y-116586000D03*
X81534000Y-116586000D03*
%TD*%
%TO.C,C1.5*%
X84408000Y-116586000D03*
X89408000Y-116586000D03*
%TD*%
%TO.C,C1.6*%
X59770000Y-116586000D03*
X64770000Y-116586000D03*
%TD*%
%TO.C,C1.3*%
X102950000Y-125476000D03*
X107950000Y-125476000D03*
%TD*%
%TO.C,C2.1*%
X240030000Y-139740000D03*
D17*
X240030000Y-142240000D03*
%TD*%
D16*
%TO.C,C2.9*%
X375492000Y-119507000D03*
X380492000Y-119507000D03*
%TD*%
%TO.C,C2.7*%
X253412000Y-123063000D03*
X248412000Y-123063000D03*
%TD*%
%TO.C,C2.6*%
X254080000Y-119126000D03*
X259080000Y-119126000D03*
%TD*%
%TO.C,C2.10*%
X357712000Y-117221000D03*
X362712000Y-117221000D03*
%TD*%
%TO.C,C2.11*%
X356282000Y-121285000D03*
X351282000Y-121285000D03*
%TD*%
%TO.C,C2.4*%
X282114000Y-120269000D03*
X277114000Y-120269000D03*
%TD*%
%TO.C,C2.3*%
X302848000Y-125095000D03*
X307848000Y-125095000D03*
%TD*%
%TO.C,C2.2*%
X318850000Y-147701000D03*
X323850000Y-147701000D03*
%TD*%
%TO.C,C2.8*%
X366856000Y-117221000D03*
X371856000Y-117221000D03*
%TD*%
%TO.C,C12.5*%
X282528000Y-124968000D03*
X287528000Y-124968000D03*
%TD*%
D18*
%TO.C,H1.1L1*%
X68580000Y-123952000D03*
X66040000Y-123952000D03*
X67310000Y-123952000D03*
%TD*%
%TO.C,H1.1U1*%
X66040000Y-133350000D03*
X68580000Y-133350000D03*
X67310000Y-133350000D03*
%TD*%
%TO.C,H1.2L1*%
X168656000Y-123952000D03*
X166116000Y-123952000D03*
X167386000Y-123952000D03*
%TD*%
%TO.C,H1.2U1*%
X166116000Y-133350000D03*
X168656000Y-133350000D03*
X167386000Y-133350000D03*
%TD*%
%TO.C,H2.2U2*%
X366014000Y-133223000D03*
X368554000Y-133223000D03*
X367284000Y-133223000D03*
%TD*%
%TO.C,H2.1L1*%
X268732000Y-123952000D03*
X266192000Y-123952000D03*
X267462000Y-123952000D03*
%TD*%
%TO.C,H2.1U1*%
X266192000Y-133350000D03*
X268732000Y-133350000D03*
X267462000Y-133350000D03*
%TD*%
%TO.C,H2.2L1*%
X368554000Y-124079000D03*
X366014000Y-124079000D03*
X367284000Y-124079000D03*
%TD*%
D19*
%TO.C,J1*%
X229108000Y-141732000D03*
X226568000Y-141732000D03*
X224028000Y-141732000D03*
D20*
X221488000Y-141732000D03*
%TD*%
D21*
%TO.C,R1.3*%
X61468000Y-112014000D03*
D16*
X71628000Y-112014000D03*
%TD*%
D21*
%TO.C,R1.1*%
X107950000Y-118618000D03*
D16*
X118110000Y-118618000D03*
%TD*%
D21*
%TO.C,R1*%
X214630000Y-141732000D03*
D16*
X204470000Y-141732000D03*
%TD*%
D21*
%TO.C,R1.2*%
X77724000Y-111760000D03*
D16*
X87884000Y-111760000D03*
%TD*%
D21*
%TO.C,R1.4*%
X143764000Y-117094000D03*
D16*
X153924000Y-117094000D03*
%TD*%
D21*
%TO.C,R1.5*%
X163576000Y-113792000D03*
D16*
X173736000Y-113792000D03*
%TD*%
D21*
%TO.C,R2.1*%
X308864000Y-118237000D03*
D16*
X319024000Y-118237000D03*
%TD*%
D21*
%TO.C,R2*%
X214630000Y-137160000D03*
D16*
X204470000Y-137160000D03*
%TD*%
D21*
%TO.C,R2.5*%
X362712000Y-113665000D03*
D16*
X352552000Y-113665000D03*
%TD*%
D21*
%TO.C,R2.2*%
X279781000Y-115443000D03*
D16*
X289941000Y-115443000D03*
%TD*%
D21*
%TO.C,R2.4*%
X369316000Y-113665000D03*
D16*
X379476000Y-113665000D03*
%TD*%
D21*
%TO.C,R2.3*%
X260604000Y-115443000D03*
D16*
X250444000Y-115443000D03*
%TD*%
D10*
%TO.C,X1.1*%
X53810000Y-134620000D03*
X80810000Y-134620000D03*
D11*
X67310000Y-145370000D03*
X75800000Y-126130000D03*
X58820000Y-126130000D03*
D12*
X67310000Y-128620000D03*
D13*
X81280000Y-128260000D03*
X81280000Y-140980000D03*
X53340000Y-140980000D03*
X53340000Y-128260000D03*
X78740000Y-138430000D03*
X78740000Y-130810000D03*
X55880000Y-138430000D03*
X55880000Y-130810000D03*
%TD*%
D10*
%TO.C,X1.2*%
X153810000Y-134620000D03*
X180810000Y-134620000D03*
D11*
X167310000Y-145370000D03*
X175800000Y-126130000D03*
X158820000Y-126130000D03*
D12*
X167310000Y-128620000D03*
D13*
X181280000Y-128260000D03*
X181280000Y-140980000D03*
X153340000Y-140980000D03*
X153340000Y-128260000D03*
X178740000Y-138430000D03*
X178740000Y-130810000D03*
X155880000Y-138430000D03*
X155880000Y-130810000D03*
%TD*%
D10*
%TO.C,X2.2*%
X353810000Y-134620000D03*
X380810000Y-134620000D03*
D11*
X367310000Y-145370000D03*
X375800000Y-126130000D03*
X358820000Y-126130000D03*
D12*
X367310000Y-128620000D03*
D13*
X381280000Y-128260000D03*
X381280000Y-140980000D03*
X353340000Y-140980000D03*
X353340000Y-128260000D03*
X378740000Y-138430000D03*
X378740000Y-130810000D03*
X355880000Y-138430000D03*
X355880000Y-130810000D03*
%TD*%
M02*
